<mxfile host="app.diagrams.net" agent="Mozilla/5.0 (Windows NT 10.0; Win64; x64) AppleWebKit/537.36 (KHTML, like Gecko) Chrome/138.0.0.0 Safari/537.36" version="28.0.6">
  <diagram name="Page-1" id="2p3W1TwI71qRCSyU0E8I">
    <mxGraphModel dx="3565" dy="3373" grid="1" gridSize="10" guides="1" tooltips="1" connect="1" arrows="1" fold="1" page="1" pageScale="1" pageWidth="1200" pageHeight="1500" background="none" math="0" shadow="0">
      <root>
        <mxCell id="0" />
        <mxCell id="1" parent="0" />
        <mxCell id="SgpQ-Ep98uLSc8GFuPtw-4" value="" style="rounded=0;whiteSpace=wrap;html=1;fillColor=#DEEDFF;strokeColor=none;strokeWidth=2;" parent="1" vertex="1">
          <mxGeometry x="706.49" y="-1490" width="1583.51" height="1470" as="geometry" />
        </mxCell>
        <mxCell id="uIToXqVDKAPkT3p9r34H-6" value="" style="rounded=0;whiteSpace=wrap;html=1;dashed=1;fillColor=none;strokeWidth=2;" parent="1" vertex="1">
          <mxGeometry x="1120.22" y="-1316.18" width="1060" height="1270" as="geometry" />
        </mxCell>
        <mxCell id="uIToXqVDKAPkT3p9r34H-25" value="" style="rounded=0;whiteSpace=wrap;html=1;fillColor=none;strokeColor=#d6b656;shadow=0;strokeWidth=3;" parent="1" vertex="1">
          <mxGeometry x="1850.2217647058824" y="-1141.8942857142858" width="304.94" height="1079.39" as="geometry" />
        </mxCell>
        <mxCell id="uIToXqVDKAPkT3p9r34H-26" value="&lt;b&gt;&lt;font style=&quot;font-size: 24px;&quot;&gt;Gold Layer&lt;/font&gt;&lt;/b&gt;" style="rounded=0;whiteSpace=wrap;html=1;fillColor=#fff2cc;strokeColor=#D6B656;strokeWidth=3;shadow=1;" parent="1" vertex="1">
          <mxGeometry x="1850.2217647058824" y="-1247.2004081632654" width="304.94" height="78.98" as="geometry" />
        </mxCell>
        <mxCell id="uIToXqVDKAPkT3p9r34H-51" value="" style="group" parent="1" vertex="1" connectable="0">
          <mxGeometry x="1500.215294117647" y="-1247.2004081632654" width="304.94000000000005" height="1184.6961224489796" as="geometry" />
        </mxCell>
        <mxCell id="uIToXqVDKAPkT3p9r34H-16" value="" style="rounded=0;whiteSpace=wrap;html=1;fillColor=none;strokeColor=#C8C8C8;shadow=0;gradientColor=none;strokeWidth=3;" parent="uIToXqVDKAPkT3p9r34H-51" vertex="1">
          <mxGeometry y="105.30612244897952" width="304.94" height="1079.39" as="geometry" />
        </mxCell>
        <mxCell id="uIToXqVDKAPkT3p9r34H-17" value="&lt;b&gt;&lt;font style=&quot;font-size: 24px;&quot;&gt;Silver Layer&lt;/font&gt;&lt;/b&gt;" style="rounded=0;whiteSpace=wrap;html=1;fillColor=light-dark(#F5F5F5,#959595);gradientColor=none;strokeColor=#C8C8C8;strokeWidth=3;shadow=1;" parent="uIToXqVDKAPkT3p9r34H-51" vertex="1">
          <mxGeometry width="304.94" height="78.98" as="geometry" />
        </mxCell>
        <mxCell id="uIToXqVDKAPkT3p9r34H-18" value="" style="sketch=0;verticalLabelPosition=bottom;sketch=0;aspect=fixed;html=1;verticalAlign=top;strokeColor=#C8C8C8;fillColor=#C8C8C8;align=center;outlineConnect=0;pointerEvents=1;shape=mxgraph.citrix2.site_database;fillStyle=auto;gradientColor=none;strokeWidth=2;" parent="uIToXqVDKAPkT3p9r34H-51" vertex="1">
          <mxGeometry x="84.51694117647025" y="173.75510204081638" width="118.03" height="130" as="geometry" />
        </mxCell>
        <mxCell id="uIToXqVDKAPkT3p9r34H-19" value="&lt;font style=&quot;font-size: 24px;&quot;&gt;Cleaned, Standardized Data&lt;/font&gt;" style="text;html=1;align=center;verticalAlign=middle;whiteSpace=wrap;rounded=0;" parent="uIToXqVDKAPkT3p9r34H-51" vertex="1">
          <mxGeometry x="43.11105882352945" y="334.3469387755101" width="202.8482972136223" height="78.97959183673468" as="geometry" />
        </mxCell>
        <mxCell id="uIToXqVDKAPkT3p9r34H-20" value="" style="line;strokeWidth=2;rotatable=0;dashed=0;labelPosition=right;align=left;verticalAlign=middle;spacingTop=0;spacingLeft=6;points=[];portConstraint=eastwest;" parent="uIToXqVDKAPkT3p9r34H-51" vertex="1">
          <mxGeometry x="15.384705882352819" y="421.22040816326535" width="270.38" height="26.33" as="geometry" />
        </mxCell>
        <mxCell id="uIToXqVDKAPkT3p9r34H-23" value="&lt;div style=&quot;&quot;&gt;&lt;b style=&quot;&quot;&gt;&lt;font style=&quot;font-size: 24px;&quot;&gt;Transformations:&lt;/font&gt;&lt;/b&gt;&lt;/div&gt;&lt;div style=&quot;&quot;&gt;&lt;ul&gt;&lt;li&gt;&lt;font style=&quot;font-size: 24px;&quot;&gt;Data Cleansing&lt;/font&gt;&lt;/li&gt;&lt;li&gt;&lt;font style=&quot;font-size: 24px;&quot;&gt;Data Standardization&lt;/font&gt;&lt;/li&gt;&lt;li&gt;&lt;font style=&quot;font-size: 24px;&quot;&gt;Data Normalization&lt;/font&gt;&lt;/li&gt;&lt;li&gt;&lt;font style=&quot;font-size: 24px;&quot;&gt;Derived Columns&lt;/font&gt;&lt;/li&gt;&lt;li&gt;&lt;font style=&quot;font-size: 24px;&quot;&gt;Data Enrichment&lt;/font&gt;&lt;/li&gt;&lt;/ul&gt;&lt;/div&gt;" style="text;html=1;align=left;verticalAlign=middle;whiteSpace=wrap;rounded=0;" parent="uIToXqVDKAPkT3p9r34H-51" vertex="1">
          <mxGeometry x="8.344705882352855" y="771.0204081632653" width="270.38" height="78.98" as="geometry" />
        </mxCell>
        <mxCell id="uIToXqVDKAPkT3p9r34H-24" value="&lt;div style=&quot;&quot;&gt;&lt;font style=&quot;font-size: 24px;&quot;&gt;&lt;b style=&quot;&quot;&gt;Data Model:&lt;/b&gt;&amp;nbsp;None (as-is)&lt;/font&gt;&lt;/div&gt;" style="text;html=1;align=left;verticalAlign=middle;whiteSpace=wrap;rounded=0;" parent="uIToXqVDKAPkT3p9r34H-51" vertex="1">
          <mxGeometry x="12.28470588235291" y="921.0204081632653" width="280.38" height="78.98" as="geometry" />
        </mxCell>
        <mxCell id="uIToXqVDKAPkT3p9r34H-46" value="&lt;div style=&quot;&quot;&gt;&lt;font style=&quot;font-size: 24px;&quot;&gt;&lt;b style=&quot;background-color: transparent; color: light-dark(rgb(0, 0, 0), rgb(255, 255, 255));&quot;&gt;Object Type&lt;/b&gt;&lt;span style=&quot;background-color: transparent; color: light-dark(rgb(0, 0, 0), rgb(255, 255, 255));&quot;&gt;: Tables&lt;/span&gt;&lt;/font&gt;&lt;/div&gt;" style="text;html=1;align=left;verticalAlign=middle;whiteSpace=wrap;rounded=0;" parent="uIToXqVDKAPkT3p9r34H-51" vertex="1">
          <mxGeometry x="15.384705882352819" y="447.5504081632654" width="269.28" height="78.98" as="geometry" />
        </mxCell>
        <mxCell id="uIToXqVDKAPkT3p9r34H-47" value="&lt;b style=&quot;&quot;&gt;&lt;font style=&quot;font-size: 24px;&quot;&gt;Load Type:&lt;/font&gt;&lt;/b&gt;&lt;div&gt;&lt;ul&gt;&lt;li&gt;&lt;font style=&quot;font-size: 24px;&quot;&gt;Batch Processing&lt;/font&gt;&lt;/li&gt;&lt;li&gt;&lt;font style=&quot;font-size: 24px;&quot;&gt;Full Load&lt;/font&gt;&lt;/li&gt;&lt;li&gt;&lt;font style=&quot;font-size: 24px;&quot;&gt;Truncate &amp;amp; Insert&lt;/font&gt;&lt;/li&gt;&lt;/ul&gt;&lt;/div&gt;&lt;div&gt;&lt;b&gt;&lt;font style=&quot;font-size: 24px;&quot;&gt;&lt;br&gt;&lt;/font&gt;&lt;/b&gt;&lt;div&gt;&lt;span style=&quot;font-size: 13px;&quot;&gt;&lt;b&gt;&lt;br&gt;&lt;/b&gt;&lt;/span&gt;&lt;/div&gt;&lt;/div&gt;" style="text;html=1;align=left;verticalAlign=middle;whiteSpace=wrap;rounded=0;" parent="uIToXqVDKAPkT3p9r34H-51" vertex="1">
          <mxGeometry x="15.484705882352955" y="542.3304081632652" width="271.67" height="185.59" as="geometry" />
        </mxCell>
        <mxCell id="uIToXqVDKAPkT3p9r34H-50" value="" style="group" parent="1" vertex="1" connectable="0">
          <mxGeometry x="1149.22" y="-1247.2" width="373" height="1184.7" as="geometry" />
        </mxCell>
        <mxCell id="uIToXqVDKAPkT3p9r34H-7" value="" style="rounded=0;whiteSpace=wrap;html=1;fillColor=none;strokeColor=#CD7F32;shadow=1;strokeWidth=3;" parent="uIToXqVDKAPkT3p9r34H-50" vertex="1">
          <mxGeometry y="105.30999999999995" width="304.94" height="1079.39" as="geometry" />
        </mxCell>
        <mxCell id="uIToXqVDKAPkT3p9r34H-8" value="&lt;b&gt;&lt;font style=&quot;font-size: 24px;&quot;&gt;Bronze Layer&lt;/font&gt;&lt;/b&gt;" style="rounded=0;whiteSpace=wrap;html=1;fillColor=#ffcc99;opacity=70;strokeColor=#CD7F32;shadow=1;strokeWidth=3;" parent="uIToXqVDKAPkT3p9r34H-50" vertex="1">
          <mxGeometry width="304.94" height="78.98" as="geometry" />
        </mxCell>
        <mxCell id="uIToXqVDKAPkT3p9r34H-9" value="" style="sketch=0;verticalLabelPosition=bottom;sketch=0;aspect=fixed;html=1;verticalAlign=top;strokeColor=#CD7F32;fillColor=#CD7F32;align=center;outlineConnect=0;pointerEvents=1;shape=mxgraph.citrix2.site_database;fillStyle=auto;gradientColor=none;strokeWidth=2;" parent="uIToXqVDKAPkT3p9r34H-50" vertex="1">
          <mxGeometry x="84.51129411764714" y="191.574693877551" width="118.03" height="130" as="geometry" />
        </mxCell>
        <mxCell id="uIToXqVDKAPkT3p9r34H-10" value="&lt;font style=&quot;font-size: 24px;&quot;&gt;Raw Data&lt;/font&gt;" style="text;html=1;align=center;verticalAlign=middle;whiteSpace=wrap;rounded=0;" parent="uIToXqVDKAPkT3p9r34H-50" vertex="1">
          <mxGeometry x="42.10505882352936" y="334.3465306122448" width="202.8482972136223" height="78.97959183673468" as="geometry" />
        </mxCell>
        <mxCell id="uIToXqVDKAPkT3p9r34H-11" value="" style="line;strokeWidth=2;rotatable=0;dashed=0;labelPosition=right;align=left;verticalAlign=middle;spacingTop=0;spacingLeft=6;points=[];portConstraint=eastwest;" parent="uIToXqVDKAPkT3p9r34H-50" vertex="1">
          <mxGeometry x="17.200000000000045" y="420.05999999999995" width="267.74" height="26.33" as="geometry" />
        </mxCell>
        <mxCell id="uIToXqVDKAPkT3p9r34H-12" value="&lt;div style=&quot;&quot;&gt;&lt;font style=&quot;font-size: 24px;&quot;&gt;&lt;b style=&quot;background-color: transparent; color: light-dark(rgb(0, 0, 0), rgb(255, 255, 255));&quot;&gt;Object Type&lt;/b&gt;&lt;span style=&quot;background-color: transparent; color: light-dark(rgb(0, 0, 0), rgb(255, 255, 255));&quot;&gt;: Tables&lt;/span&gt;&lt;/font&gt;&lt;/div&gt;" style="text;html=1;align=left;verticalAlign=middle;whiteSpace=wrap;rounded=0;" parent="uIToXqVDKAPkT3p9r34H-50" vertex="1">
          <mxGeometry x="15.660000000000082" y="446.39" width="269.28" height="78.98" as="geometry" />
        </mxCell>
        <mxCell id="uIToXqVDKAPkT3p9r34H-13" value="&lt;b style=&quot;&quot;&gt;&lt;font style=&quot;font-size: 24px;&quot;&gt;Load Type:&lt;/font&gt;&lt;/b&gt;&lt;div&gt;&lt;ul&gt;&lt;li&gt;&lt;font style=&quot;font-size: 24px;&quot;&gt;Batch Processing&lt;/font&gt;&lt;/li&gt;&lt;li&gt;&lt;font style=&quot;font-size: 24px;&quot;&gt;Full Load&lt;/font&gt;&lt;/li&gt;&lt;li&gt;&lt;font style=&quot;font-size: 24px;&quot;&gt;Truncate &amp;amp; Insert&lt;/font&gt;&lt;/li&gt;&lt;/ul&gt;&lt;/div&gt;&lt;div&gt;&lt;b&gt;&lt;font style=&quot;font-size: 24px;&quot;&gt;&lt;br&gt;&lt;/font&gt;&lt;/b&gt;&lt;div&gt;&lt;span style=&quot;font-size: 13px;&quot;&gt;&lt;b&gt;&lt;br&gt;&lt;/b&gt;&lt;/span&gt;&lt;/div&gt;&lt;/div&gt;" style="text;html=1;align=left;verticalAlign=middle;whiteSpace=wrap;rounded=0;" parent="uIToXqVDKAPkT3p9r34H-50" vertex="1">
          <mxGeometry x="17.3900000000001" y="542.3299999999999" width="271.67" height="185.59" as="geometry" />
        </mxCell>
        <mxCell id="uIToXqVDKAPkT3p9r34H-14" value="&lt;div style=&quot;&quot;&gt;&lt;b style=&quot;&quot;&gt;&lt;font style=&quot;font-size: 24px;&quot;&gt;No Transformations&lt;/font&gt;&lt;/b&gt;&lt;/div&gt;" style="text;html=1;align=left;verticalAlign=middle;whiteSpace=wrap;rounded=0;" parent="uIToXqVDKAPkT3p9r34H-50" vertex="1">
          <mxGeometry x="17.200000000000045" y="681.02" width="250" height="78.98" as="geometry" />
        </mxCell>
        <mxCell id="uIToXqVDKAPkT3p9r34H-15" value="&lt;div style=&quot;&quot;&gt;&lt;font style=&quot;font-size: 24px;&quot;&gt;&lt;b style=&quot;&quot;&gt;Data Model:&lt;/b&gt;&amp;nbsp;&lt;/font&gt;&lt;font style=&quot;background-color: transparent; color: light-dark(rgb(0, 0, 0), rgb(255, 255, 255)); font-size: 24px;&quot;&gt;None&amp;nbsp;&lt;/font&gt;&lt;span style=&quot;background-color: transparent; color: light-dark(rgb(0, 0, 0), rgb(255, 255, 255)); font-size: 24px;&quot;&gt;(as-is)&lt;/span&gt;&lt;/div&gt;" style="text;html=1;align=left;verticalAlign=middle;whiteSpace=wrap;rounded=0;" parent="uIToXqVDKAPkT3p9r34H-50" vertex="1">
          <mxGeometry x="15.660000000000082" y="771.02" width="281.41" height="78.98" as="geometry" />
        </mxCell>
        <mxCell id="uIToXqVDKAPkT3p9r34H-37" value="" style="html=1;shadow=0;dashed=0;align=center;verticalAlign=middle;shape=mxgraph.arrows2.arrow;dy=0.6;dx=40;notch=0;fillColor=#dae8fc;strokeColor=#6c8ebf;strokeWidth=3;" parent="uIToXqVDKAPkT3p9r34H-50" vertex="1">
          <mxGeometry x="-101" y="221.02314960629928" width="100" height="71.1023622047244" as="geometry" />
        </mxCell>
        <mxCell id="uIToXqVDKAPkT3p9r34H-64" value="" style="html=1;shadow=0;dashed=0;align=center;verticalAlign=middle;shape=mxgraph.arrows2.arrow;dy=0.6;dx=40;notch=0;fillColor=#dae8fc;strokeColor=#6c8ebf;strokeWidth=3;" parent="uIToXqVDKAPkT3p9r34H-50" vertex="1">
          <mxGeometry x="273" y="221.01999999999998" width="100" height="71.1023622047244" as="geometry" />
        </mxCell>
        <mxCell id="uIToXqVDKAPkT3p9r34H-77" value="" style="html=1;shadow=0;dashed=0;align=center;verticalAlign=middle;shape=mxgraph.arrows2.arrow;dy=0.6;dx=40;notch=0;fillColor=#dae8fc;strokeColor=#6c8ebf;strokeWidth=3;" parent="uIToXqVDKAPkT3p9r34H-50" vertex="1">
          <mxGeometry x="628" y="221.01999999999998" width="100" height="71.1023622047244" as="geometry" />
        </mxCell>
        <mxCell id="SgpQ-Ep98uLSc8GFuPtw-1" value="" style="rounded=0;whiteSpace=wrap;html=1;fillColor=#FFCCCC;strokeColor=#36393d;strokeWidth=2;" parent="1" vertex="1">
          <mxGeometry x="20" y="-1490" width="660" height="1470" as="geometry" />
        </mxCell>
        <mxCell id="fqEwVpQqHCHQ80SQMjaH-1" value="" style="group;strokeWidth=2;" parent="1" vertex="1" connectable="0">
          <mxGeometry x="410.0023880597016" y="-1130.0045454545455" width="329.9976119402984" height="591.709090909091" as="geometry" />
        </mxCell>
        <mxCell id="qWopWF9tR3x7Arqnewn6-15" value="" style="rounded=0;whiteSpace=wrap;html=1;dashed=1;fillColor=none;strokeWidth=2;" parent="fqEwVpQqHCHQ80SQMjaH-1" vertex="1">
          <mxGeometry width="257.10447761194035" height="591.709090909091" as="geometry" />
        </mxCell>
        <mxCell id="qWopWF9tR3x7Arqnewn6-9" value="" style="line;strokeWidth=2;rotatable=0;dashed=0;labelPosition=right;align=left;verticalAlign=middle;spacingTop=0;spacingLeft=6;points=[];portConstraint=eastwest;" parent="fqEwVpQqHCHQ80SQMjaH-1" vertex="1">
          <mxGeometry x="20" y="277.53" width="220" height="26.18" as="geometry" />
        </mxCell>
        <mxCell id="qWopWF9tR3x7Arqnewn6-81" value="" style="group" parent="fqEwVpQqHCHQ80SQMjaH-1" vertex="1" connectable="0">
          <mxGeometry x="45.014925373134346" y="70.69090909090907" width="164.47761194029857" height="193.74545454545452" as="geometry" />
        </mxCell>
        <mxCell id="qWopWF9tR3x7Arqnewn6-10" value="&lt;font style=&quot;font-size: 24px;&quot;&gt;AzCopy&lt;/font&gt;" style="text;html=1;align=center;verticalAlign=middle;whiteSpace=wrap;rounded=0;" parent="qWopWF9tR3x7Arqnewn6-81" vertex="1">
          <mxGeometry y="115.19999999999999" width="164.47761194029857" height="78.54545454545455" as="geometry" />
        </mxCell>
        <mxCell id="SgpQ-Ep98uLSc8GFuPtw-29" value="" style="image;aspect=fixed;html=1;points=[];align=center;fontSize=12;image=img/lib/azure2/general/Powershell.svg;" parent="fqEwVpQqHCHQ80SQMjaH-1" vertex="1">
          <mxGeometry x="72.30179104477615" y="80.00090909090915" width="112.5" height="90" as="geometry" />
        </mxCell>
        <mxCell id="qWopWF9tR3x7Arqnewn6-11" value="&lt;font style=&quot;font-size: 24px;&quot;&gt;&lt;b style=&quot;&quot;&gt;Object Type&lt;/b&gt;:&amp;nbsp;&lt;/font&gt;&lt;div&gt;&lt;font style=&quot;font-size: 24px;&quot;&gt;&lt;font style=&quot;&quot;&gt;Powershell&amp;nbsp;&lt;/font&gt;&lt;span style=&quot;background-color: transparent; color: light-dark(rgb(0, 0, 0), rgb(255, 255, 255));&quot;&gt;Script&lt;/span&gt;&lt;/font&gt;&lt;/div&gt;" style="text;html=1;align=center;verticalAlign=middle;whiteSpace=wrap;rounded=0;" parent="fqEwVpQqHCHQ80SQMjaH-1" vertex="1">
          <mxGeometry x="20" y="301" width="220" height="78.55" as="geometry" />
        </mxCell>
        <mxCell id="qWopWF9tR3x7Arqnewn6-12" value="&lt;font style=&quot;font-size: 24px;&quot;&gt;&lt;b style=&quot;&quot;&gt;Function: &lt;/b&gt;Upload&amp;nbsp;&lt;/font&gt;&lt;div&gt;&lt;font style=&quot;font-size: 24px;&quot;&gt;CSV Files to Azure&lt;/font&gt;&lt;/div&gt;" style="text;html=1;align=center;verticalAlign=middle;whiteSpace=wrap;rounded=0;" parent="fqEwVpQqHCHQ80SQMjaH-1" vertex="1">
          <mxGeometry x="20" y="410" width="220" height="78.55" as="geometry" />
        </mxCell>
        <mxCell id="Jk4eIDcRh7JRY9oTh89a-10" value="" style="html=1;shadow=0;dashed=0;align=center;verticalAlign=middle;shape=mxgraph.arrows2.arrow;dy=0.6;dx=40;notch=0;fillColor=#dae8fc;strokeColor=#6c8ebf;strokeWidth=3;" parent="1" vertex="1">
          <mxGeometry x="320" y="-1030" width="100" height="70" as="geometry" />
        </mxCell>
        <mxCell id="Jk4eIDcRh7JRY9oTh89a-12" value="" style="html=1;shadow=0;dashed=0;align=center;verticalAlign=middle;shape=mxgraph.arrows2.arrow;dy=0.6;dx=40;notch=0;fillColor=#dae8fc;strokeColor=#6c8ebf;strokeWidth=3;" parent="1" vertex="1">
          <mxGeometry x="639" y="-1030" width="100" height="70" as="geometry" />
        </mxCell>
        <mxCell id="Jk4eIDcRh7JRY9oTh89a-14" value="" style="group;strokeWidth=2;" parent="1" vertex="1" connectable="0">
          <mxGeometry x="747.16" y="-1370" width="316.92" height="1323.82" as="geometry" />
        </mxCell>
        <mxCell id="SgpQ-Ep98uLSc8GFuPtw-6" value="" style="rounded=0;whiteSpace=wrap;html=1;dashed=1;fillColor=none;strokeWidth=2;" parent="Jk4eIDcRh7JRY9oTh89a-14" vertex="1">
          <mxGeometry x="1" y="50" width="316.92" height="1273.82" as="geometry" />
        </mxCell>
        <mxCell id="qWopWF9tR3x7Arqnewn6-22" value="&lt;font style=&quot;font-size: 24px;&quot;&gt;&lt;b style=&quot;&quot;&gt;Object Type&lt;/b&gt;: CSV Files&lt;/font&gt;" style="text;html=1;align=center;verticalAlign=middle;whiteSpace=wrap;rounded=0;" parent="Jk4eIDcRh7JRY9oTh89a-14" vertex="1">
          <mxGeometry x="21.090000000000032" y="534.92" width="281.75" height="78.55" as="geometry" />
        </mxCell>
        <mxCell id="qWopWF9tR3x7Arqnewn6-23" value="&lt;font style=&quot;font-size: 24px;&quot;&gt;&lt;b style=&quot;&quot;&gt;Function: &lt;/b&gt;Store&amp;nbsp;&lt;/font&gt;&lt;div style=&quot;&quot;&gt;&lt;font style=&quot;font-size: 24px;&quot;&gt;Raw Datasets&lt;/font&gt;&lt;/div&gt;" style="text;html=1;align=center;verticalAlign=middle;whiteSpace=wrap;rounded=0;" parent="Jk4eIDcRh7JRY9oTh89a-14" vertex="1">
          <mxGeometry x="17.582417473684245" y="649.997577312326" width="281.75" height="78.55" as="geometry" />
        </mxCell>
        <mxCell id="SgpQ-Ep98uLSc8GFuPtw-27" value="" style="image;sketch=0;aspect=fixed;html=1;points=[];align=center;fontSize=12;image=img/lib/mscae/BlobBlock.svg;" parent="Jk4eIDcRh7JRY9oTh89a-14" vertex="1">
          <mxGeometry x="104.88984926315777" y="325.44156478554555" width="107.14" height="90" as="geometry" />
        </mxCell>
        <mxCell id="qWopWF9tR3x7Arqnewn6-19" value="&lt;font style=&quot;font-size: 24px;&quot;&gt;Azure&amp;nbsp;&lt;/font&gt;&lt;div&gt;&lt;font style=&quot;font-size: 24px;&quot;&gt;Blob Storage&lt;/font&gt;&lt;/div&gt;" style="text;html=1;align=center;verticalAlign=middle;whiteSpace=wrap;rounded=0;" parent="Jk4eIDcRh7JRY9oTh89a-14" vertex="1">
          <mxGeometry x="21.084894736842102" y="415.4436160280429" width="274.7242105263158" height="94.66968901303078" as="geometry" />
        </mxCell>
        <mxCell id="SgpQ-Ep98uLSc8GFuPtw-43" value="" style="line;strokeWidth=2;rotatable=0;dashed=0;labelPosition=right;align=left;verticalAlign=middle;spacingTop=0;spacingLeft=6;points=[];portConstraint=eastwest;" parent="Jk4eIDcRh7JRY9oTh89a-14" vertex="1">
          <mxGeometry x="21.09274400000004" y="510.1104795348076" width="277.169256" height="31.553342946894166" as="geometry" />
        </mxCell>
        <mxCell id="Jk4eIDcRh7JRY9oTh89a-18" value="" style="group" parent="Jk4eIDcRh7JRY9oTh89a-14" vertex="1" connectable="0">
          <mxGeometry x="64.93000000000002" y="13.66" width="171.56000000000006" height="64.12" as="geometry" />
        </mxCell>
        <mxCell id="Jk4eIDcRh7JRY9oTh89a-20" value="" style="group" parent="Jk4eIDcRh7JRY9oTh89a-18" vertex="1" connectable="0">
          <mxGeometry x="5" width="166.56000000000006" height="64.12" as="geometry" />
        </mxCell>
        <mxCell id="SgpQ-Ep98uLSc8GFuPtw-7" value="&lt;font style=&quot;font-size: 33px;&quot;&gt;&lt;b style=&quot;&quot;&gt;&amp;nbsp;Azure&amp;nbsp;&lt;/b&gt;&lt;/font&gt;" style="rounded=0;whiteSpace=wrap;html=1;fillColor=#DEEDFF;strokeColor=none;labelBackgroundColor=none;" parent="Jk4eIDcRh7JRY9oTh89a-20" vertex="1">
          <mxGeometry x="66.56000000000004" y="16.34" width="100" height="31.45" as="geometry" />
        </mxCell>
        <mxCell id="Jk4eIDcRh7JRY9oTh89a-17" value="" style="image;aspect=fixed;html=1;points=[];align=center;fontSize=12;image=img/lib/azure2/other/Azure_A.svg;imageBackground=#DEEDFF;" parent="Jk4eIDcRh7JRY9oTh89a-20" vertex="1">
          <mxGeometry width="68" height="64.12" as="geometry" />
        </mxCell>
        <mxCell id="Jk4eIDcRh7JRY9oTh89a-15" value="" style="group" parent="1" vertex="1" connectable="0">
          <mxGeometry x="57.66" y="-1320" width="311.64" height="1268.71" as="geometry" />
        </mxCell>
        <mxCell id="qWopWF9tR3x7Arqnewn6-78" value="" style="rounded=0;whiteSpace=wrap;html=1;dashed=1;fillColor=none;strokeWidth=2;" parent="Jk4eIDcRh7JRY9oTh89a-15" vertex="1">
          <mxGeometry width="311.64" height="1268.71" as="geometry" />
        </mxCell>
        <mxCell id="SgpQ-Ep98uLSc8GFuPtw-41" value="" style="line;strokeWidth=2;rotatable=0;dashed=0;labelPosition=right;align=left;verticalAlign=middle;spacingTop=0;spacingLeft=6;points=[];portConstraint=eastwest;" parent="Jk4eIDcRh7JRY9oTh89a-15" vertex="1">
          <mxGeometry x="17.310149253731353" y="629.2871084243735" width="277.01492537313436" height="25.577022233951034" as="geometry" />
        </mxCell>
        <mxCell id="qWopWF9tR3x7Arqnewn6-5" value="&lt;font style=&quot;font-size: 24px;&quot;&gt;&lt;b style=&quot;&quot;&gt;Object Type&lt;/b&gt;: CSV Files&lt;/font&gt;" style="text;html=1;align=left;verticalAlign=middle;whiteSpace=wrap;rounded=0;" parent="Jk4eIDcRh7JRY9oTh89a-15" vertex="1">
          <mxGeometry x="22.340000000000003" y="653.7806595775809" width="270" height="78.89445649914147" as="geometry" />
        </mxCell>
        <mxCell id="qWopWF9tR3x7Arqnewn6-6" value="&lt;font style=&quot;font-size: 24px;&quot;&gt;&lt;b style=&quot;&quot;&gt;Interface: &lt;/b&gt;Files in&amp;nbsp;&lt;span style=&quot;background-color: transparent; color: light-dark(rgb(0, 0, 0), rgb(255, 255, 255));&quot;&gt;Local Folders&lt;/span&gt;&lt;/font&gt;" style="text;html=1;align=center;verticalAlign=middle;whiteSpace=wrap;rounded=0;" parent="Jk4eIDcRh7JRY9oTh89a-15" vertex="1">
          <mxGeometry x="13.411194029850762" y="761.9838969018908" width="284.80597014925377" height="76.7310667018531" as="geometry" />
        </mxCell>
        <mxCell id="qWopWF9tR3x7Arqnewn6-80" value="" style="group" parent="Jk4eIDcRh7JRY9oTh89a-15" vertex="1" connectable="0">
          <mxGeometry x="82.80686567164182" y="386.3053972018388" width="169.37" height="204.61617787160827" as="geometry" />
        </mxCell>
        <mxCell id="qWopWF9tR3x7Arqnewn6-4" value="&lt;font style=&quot;font-size: 24px;&quot;&gt;ERP&lt;/font&gt;" style="text;html=1;align=center;verticalAlign=middle;whiteSpace=wrap;rounded=0;" parent="qWopWF9tR3x7Arqnewn6-80" vertex="1">
          <mxGeometry x="22.38" y="115.55663121657085" width="103.88059701492539" height="76.7310667018531" as="geometry" />
        </mxCell>
        <mxCell id="Jk4eIDcRh7JRY9oTh89a-2" value="" style="group" parent="qWopWF9tR3x7Arqnewn6-80" vertex="1" connectable="0">
          <mxGeometry x="9.28" width="130.09" height="115.55751930762065" as="geometry" />
        </mxCell>
        <mxCell id="SgpQ-Ep98uLSc8GFuPtw-23" value="" style="image;aspect=fixed;html=1;points=[];align=center;fontSize=12;image=img/lib/azure2/general/Folder_Blank.svg;" parent="Jk4eIDcRh7JRY9oTh89a-2" vertex="1">
          <mxGeometry width="108.33822716387802" height="87.92101392920668" as="geometry" />
        </mxCell>
        <mxCell id="SgpQ-Ep98uLSc8GFuPtw-24" value="" style="image;aspect=fixed;html=1;points=[];align=center;fontSize=12;image=img/lib/azure2/general/File.svg;" parent="Jk4eIDcRh7JRY9oTh89a-2" vertex="1">
          <mxGeometry x="70.25" y="43.53067089650499" width="58.457705261374755" height="72.02684841111565" as="geometry" />
        </mxCell>
        <mxCell id="Jk4eIDcRh7JRY9oTh89a-4" value="" style="group" parent="Jk4eIDcRh7JRY9oTh89a-15" vertex="1" connectable="0">
          <mxGeometry x="82.34" y="136.76602166765483" width="169.37" height="204.61617787160827" as="geometry" />
        </mxCell>
        <mxCell id="Jk4eIDcRh7JRY9oTh89a-5" value="&lt;font style=&quot;font-size: 24px;&quot;&gt;CRM&lt;/font&gt;" style="text;html=1;align=center;verticalAlign=middle;whiteSpace=wrap;rounded=0;" parent="Jk4eIDcRh7JRY9oTh89a-4" vertex="1">
          <mxGeometry x="22.38" y="115.55663121657085" width="103.88059701492539" height="76.7310667018531" as="geometry" />
        </mxCell>
        <mxCell id="Jk4eIDcRh7JRY9oTh89a-6" value="" style="group" parent="Jk4eIDcRh7JRY9oTh89a-4" vertex="1" connectable="0">
          <mxGeometry x="9.28" width="130.09" height="115.55751930762065" as="geometry" />
        </mxCell>
        <mxCell id="Jk4eIDcRh7JRY9oTh89a-7" value="" style="image;aspect=fixed;html=1;points=[];align=center;fontSize=12;image=img/lib/azure2/general/Folder_Blank.svg;" parent="Jk4eIDcRh7JRY9oTh89a-6" vertex="1">
          <mxGeometry width="108.33822716387802" height="87.92101392920668" as="geometry" />
        </mxCell>
        <mxCell id="Jk4eIDcRh7JRY9oTh89a-8" value="" style="image;aspect=fixed;html=1;points=[];align=center;fontSize=12;image=img/lib/azure2/general/File.svg;" parent="Jk4eIDcRh7JRY9oTh89a-6" vertex="1">
          <mxGeometry x="70.25" y="43.53067089650499" width="58.457705261374755" height="72.02684841111565" as="geometry" />
        </mxCell>
        <mxCell id="Jk4eIDcRh7JRY9oTh89a-24" value="" style="group" parent="1" vertex="1" connectable="0">
          <mxGeometry x="170" y="-1482" width="373.51" height="106.54999999999995" as="geometry" />
        </mxCell>
        <mxCell id="SgpQ-Ep98uLSc8GFuPtw-3" value="&lt;font style=&quot;font-size: 50px;&quot;&gt;&lt;b style=&quot;&quot;&gt;On-Premises&lt;/b&gt;&lt;/font&gt;" style="rounded=0;whiteSpace=wrap;html=1;fillColor=none;strokeColor=none;fontSize=18;dashed=1;" parent="Jk4eIDcRh7JRY9oTh89a-24" vertex="1">
          <mxGeometry x="41.72" y="28" width="331.79" height="78.55" as="geometry" />
        </mxCell>
        <mxCell id="Jk4eIDcRh7JRY9oTh89a-23" value="" style="image;sketch=0;aspect=fixed;html=1;points=[];align=center;fontSize=12;image=img/lib/mscae/Exchange_On_premises_Access.svg;" parent="Jk4eIDcRh7JRY9oTh89a-24" vertex="1">
          <mxGeometry width="52.2" height="90" as="geometry" />
        </mxCell>
        <mxCell id="uIToXqVDKAPkT3p9r34H-2" value="" style="group" parent="1" vertex="1" connectable="0">
          <mxGeometry x="1340" y="-1480" width="340.44776119403014" height="98.5454545454545" as="geometry" />
        </mxCell>
        <mxCell id="uIToXqVDKAPkT3p9r34H-3" value="&lt;font style=&quot;font-size: 50px;&quot;&gt;&lt;b style=&quot;&quot;&gt;Cloud&lt;/b&gt;&lt;/font&gt;" style="rounded=0;whiteSpace=wrap;html=1;fillColor=none;strokeColor=none;fontSize=18;dashed=1;" parent="uIToXqVDKAPkT3p9r34H-2" vertex="1">
          <mxGeometry x="72.08955223880616" y="20" width="268.3582089552239" height="78.54545454545455" as="geometry" />
        </mxCell>
        <mxCell id="uIToXqVDKAPkT3p9r34H-4" value="" style="sketch=0;pointerEvents=1;shadow=0;dashed=0;html=1;strokeColor=none;aspect=fixed;labelPosition=center;verticalLabelPosition=bottom;verticalAlign=top;align=center;outlineConnect=0;shape=mxgraph.vvd.cloud_computing;fillColor=#066A90;" parent="uIToXqVDKAPkT3p9r34H-2" vertex="1">
          <mxGeometry width="132.5" height="84.8" as="geometry" />
        </mxCell>
        <mxCell id="uIToXqVDKAPkT3p9r34H-44" value="" style="group" parent="1" vertex="1" connectable="0">
          <mxGeometry x="1560.22" y="-1346.18" width="240" height="64" as="geometry" />
        </mxCell>
        <mxCell id="uIToXqVDKAPkT3p9r34H-45" value="" style="group" parent="uIToXqVDKAPkT3p9r34H-44" vertex="1" connectable="0">
          <mxGeometry width="240" height="64" as="geometry" />
        </mxCell>
        <mxCell id="uIToXqVDKAPkT3p9r34H-43" value="" style="shape=image;verticalLabelPosition=bottom;labelBackgroundColor=default;verticalAlign=top;aspect=fixed;imageAspect=0;image=data:image/png,iVBORw0KGgoAAAANSUhEUgAABAAAAAQACAYAAAB/HSuDAAAACXBIWXMAAAsT&#xa;AAALEwEAmpwYAAAgAElEQVR4nOzdeZhcV3ng/5a8b4BZjGULy6pzSi0aMGCz&#xa;BQhicSBAHAjgEDLBIQOBJMA4mWRwJpmknR/5EdaAEkPS6npPSTIOpBMGMpDA&#xa;YIPA7KCAwMJS13tKLQuEbTDGxhte5JrntITBILd6qar33Hu+n+f5Pg+QP9Kq&#xa;OvfU7bfr3jsyAgAo1mh75vRGiM9zoq/1Et/mJb7fS9ziRb/hQtzrRa93Id7k&#xa;Q+zNJnpb+t+86LUuxCud6OVe4gdd0PVeOn/UkPhra9oza0emeodZ/9uASpvq&#xa;HbZ6U3eNa+sLfYjnO9F3OdEPpGPOhfhNH/SaA8firT8+Pp3Em/cfs/odH/QK&#xa;F+KnvMQpL/Edrq2v99L9laZMN0Z6vWXW/zwAAAAAA7R2YveKZogvSr8M+KCf&#xa;8UFvuOcX+343OyiIW13Qf3Btfbnf2HHW/34gZ+kXcy+d33JB3+ODfuWnf7Hv&#xa;dy7EH/oQP39gqPDrzY3Tp1r/+wEAAAAswdjU9iN96P7S7F//Zv9iOKBf9uc/&#xa;FLjKhziR/qI5dtH2461fH8DSGZu3HZeOBSf6jz7o7gyOz+nZgUBbf3lVe+Zo&#xa;69cHAAAAwCGsG99yeEPic13QMPv1YOtfKu77l41bXdB/TX99XDm15xjr1w0Y&#xa;hrTW05pPa3+Qf+Ffak7ijV7iZh8655w1sfUI69cNAAAAwE/xGzorfYgXHPgr&#xa;u/kvEAv+ZSN9MyDomdavIzAIXjpjTvTNTuJ11sfbIoZ1aZA40WjFR1q/jgAA&#xa;AEDRGtJ96v6bfOld5r8o9OWXjbjViZ7HTQRReeO95ekv6C7opebHVf+GAZ9N&#xa;/yZuIggAAAAMUToJn71RmPUvBIP7RaPTCPG3GQSgipfhNFvxFT5ENT+OBpQL&#xa;ui3dUJRBAAAAADBAjXZ8lgv6JetfAIY4CJh2QV/KLxrIXq+3rCnxZWl4ZX7c&#xa;DG0QEL+a7jli/dIDAAAAtTLa2nHK/pty2Z/0G/2i8WmuQUauVm/qrnGiHy/3&#xa;+NQPr9mwc7X1+wAAAABU/uvEPsTzD9woz/xE33gIcKcLun60teME6/cFSFZM&#xa;7D3WiV7oJN5ufXxk8WQP0Qv9+s5R1u8LAAAAUDnN1vTTvMTt5if2meVC/JZv&#xa;dV9s/f6gbL6t5zqJ37Y+HrJLdLop3bOt3x8AAACgMn/1n/1LWtB95ifzOSdx&#xa;89hF24+3fr9QlpVTe47xEjeYr/+cE707fVtnbGr7kdbvFwAAAJAtv6Gz0ole&#xa;bn4CX5Fc0J2rJ7tnWL9vKIOXzpgPeoX1uq9O+hW/seOs3zcAAAAgOz50f8kH&#xa;vcb+pL1iid6W7pNg/f6h3pzoeT7oLebrvWKl+5fMPskDAAAAwMjIyHhvuQv6&#xa;lvS1WeuT9SrnQryYG5Ch31a1Z472ou+zXt9Vz4m+a2Sqd5j1+wkAAACYSdfI&#xa;OtFLrE/Oa5PELY2J7v2t31fUw6r2zAPSIyjN13VdkvihdA8F6/cVAAAAGLoz&#xa;Nm87zkv8qPlJee3SK5obp0+1fn9RbavaMyc7iV+zX8/1ykn8wtpNVz7I+v0F&#xa;AAAAhmZscs8DfYiftz4Zr2tOdGb1pu4a6/cZ1dSU6YYPUa3XcW1Ljzfd0Flp&#xa;/T4DAAAAA+eCPiw9K9v8JLzuiV7bbE8/xvr9RrX4VuexLsTvmq/fAoZ0PCEA&#xa;AAAAtZa++upCvNL65LuU0i9yo61do9bvO6oh/ULKkziGenx2107sXmH9vgMA&#xa;AAB9t2Ji77Fe4uesT7pLy4W4i18ycCijrR2npLVivV6LS/Qbp11y1YnW7z8A&#xa;AADQN2dNbD2CG/7xSwbylJ4cwQ3/TPt8GpBarwMAAABg6Xq9ZT7ETRmcZJce&#xa;v2Tg56TH0jnRyzNYn0XnJP6fdeNbDrdeDwAAAMCSONE3Wp9c04FfMkK82Ho9&#xa;IC8u6D9Zr0s6kMR3WK8HAAAAYNEaIT7Ti95lfmJNP/VLRueV1usCeWiG+Brz&#xa;9Ug/dWzq3a6tL7ReFwAAAMCCrZ7sPtSLXm1+Uk0/+0vGbTweEI1WfKQXvdV8&#xa;PdLPHp/Xr9mwc7X1+gAAAADmb7y33IteZn4yTff1S0ZntLXjBOtlAhtjF20/&#xa;nsdxZpzol8emth9pvU4AAACAefEh/rX5STQd6peM91mvE9jwEjebrz86xPHJ&#xa;/QAAAABQAY1WfBzX/VcjJ/rr1usFw+Wl8xLrdUfzSPTupnTPtl4vAAAAwH0b&#xa;7y13Qb9kfvJM88qF+L01EzsfbL1sMBzpMZA+6G7rdUfzPj53nbF523HW6wYA&#xa;AAA4KCf6WuuTZlroLxkarNcNhsNLfJv1eqMFH59vsV43AAAAwH3d9f8H1ifM&#xa;tJivGk8/0Xr9YLDcRn2EC/EO8/VGC8pJvH20tWvUev0AAAAA9+KCvtf6ZJkW&#xa;/UvGF0Z6vWXWawgD0ust8xK3WK8zWuTxGfTD1ksIAAAAuIcL+uT0l2TrE2Va&#xa;fI12/A3rdYTBaEp8mfX6oiUfn8+yXkcAAADALB/iJ61PkGmJiXbWjW853Hot&#xa;oc+meoc50R3m64uWenx+mW/pAAAAwFwjxGeanxxTX2qE+NvW6wn95SX+jvW6&#xa;ov7UbHWfb72eAAAAUDj++l+jRKfToxyt1xT6+FhO4a//tfoWAAAAAGClKbse&#xa;bX5STH3NBX2B9bpCf7i2vtB6PVF/a7TjU6zXFQAAAArFnf/rmH7Gel2hP5zo&#xa;5fbrifqaxA9arysAAAAUaM3Ezge7EH9kfkJMfS99s8N6fWFpGqH7KOt1RANI&#xa;9K7Gpu5p1usLAAAAhfES32B+MkwDyQVdb72+sDRe4t9ZryMaUBL/wnp9AQAA&#xa;oCS93rJ0wzjzE2Ea0C8Yev2q9szR1ssMi5Peu/Qemq8jGlC6m5t1AgAAYGia&#xa;k90n2J8E0yBrSPw163WGxfGt7out1w8Ntmbo/qL1OgMAAEAhfIhvtz4BpgEn&#xa;8f3W6wyLk9478/VDg+4i63UGAACAQqSvoGZwAkwDzEm8eeXUnmOs1xoWJr1n&#xa;LsSbrNcPDTjRq7kMAAAAAAPH3cXLqSHxudbrDQuT3jPrdUPDaXXoPt56vQEA&#xa;AKDmuPt/OfE0gOrh7v8FJfEvrdcbAAAAas6H+EnzE18a0i8YOm293rAwPJ2j&#xa;oCR+znq9AQAAoMbOmth6hA96i/mJLw2ttRO7V1ivO8zPqvbMydbrhYaXC/GO&#xa;FRN7j7VedwAAAKgp3+48yfqkl4acdF5ive4wP+m9Ml8vNNRcS59hve4AAABQ&#xa;U146f2R9wktD/gUj6Dut1x3mx0t8h/V6oSEfn6J/br3uAAAAUFMu6HutT3hp&#xa;yEncYr3uMD8uxE+Zrxcaak70A9brDgAAADXlRb9hfcJLQ/4FI+j3rdcd5sdJ&#xa;vM56vdCQE+1YrzsAAADU0NjU9iOdxNvNT3hp6DU3Tp9qvf4wN7+hs9J6nZBF&#xa;uu+MzduOs15/AAAAqJnVm7pr7E92ySTprLNef5hbI8Rnmq8TMqkRuo+yXn8A&#xa;AACoGRf0OdYnumRTsxVfYb3+MDcfuv/Vep2QTa6lv2q9/gAAAFAzzRBfY32i&#xa;S0a/YIheaL3+MDcX9K+s1wmZdb71+gMAAEDN8AtGubkQW9brD3NL75H1OiGj&#xa;JL7Nev0BAACgZpzEd5uf6JLVLxgftF5/mJuX+CHzdUImuaDBev0BAACgZnyI&#xa;/2x9oktGv2CIXm69/jA3L/pZ63VCZv2b9foDAABAzXiJH8vgRJcsEv2G9frD&#xa;3HzQK8zXCZnEgA4AAAB95yVusT7RJaNEp63XH+bmRTvm64RMciF+0Xr9AQAA&#xa;oGa8xM9Zn+iS0S8YojPW6w9z80F3W68Tsjo+49es1x8AAABqxot+2fpEl4x+&#xa;wQhxr/X6w9zSe2S9Tsjs+Pym9foDAABAzfigX7E+0SWrXzD0O9brD3NL75H1&#xa;OiGr4zNeab3+AAAAUDMMAMqNAUD+GACUGwMAAAAA9B0DgHJjAJA/BgDlxgAA&#xa;AAAAfccAoNwYAOSPAUC5MQAAAABA3zEAKDcGAPljAFBuDAAAAADQdwwAyo0B&#xa;QP4YAJQbAwAAAAD0HQOAcmMAkD8GAOXGAAAAAAB9xwCg3BgA5I8BQLkxAAAA&#xa;AEDfMQAoNwYA+WMAUG4MAAAAANB3DADKjQFA/hgAlBsDAAAAAPQdA4ByYwCQ&#xa;PwYA5cYAAAAAAH3HAKDcGADkjwFAuTEAAAAAQN8xACg3BgD5YwBQbgwAAAAA&#xa;0HcMAMqNAUD+GACUGwMAAAAA9B0DgHJjAJA/BgDlxgAAAAAAfccAoNwYAOSP&#xa;AUC5MQAAAABA3zEAKDcGAPljAFBuDAAAAADQdwwAyo0BQP4YAJQbAwAAAAD0&#xa;HQOAcmMAkD8GAOXGAAAAAAB9xwCg3BgA5I8BQLkxAAAAAEDfMQAoNwYA+WMA&#xa;UG4MAAAAANB3DADKjQFA/hgAlBsDAAAAAPQdA4ByYwCQPwYA5cYAAAAAAH3H&#xa;AKDcGADkjwFAuTEAAAAAQN8xACg3BgD5YwBQbgwAAAAA0HcMAMqNAUD+GACU&#xa;GwMAAAAA9B0DgHJjAJA/BgDlxgAAAAAAfccAoNwYAOSPAUC5MQAAAABA3zEA&#xa;KDcGAPljAFBuDAAAAADQdwwAyo0BQP4YAJQbAwAAAAD0HQOAcmMAkD8GAOXG&#xa;AAAAAAB9xwCg3BgA5I8BQLkxAAAAAEDfMQAoNwYA+WMAUG4MAAAAANB3DADK&#xa;jQFA/hgAlBsDAAAAAPQdA4ByYwCQPwYA5cYAAAAAAH3HAKDcGADkjwFAuTEA&#xa;AAAAQN8xACg3BgD5YwBQbgwAAAAA0HcMAMqNAUD+GACUGwMAAAAA9B0DgHJj&#xa;AJA/BgDlxgAAAAAAfccAoNwYAOSPAUC5MQAAAABA3zEAKDcGAPljAFBuDAAA&#xa;AADQdwwAyo0BQP4YAJQbAwAAAAD0HQOAcmMAkD8GAOXGAAAAAAB9xwCg3BgA&#xa;5I8BQLkxAAAAAEDfMQAoNwYA+WMAUG4MAAAAANB3DADKjQFA/hgAlBsDAAAA&#xa;APQdA4ByYwCQPwYA5cYAAAAAAH3HAKDcGADkjwFAuTEAAAAAQN8xACg3BgD5&#xa;YwBQbgwAAAAA0HcMAMqNAUD+GACUGwMAAAAA9B0DgHJjAJA/BgDlxgAAAAAA&#xa;fccAoNwYAOSPAUC5MQAAAABA3zEAKDcGAPljAFBuDAAAAADQdwwAyo0BQP4Y&#xa;AJQbAwAAAAD0HQOAcmMAkD8GAOXGAAAAAAB9xwCg3BgA5I8BQLkxAAAAAEDf&#xa;MQAoNwYA+WMAUG4MAAAAANB3DADKjQFA/hgAlBsDAAAAAPQdA4ByYwCQPwYA&#xa;5cYAAAAAAH3HAKDcGADkjwFAuTEAAACgpla1Z05eHbqPd0Ff0JT4Mifx1U70&#xa;j11bX7//P8/+9/OaIb7ItfXpXjpjjYnu/a1/btQDA4ByYwCQPwYA5cYAAP0y&#xa;NrX9SBf0Yc3J7hOa0j3bt7ovTueVvq3n3lOr8+z0f3MtfcZoa9foyqk9x1j/&#xa;3ABQaX595yjf7jzJh3i+Cxq86GVedNqL3rbokwOJNzuJX/Mh/rMTfWMaEDQ2&#xa;dU+z/reiWhgAlBsDgPwxACg3BgBYqMbmeFJD4nNd0P85e64Z4ud90GsWvQ5F&#xa;r/USt/qg/9sFfWezFV/RnJx++Eivt8z63woA2fHSecjsX/ODrnchftFJvH2I&#xa;Jw3fdaIfSN8gaLTiI61fC+SNAUC5MQDIHwOAcmMAgENxk+pd0Fe5oO/1olcN&#xa;bX2K/sBL/JgL+leNEJ+3YmLvsdavBQCYSH99T3/h9xK3eNG7rE8efpLu9hL/&#xa;rtGOzxqZ6h1m/TohLwwAyo0BQP4YAJQbAwD8nPHe8oZ0n+qCvtWLdqzX6E/S&#xa;W2a/JdDWl592yVUnWr9MADBQayd2r0hftdr/FakqnFDod1yIf+tbncdav3bI&#xa;AwOAcmMAkD8GAOXGAAA/lr7N6UTf7CXuqcC6vcOJfrwZ4mtGWztOsH7tAKBv&#xa;3MZ4lg9xYinX8JsncWu6wSA3eikbA4ByYwCQPwYA5cYAoGzpxn3p5nwu6KUV&#xa;XsM/3H+u3Bmzfj0BYNE38ktfb/KiX7beVAdwz4A/58kCZWIAUG4MAPLHAKDc&#xa;GACUKf3V3Id4gRe92noN9i/d54P+h2vrL3MDQQDVmcJK9/ddiN+y30QHukHf&#xa;4EP861XtmQdYv+YYHgYA5cYAIH8MAMqNAUBZ/MWd+znRC73o9fVe17rNBX2O&#xa;9esNAAfX6y3zofubTnTGesMc6uYs8Tov8Q/T4MP6LcDgMQAoNwYA+WMAUG4M&#xa;AMpw1sTWI1zQ16VvY5a1vvVSF/RM69cfAO7RaMXHeYmfs94gTTdnibEZ4ous&#xa;3wsMFgOAcmMAkD8GAOXGAKD+fOic40WnrdeaXbovPcJwtD1zuvV7AaD0Sez+&#xa;r2Bl9Bg/4yRuacquR1u/NxgMBgDlxgAgfwwAyo0BQH2NtnaNetF/t15j2SR6&#xa;Wzr35punAIYufRXJB73CfCPMMdG7nOg/euk8xPp9Qn8xACg3BgD5YwBQbgwA&#xa;6mdscs8DvcS/dyHeab2+csyF+FX+4ARgKNaNbzk83XHVSbzdevPLPtEfzN6d&#xa;dn3nKOv3Df3BAKDcGADkjwFAuTEAqNd5ZnrscmnX+S9y3d+Rvg0wMt5bbv2+&#xa;Aaippkw36vZYv+Fs0Lqz2eo+3/r9w9IxACg3BgD5YwBQbgwA6sG3Os92IX7T&#xa;ej1VLokfWzOx88HW7x+AmnEtfYYXvdZ8k6tyopc1QvdR1u8lFo8BQLkxAMgf&#xa;A4ByYwBQbY0Qm17ilPU6qnLp8dvNye4TrN9LADXhgv4JN/rr2wZ9hwu6/rRL&#xa;rjrR+n3FwjEAKDcGAPljAFBuDACqqTHRvb8P8e1cVtqnRG9rSnyZ9fsKoMqm&#xa;eof5EC8y39DqmOj1PsTz07Vu1m8z5o8BQLkxAMgfA4ByYwBQMeO95U70PB/0&#xa;Guu1U7tE7569LwAALFS6cZ2X+CHzjaz26RVN6Z5t/X5jfhgAlBsDgPwxACg3&#xa;BgDV4dr6dCfxa9Zrpu45ie/m5oAA5m3FxN5jXYj/13rzKikX9FIvnTHr9x5z&#xa;YwBQbgwA8scAoNwYAOTPBX2Yl7g5/YXaer2UkhO9hG+aApjXL/8+xE9ab1ol&#xa;lq6Bc0Hf6i/u3M96HeDgGACUGwOA/DEAKDcGAPkau2j78V7im9L16dbrpMRc&#xa;0H9Kl/RarwMAmTprYusRXvTfrTer0nMSr0v3B2DDzg8DgHJjAJA/BgDlxgAg&#xa;Q73eMt/Wc73oVdbrg+Km9H5YLwkAuRnvLfcS35/BJkUHciF+tdmafpr10sBP&#xa;MAAoNwYA+WMAUG4MAPLigj7Zi37Zel3QvXq79boAkBkX4t9msDnRQXJBP9yU&#xa;6Yb1GgEDgJJjAJA/BgDlxgAgD82N06dynX/WnW+9RgBkwkvnlRlsSnTo+wOs&#xa;5/4AthgAlBsDgPwxACg3BgC2Vk7tOcaHeIEL8SbrtUBzpftcS3/Ver0AyOFx&#xa;LCHeYb8p0XxyIe5Nz87lWi4bDADKjQFA/hgAlBsDACO93rKmxJd5iXus1wDN&#xa;+1j5IU+dAgq2erL70PQLpfVmRItI4taGdJ9qvYZKwwCg3BgA5I8BQLkxABg+&#xa;F/RMJ3q59XtPi0h0erS14wTrNQRg2KZ6h/G4v4onercL+l6/obPSejmVggFA&#xa;uTEAyB8DgHJjADA8ayd2r3BB2+nr5NbvOy3lmNH3Wq8lAEPmgv6Z9eZD/Upv&#xa;caJvTs/atV5XdccAoNwYAOSPAUC5MQAYvLGp7Uemm8g5iTdav9/Up+OmrS+3&#xa;XlcAhqQpux6dbipnvfFQnzdyid/m/gCDxQCg3BgA5I8BQLkxABgsHzrnuBC7&#xa;1u8z9Tu9obGpe5r1+gIwYGdNbD3CBd1mv+nQADf0z7iN8SzrtVZHDADKjQFA&#xa;/hgAlBsDgMH9wYjLReudE/04fzgCai49psV6s6EhlJ7BK3HzqvbMydZrrk4Y&#xa;AJQbA4D8MQAoNwYA/TU2ueeBs48eFr3L+r2lISSd37JecwAGxAV9GM9oLSsn&#xa;8WYneuGq9szR1uuvDhgAlBsDgPwxACg3BgD9+5Zous7fi/7A+j2lYabXnHbJ&#xa;VSdarz8AA+BC/Bf7TYYschJjQ+KvWa/BqmMAUG4MAPLHAKDcGAAsXbPVfX56&#xa;PJz1e0lmXWS9BgH0mW93njT7tXD7DYZs+2S6ps96PVYVA4ByYwCQPwYA5cYA&#xa;YPFGW7tGXdCPWL+HZH4M3dmcnH649XoE0Ede9LPWmwvlku5L9wdobI4nWa/L&#xa;qmEAUG4MAPLHAKDcGAAsXPrKd3qEME+Foh/ngv6r9boE0Ceupb9qvalQhqVr&#xa;/CT+Ybrmz3qNVgUDgHJjAJA/BgDlxgBg/taNbzncib7WSbzO+n2jzBK9u9GK&#xa;j7NeowD6wIt+2XxToXwT7fi2nmu9TquAAUC5MQDIHwOAcmMAMD+NEJ/pRb9u&#xa;/X5Rzun/tl6nAJbIBX2O/WZCVcgFvbTRio+0XrM5YwBQbgwA8scAoNwYAMzN&#xa;Tar3Eqes3yeqzLcAOBcEqiz9Ume+mVBlciHe4UTfxeNgDo4BQLkxAMgfA4By&#xa;YwBwcI2J7v29xLdxnT8tJBc0WK9dAIuU7ubJnf9pMbmg30/PAk7XClqv45ww&#xa;ACg3BgD5YwBQbgwAfsZ4b7kTPS893936vaHq5UL8ETeKBioqPdPTehOhqqdX&#xa;NKV7tvVazgUDgHJjAJA/BgDlxgDgJ7x01rkQv2r9nlDFk/gG67UMYIFWtWeO&#xa;nr3Lu/UGQrVo9lIS6YyNFI4BQLkxAMgfA4ByYwAwMuI3dFamR/zyzU/qUzrS&#xa;6y2zXtcAFsAFfWkGmwfV7f4AQdenawpHCsUAoNwYAOSPAUC5lTwAWDGx91gn&#xa;eqEXvc36faCa1e48yXp9A1gAF/TD5hsH1TS9xgV9VbrGcKQwDADKjQFA/hgA&#xa;lFuRA4Beb1m6zt+FuNf69ad65oK+x3qZA5in9Bda7vhKgy5dY9hsTT9tpCAM&#xa;AMqNAUD+GACUW2kDgNWh+3gv8XPWrzvVPNFrR6Z6h1mvdwDz4Fvd/2K+aVAx&#xa;pW+brNmwc/VIARgAlBsDgPwxACi3UgYAo60dp/gQJ3zQfdavOZVRox2fYr3u&#xa;AcyDD/GfrTcMKizRW53oG8/YvO24kRpjAFBuDADyxwCg3Oo+AFg5tecYL/Ev&#xa;ncSbrV9rKisX9K3W6x/AoUz1DjvwDHfzTYPKK12L6CS+uq73B2AAUG4MAPLH&#xa;AKDc6jwA8KFzjgtxl/VrTGXmgm6zPgYAHEKjFR9nvVkQpV+U6/i1MQYA5cYA&#xa;IH8MAMqtjgMAF/RMJ3q59WtLhZceKymdh1gfDwDm0GzF/2G+WRClRO92IV7c&#xa;3Dh96khNMAAoNwYA+WMAUG51GgCsas+c7ESF6/wpm9p6rvVxAWAOXuKHzDcK&#xa;onultzjRN49dtP34kYpjAFBuDADyxwCg3OowADhrYusRPsTzncQbrV9Pop/O&#xa;ib7L+vgAMAeeB0u55kL8VnpmcXp28UhFMQAoNwYA+WMAUG5VHwDMXucvMVq/&#xa;jkQHTfSz1scIgLkfD2O/URDNUbqmMV3bOFJBDADKjQFA/hgAlFtVBwCrJ7tn&#xa;eNFPWL9+RHOnt6wb33K49fEC4CBc0OfYbxJE872pTNycrnUcqRAGAOXGACB/&#xa;DADKrWoDgLHJPQ90Qde7EO+0fu2I5tNoa9eo9XED4CDStWPWGwTRQkrPNHai&#xa;F65qzxw9UgEMAMqNAUD+GACUW1UGAOk6//SoXBfi96xfM6KF5IK+wPr4AXAQ&#xa;Luh7rDcIosWUrn10bX3hSOYYAJQbA4D8MQAotyoMABohPs8F3Wn9WhEtKun+&#xa;qfUxBOAgvMSPmm8QREtJ9LJG6D5qJFMMAMqNAUD+GACUW84DgDXtmbWcn1Hl&#xa;k7jB+lgCcBBe4nbzDYJoyem+dH+AxuZ40khmGACUGwOA/DEAKLccBwCnXXLV&#xa;iekRuE7i7davD9GSE/1362MKwEH4oDeYbxBE/Ur0Bz7EC/z6zlEjmWAAUG4M&#xa;APLHAKDcshoAjPeWp0feetFrrV8Xon7lgm6zPrQA/Iyxqe1HWm8ORIPIie5o&#xa;SHzuSAYYAJQbA4D8MQAot1wGAE3pnu2DXmH9ehD1OxfiXuvjC8DP8NJ5iPXm&#xa;QDTIXNBLG634SNPjjAFAsTEAyB8DgHKzHgC4SfVe4pT160A0yKc2WR5jAA7C&#xa;b+w4682BaNAdeGbyxJqJnQ82Oc4YABQbA4D8MQAoN6sBwBmbtx2XHmXrRW+z&#xa;fg2IBt268S2HWxxnAO7D6snuGdYbA9Gwmn2GsnR/f2Sqd9gwjzMGAOXGACB/&#xa;DADKbegDgPHeci+dV/qg11j/24mGVWOie/+hHmcA5uZbncdabwxEdb8/AAOA&#xa;cmMAkD8GAOU2zAFAU6af6CR+wfrfTDTs0pMthnWcAZgHtzGeZb0xEFneH6A5&#xa;Of3wQR9nDADKjQFA/hgAlNswBgB+Q2dlekStF73b+t9LZNHaTVc+aNDHGYAF&#xa;cEHPtN4YiCxzIf7IBX2Lv7hzv0EdZwwAyo0BQP4YAJTbIAcAB67zf6MXvdX6&#xa;30lkmdX9lwDch/TXT+uNgSiHnMTrfIjnD+L+AAwAyo0BQP4YAJTbQAYAvd4y&#xa;39ZzfdDd1v8+ohxaMbH32L4fZwAWr7Gpe5r1xkCUUy7ErzZb00/r53HGAKDc&#xa;GADkjwFAufV7ANBoxcd50c9a/7uIskn07jQU6+dxBmCJ0o05zDcHotzaf63m&#xa;P5/e2rWqH8cZA4ByYwCQPwYA5davAUBz4/SpLsSLuc6f6N45iTf34xgD0E+9&#xa;3jIn8XbrDYIox9Kx4YKuH23tOGEphxkDgHJjAJA/BgDlttQBwMqpPcf4EC9w&#xa;If7Q+t9ClGMuxG7/dmsAfeMkftt6gyDKORfiXifx1ekZzos5xhgAlBsDgPwx&#xa;ACi3pQwAfOic40LcZf1vIMq8z/d3xwbQF17i1gw2CKLscyF+MT3LecHHGAOA&#xa;YmMAkD8GAOW2mAFAenqSE73c+oLt5koAACAASURBVGcnqkQSPziYnRvAkniJ&#xa;U+YbBFFVStd4SpxayP0BGACUGwOA/DEAKLeFDADSs8zTJWFe9C7rn5uoMkl8&#xa;x2B3cACL4iW+yXyDIKpceosTvTBdA3rIY4wBQLExAMgfA4Bym88A4KyJrUek&#xa;R8T6oDdY/7xE1avzB8PZyQEsiJf4O/YbBFFV091O9NfnPMYYABQbA4D8MQAo&#xa;t0MNAFxbX+hDVOufk6iytTrPHt5uDmBB17OZbxBEFc8F/ZJvd550sGOMAUC5&#xa;MQDIHwOAcruvAcCa9sxaH/Q/rH8+oqq3qj1z8vB3dQCHNDa1/UgeBUjUt/sD&#xa;bP7ZDzwGAOXGACB/DADK7WcHAGOTex6YrvN3Id5p/bMRVT+9xm5nB3BILug2&#xa;+42CqB45iTd6iW/w6ztHpeOLAUC5MQDIHwOAcvvxAOCe6/xFr7f+mYhqk8SP&#xa;Wu/vAObgJL7bfKMgql/q23ouj9osNwYA+WMAUPYAoCnds33QK6x/FqLaJfEv&#xa;rfd3AHNwQV9qvlEQ1TbdZ/8zkEUMAPLHAKDk2JuJBpVr6TOs93cAcxht7TjF&#xa;eqMgIqpbDADyxwCAiKi/pXuLrZjYe6z1/g7gELzo1603DCKiOsUAIH8MAIiI&#xa;+pzoZdZ7O4B58BLfZL5hEBHVKAYA+WMAQETU56TzR9Z7O4B5aLTjU8w3DCKi&#xa;GsUAIH8MAIiI+tvqTd011ns7gPkY7y13IX7LetMgIqpLDADyxwCAiKiPiX7d&#xa;el8HsABe4tvMNw4ioprEACB/DACIiPqYdP/Uel8HsAAu6JnmGwcRUU1iAJA/&#xa;BgBERH1K9O41G3autt7XASyQl/if5hsIEVENYgCQPwYARER9SvQT1ns6gEVo&#xa;hvga8w2EiKgGMQDIHwMAIqI+1dZzrfd0AIsw2tpxgpN4o/kmQkRU8RgA5I8B&#xa;ABFRHxK9emxq+5HWezqARXJB32q+kRARVTwGAPljAEBEtPRc0D+z3s8BLMGq&#xa;9szJXvQ2682EiKjKMQDIHwMAIqKl5STevHbTlQ+y3s8BLJGXuMF6QyEiqnIM&#xa;APLHAICIaIlJfIf1Xg6gD5obp0/1oreabypERBWNAUD+GAAQES0+F+JNqye7&#xa;D7XeywH0iQv6TuuNhYioqjEAyB8DACKixeeC/pX1Pg6gj7x0HuJFr7feXIiI&#xa;qhgDgPwxACAiWmx6jb+4cz/rfRxAn7m2vt5+gyEiql4MAPLHAICIaJFJ/B3r&#xa;PRzAAKwb33K4F/26+SZDRFSxGADkjwEAEdHCcyF+cWS8t9x6DwcwIE2ZfqIX&#xa;vct6syEiqlIMAPLHAICIaGG5EO9otqcfY71/AxgwL/Ft1hsOEVGVYgCQPwYA&#xa;REQLy4leaL13AxiClVN7jnGiO6w3HSKiqsQAIH8MAIiI5p8Lum1savuR1ns3&#xa;gCFptOIjveit1psPEVEVYgCQPwYARETzTPS2Rug+ynrfBjBkPBWAiGh+MQDI&#xa;HwMAIqL55YK+ynrPBmCh11vmRd9nvQkREeUeA4D8MQAgIppXm6z3awDG9wPw&#xa;Qb+SwWZERJRtDADyxwCAiOgQSfzPdO5vvV8DMHZ6a9cqL3q1+aZERJRpDADy&#xa;xwCAiOi+cyF+a7S14xTrvRpAJtKNQLzoD6w3JyKiHGMAkD8GAERE95Xe0JRd&#xa;j7bepwFkxofuLzmJt9tvUkREecUAIH8MAIiIDpLobc3W9NOs92gAmWpIfK4L&#xa;8UfmmxURUUYxAMgfAwAionu3/w97nXOs92cAmWuG+CIX4h3WmxYRUS4xAMgf&#xa;AwAiop+U/qDXCPF51nszgIrw0v0VL3qr9eZFRJRDDADyxwCAiGh/LsSb0qW9&#xa;1vsygIppyvQTncTrrDcxIiLrGADkjwEAEdHsNf/Xu6BPtt6TAVRUoxUf6ULc&#xa;Zb6ZEREZxgAgfwwAiKj4RKdHW7tGrfdjABW3dtOVD/ISt5hvakRERjEAyB8D&#xa;ACIqOSf68dMuuepE670YQE2MTW0/0gVdb725ERFZxAAgfwwAiKjIRO92Qf9m&#xa;3fiWw633YQA15FvdF/ugN5hvdkREQ4wBQP4YABBRabkQv+va+svW+y+Ammts&#xa;6p7mRS+z3vSIiIYVA4D8MQAgorLS/2hunD7Veu8FUIpeb5kL+rr9jxmx3gCJ&#xa;iAYbA4D8MQAgohJyQb/vRM+z3nMBFGq0teMUL3Gz9WZIRDTIGADkjwEAEdU6&#xa;0bvTOXdjczzJer8FgJFGiM/zIar55khENIAYAOSPAQAR1TaJW13QJ1vvswBw&#xa;L2dNbD3Ch3g+NwkkorrFACB/DACIqG65EL+Xzq1HpnqHWe+xAHCf1m668kGz&#xa;jwwUvct64yQi6kcMAPLHAICI6pIL8Y7Zc+mLO/ez3lsBYN58q/NYF+KnrTdR&#xa;IqKlxgAgfwwAiKgOuaAf9hs7znpPBYBF86Fzjgtxl/WGSkS02BgA5I8BABFV&#xa;ORfila6tv2y9lwJAX4xNbT8yXcPkJN5ovcESES00BgD5YwBARFV9rB/X+QOo&#xa;92MDQ5zwQfdZb7hERPONAUD+GAAQURWv81/VnnmA9f4JAAPnNsazfNDPWG++&#xa;RETziQFA/hgAEFFVckEvdRv1Edb7JgAMV6+3zLf1XCc6Y70RExHNFQOA/DEA&#xa;IKLcc0F3Nlvd51vvlwBgasXE3mN9iBe4EG+y3piJiA4WA4D8MQAgomwTvT6d&#xa;66Z7YlnvlQCQjebG6VO9xM1e9G7zjZqI6KdiAJA/BgBElFsuxDtn730lnYdY&#xa;75EAkK3Voft4H+LnrTdtIqIfxwAgfwwAiCirRC9rhO6jrPdGAKjU/QG86FXm&#xa;GzgRFR8DgPwxACCiLBLtpHNY6z0RACrpjM3bjnOiF3rR28w3dCIqNgYA+WMA&#xa;QESWpXtZzZ6zru8cZb0fAkDluaAP4/4ARGQVA4D8MQAgIpt0XzpHXT3Zfaj1&#xa;PggAtePa+nQn8Wv2mz0RlRQDgPwxACCioSdxS1N2Pdp6/wOAehvvLXei5/mg&#xa;15hv/ERURAwA8scAgIiGlsQ96VzUet8DgKKMXbT9+HStlQvxR+YfBERU6xgA&#xa;5I8BABENOifx5nTuuao9c7T1ngcAxXKT6r3EKesPBSKqbwwA8scAgIgGVroH&#xa;lcTNq9ozJ1vvdQCAAxohPtOLft38Q4KIahcDgPwxACCiQeSCfsm19Bes9zgA&#xa;wEGsG99yuJP4ahfid60/MIioPjEAyB8DACLqZy7Eb81e59/rLbPe3wAAh3Da&#xa;JVed6ETf7CTebv0BQkTVjwFA/hgAEFF/0lvSOWS615T1vgYAWKDVm7prXNCP&#xa;2H+YEFGVYwCQPwYARNSH6/ynTm/tWmW9nwEAlqgp3bO9xO3mHy5EVMkYAOSP&#xa;AQARLT79SqMdn2K9jwEA+uisia1HHLg/wPfsP2iIqEoxAMgfAwAiWmguxL3p&#xa;3HBkvLfceg8DAAzI2OSeB7qg612Id1p/8BBRNWIAkD8GAEQ039I9otK54Ghr&#xa;xwnWexcAYEjWtGfW+qD/Yf0hRET5xwAgfwwAiGg+uaAfXrNh52rrPQsAYMSH&#xa;zjlOYrT+QCKifGMAkD8GAEQ0Vy7ErzZb00+z3qsAAJncH8CHeL4PeoP1BxQR&#xa;5RcDgPwxACCig+UkXpfO8UameodZ71MAgMys3XTlg9I1YV70LusPLCLKJwYA&#xa;+WMAQEQ/nQvxjnRO15jo3t96fwIAZM4FPdOF+GnrDy8iyiMGAPljAEBEP32d&#xa;v9/Ycdb7EgCgivcHCHGX9QcZEdnGACB/DACIyInuaEh8rvV+BACosJVTe47x&#xa;IV7gQvyh9QcbEdnEACB/DACIys0F/X66zn/d+JbDrfciAEBNjLZ2nOJDnPBB&#xa;91l/0BHRcGMAkD8GAERlXuefzs3WTOx8sPUeBACoqUYrPs6Lftb6Q4+IhhcD&#xa;gPwxACAqKxf0UrdRH2G99wAAStDrLfNtPdcH3W39AUhEg48BQP4YABAVkui0&#xa;l+6vWO85AIACrZjYe+yB+wPcZP6BSEQDiwFA/hgAENU80evTOdfY1PYjrfcb&#xa;AEDh/IbOSi9xsxe92/wDkoj6HgOA/DEAIKprui+dYzU2x5Os9xkAAO6lOdl9&#xa;gg/x8/YflkTUzxgA5I8BAFENE/3E6snuGdb7CwAA963XW+ZEz/OiV5t/cBJR&#xa;X2IAkD8GAES1StO9lqz3FQAA5u2MzduOc6IXetHbMvggJaIlxAAgfwwAiKpf&#xa;uqfS7LnT+s5R1nsKAACL4oI+bPb+ABl8sBLR4mIAkD8GAETVv85/9WT3odZ7&#xa;CQAAfeHa+nQXdJv9hywRLTQGAPljAEBUzVyIn2q2px9jvYcAANB/473ls/cH&#xa;CHqN9QcuEc0/BgD5YwBAVLEk7knnROneSdb7BwAAAzV20fbj0zVuLsQfmX8A&#xa;E9EhYwCQPwYARNXISbw5nQOtas8cbb1vAAAwVI0Qm17ilPWHMRHNHQOA/DEA&#xa;IMo80bvTOU9jU/c06/0CAABTjXZ8lhf9hvmHMxEdNAYA+WMAQJRxol92Lf0F&#xa;630CAIBsrBvfcriT+GoX4nfNP6iJ6F4xAMgfAwCi/HISv811/gAAzOG0S646&#xa;0Ym+2Um83fqDm4j2xwAgfwwAiHJKb0nnMumeR9Z7AwAAlTDa2jXqgn7E/kOc&#xa;iBgA5I8BAFEeuaAfHm3PnG69JwAAUElN6Z7tJW63/kAnKjkGAPljAEBknMSt&#xa;Dek+1XovAACg8s6a2HqED/F8L/oD8w94ogJjAJA/BgBENqVjL93DaGS8t9x6&#xa;HwAAoFbGJvc80AVd70Xvsv7AJyopBgD5YwBANNzSvYpmz0ku7tzP+vgHAKDW&#xa;mpPTD/cSP2r94U9USgwA8scAgGi41/k3ZbphfdwDAFAUHzrnOInR+kSAqO4x&#xa;AMgfAwCiwedC/KqXzjrr4x0AgJHS7w/gJN5ofWJAVNcYAOSPAQDR4HISr0vn&#xa;GiNTvcOsj3UAADAyMrJmYueDuT8A0WBiAJA/BgBE/c+FeEc6t2hMdO9vfYwD&#xa;AICDcEHPdKKXW580ENUpBgD5YwBA1N9c0Eu9dMasj20AADDf+wOEuMv6BIKo&#xa;DjEAyB8DAKL+5ER3NEJ8nvUxDQAAFmjl1J5jfIgXuBB/aH1CQVTlGADkjwEA&#xa;0dJyQb+frvNfN77lcOvjGQAALMFoa8cpPsQJH3Sf9QkGURVjAJA/BgBEi8uF&#xa;eGc6R0j3ErI+jgEAQB81WvFxXvSz1icbRFWLAUD+GAAQLe46/0YrPtL6+AUA&#xa;AIPS6y3zbT3XB91tfeJBVJUYAOSPAQDRAhKdTucC1sctAAAYkhUTe491ohd6&#xa;0VvNT0SIMo8BQP4YABDNI9EfpHsD+fWdo6yPWQAAYMBv6Kz0Ejd70bvNT0yI&#xa;Mo0BQP4YABDNle5Ln/WNzfEk62MVAABkoCnTT3QSv2B/kkKUXwwA8scAgOg+&#xa;++Tqye4Z1scoAADITa+3zIme50WvzuCEhSibGADkjwEA0c+lXOcPAAAO6YzN&#xa;2447cH+A2zI4gSEyjwFA/hgAEO3PSbw5fYavas8cbX1cAgCACmls6p42e3+A&#xa;DE5oiCxjAJA/BgBE+6/zX9WeOdn6eAQAABXWaMdnedFv2J/cENnEACB/DACo&#xa;5FyIn/atzmOtj0MAAFAX473lB+4PcK31iQ7RsHOiM9aHIObmg+62XidEw86F&#xa;+K302Zzu4WN9DAIAgBpa1Z55gBN9swvxR9YnPkTDygXdZn3sYW5e4nbrdUI0&#xa;vPSWdJ3/yqk9x1gfewAAoACNEJte4pT9SRDR4HOil1sfc5ibC/GL1uuEaOCJ&#xa;3p0+e9M9eqyPOQAAUOr9AYJeYX5SRDTAXNCPWB9rmJsXvcx6nRANNNEvu6BP&#xa;tj7WAABA4daNbzncSXy1C/G75idIRAPIBf0n6+MMc/MSP2S9TogGkZP47fQZ&#xa;m+7FY32cAQAA3OO0S6460QVd70K80/qEiaifOdF/tD6+MDcX4sXW64Sor4ne&#xa;mu65M9racYL18QUAAHCf3EZ9hBP9uPnJE1H/Grc+rjA3F+LfZrBOiPp0nb++&#xa;j+v8AQBApTSle7YL8ZvmJ1NES6wp8WXWxxPm5kPnD6zXCdGSk/ifzdD9Revj&#xa;CQAAYFHOmth6hA/xfB/0BvMTK6JF5jbGs6yPJRx64Gi9TogWmwv6ndnr/Kd6&#xa;h1kfSwAAAEu2dtOVD0r3B/Cid1mfaBEtuIs797M+hjC301u7VpmvE6IF5iTe&#xa;PvvZyB4DAP29Q3k6MWhI96npLwSzX0tu6wt9W89NOdHzZv9zq/PsRjs+JT3f&#xa;fMXE3mOtf26gjprt6ce4ED9lfdJFNO9Er7Y+bjAP473l6aZp5uuFaJ65oP/a&#xa;lOmG9aED1M3Y1PYjXdCHuZb+gmvpr/rQ/c30DRsv8Q0+xAtSTvSP0//WaMff&#xa;8KFzzurJ7hmr2jMPsP7ZsUDNjdOnNkN8kZf4Jhf0vT7oZ7zEPYv/i6PekK7F&#xa;8hLf70Tf6KXzEjZqoD98q/tiF+Iu6xMwokPlQvy09fGC+fFBr7BeL0SHygXd&#xa;5tr6dOvjBai6Ve2Zo5sy/cR0DxgX9B+86GUHfve7e/HHZ/yhl7jdBf2ID/Gi&#xa;Ziu+Yk17Zu1Ir7fM+t+Lqd5hLuiTZ6c3If6LC/FbQ9y4v++Cfjj9/2604uN4&#xa;Liuw+I3bBf2fLsSbrE/IiO4zie+wPlYwP070EvP1QnRfiV7Ldf7A4p2xedtx&#xa;DYnPdUHf4oJ+yYV4xxCP3x94iR9zohemb4379Z2jrF+PIqQXuhHi87zESRfi&#xa;d7Pa0ENspa+YpF9orF8noGrWTuxe4YK2fdB95scz0c/kgr7A+hjB/PhW/D3r&#xa;9UJ0sOv8fYhvb0x07299jABV46XzENfW301/fPWit2V0XN/ogv5Tuox87KLt&#xa;x1u/TrW7fv/A1/rfn15o6zf70OkNTlRcS5/BNwOAhVkduo/3Ej9nfxwT/Tjd&#xa;Nza554HWxwbmpzk5/XD7NUP0k5zE/5PuLWV9bABVsnJqzzHp8bvpa/hD/St/&#xa;WGT7BxP/lu41kO4/YP36VVa6CcPso8NEr6rwph/TTSbWTOx8sPXrCVRJuhmL&#xa;E52xPoaJvOjXrY8HLECvtyx9K8983VDxuaA707dWrQ8JoGr3c0tfsXchfs/6&#xa;GPZLutRH3+w3dFZav56V4YKe6YKGnL7i0YeFkO5KfFF6EoH16wtURXoShw9x&#xa;3Ae9xfwYpnKT+PfWxwIWJt1Z3XzdULE5ide5oK9L32C1PhaAqnAb41lO9AN1&#xa;uhTU7X/E53ubk90nWL++2fLtzpNc0Eut36yBLoQQ70jXOa/ZsHO19esNVMXs&#xa;Y1zSjb2WcEdXokXX6r7Y+hjAwjQl/jfzdUPF5UK800v8Oy4ZAuYv/XLsJX7U&#xa;+vj1g070E+nm9davdza8dMYOPGahnA+J/ROhd3JpADB/6VmuXvTL1scvlZTe&#xa;wo19qsdv7DgGhjTUJH4s3X/Ceu0DVZEeq57u71baXu2CfqToveK0S6460QVd&#xa;PzsxzeANsUlvcEH/hJtFAPPU6y1rhPjbLsS99scvFdA/Wy95LE56PFQG64cK&#xa;uM6/2eo+33q9A1WRnoThJb7twJMxCt034h1O9F3pd+GRkqTHJXCTnnul6TWx&#xa;fl+AKt0fYPY5rPvvr2F9/FJNa0j8Neu1jsXxEv/Qev1QjUvPAw/xAp4DDszT&#xa;eG+5Ez3PB73G/PgNuaTXpNdkpIg7O6ZnOJq/4HnmRD/eaMVHWr9PQFWMtmdO&#xa;dyH+i/WxS/UrPXZ2VXvmaOs1jsUZbe04pU43k6JMEr3LBf2H9Fxy6zUOVIVr&#xa;69Nd0G3mx2+uSfzg6snuQ0fqyAV9QbozqvmLnH26z0vc3NgcT7J+z4CqaMr0&#xa;E53EL9gfv1SjNlmvayyND/GTGawjqk+fbMquR1uva6BKN3FOv9NkcOxmnwvx&#xa;u166vzJSF+nrUU7iu61f2Moler0P8fyzJrYeYf0eApX5elnQV/H1MupHTeme&#xa;bb2ksTReOq+0XkdU/ZzEyOVAwPyNtnac4IL+jQvxR9bHb6USvTvdJL7yv/vN&#xa;fuWfv8otdTFM12oiBAzYGZu3HXfg/gC3mR+/VM1Ev5FuOGm9lrE06RIOBoK0&#xa;2JzEm9NnCZcCAfPU6y2bvc5f9Grr47fa6WdWtWdOHqmi9KxDPnj7mOi/r2nP&#xa;rLV+X4GqcJPqvcQPmR+7VLnSkyas1y/6w4c4br2eqGrpPicqlT0BBww0pPtU&#xa;L3Gr/fFbj1yI32q2px8zUiXpq1LcnXsgiyE9MnFizcTOB1u/x0BVuJY+w4t+&#xa;3fr4pWqUHjHJo1nrY2xyzwPTX3Kt1xVVo9nHR7Y7T7Jet0BV+A2dlbPX+Yve&#xa;bX381i0X4k2VecyoC/o67rw78AXxPS/d3183vuVw6/cbqIJ0rPjQ+QNuREqH&#xa;TLp/ar1e0V/ch4gOne52or/OpT/Agi63fCN/8I0DzYV4R/aPCvQS32D9QhWV&#xa;6Dca7fgs6/cdqIrTLrnqRCf6rrShmh+/lF0uxB+mNWK9TjGIy4H0Luv1Rfk1&#xa;++0QiX+xcmrPMdbrFKjMdf5tfbmT+G3r47esy5Liq0dylDZQ+xeo0CR+KJ3g&#xa;WK8BoCrS/TR80P8wP3Ypq5zon1uvTQyGC7Flvb4ot7ttx4vTzaqt1yZQFeny&#xa;mNnLZKyP31L3LNHXjuTEtfX15i9M4c1+RSTo+sZE9/7W6wGoivSoNx/0Cuvj&#xa;l/K44c6Kib3HWq9JDEZjczzJB73Bep1RDulXGu34FOs1CVRFGpSle5BxiXe0&#xa;Ld1nQTqvHMmBl/g73Pghp/Sa9Cz09Ex067UBVEF63qoP8Xwver398Ut2dX/T&#xa;ei1isLhMsexmv7Isnd/iOn9gftJQ3Ev8Sx/0Fuvjl+L+fSzEO9PN9k0Xhgv6&#xa;nAN3pjd/QejnFshXvXTWmS4QoGp3Cw+6nj2tvFyIX+SXgvpLT3fwoh3r9UZD&#xa;TvRWJ/rm0daOE6zXIFAVPnTOcaIz5scv9Q6yp93mWvoLJguj0YqPdBJvNH8R&#xa;aM5ciP8y2p453WSRABU0u7cFvdT62KVhXgusT7ZedxgO19YXmq85Gtqx7SW+&#xa;//TWrlXW6w6oitWh+3gv8XPmxy/15k6vGfrelp5Dz1SoQone5iX+/2MXbT9+&#xa;qAsFqDAX9AU+RDU/fmnQXWS91jBcXuIHM1h3NMgkbm1I96nWaw2oitHWjlO8&#xa;6Eau84/VSfTrw7t30XhvOXfPrmYu6HdmHyMx1TtsOIsFqMn9Abh5WC1zoju4&#xa;8V95Zv+IEfQ71uuPBnBMh/i9tGdzngMs4NKoEM/nW92xkjnRS4ayUNJjkqz/&#xa;sbTERL/MV16B+Vs92X2olzjJZLxeT05JX3W0Xluw0ZD4XG5gXJ9ciD/iOn9g&#xa;Ybx0XsI3umP1G/STAdINB7zoXeb/UOpLLuiHuT8AMH++1XmsC/FT1scu9SGJ&#xa;f2G9nmDLS/x783VIfTmX8Rs7zno9ARU7l/m09bFLsU/pLas3ddcM8FEQOm3/&#xa;j6R+LxoneiFfgwXmz7f1XKbmle7z68a3HG69jmBr5dSeY1yI38xgPdJiEv16&#xa;I8RnWq8joCr4NmOt+/xALn1iUl7zJO6ZfQ42j8IC5mVVe+ZoF/TPXIg3mR+/&#xa;tKBngaebHVmvH+Qh/dXEBf2+9bqkBRzDIX63GeJruM4fmB+/vnOUl/gGrvOv&#xa;fRf0deE0WvFxTIsKifsDAAuydmL3Ch/iBHtkBRK9tTnZfYL1mkFemqH7i+ka&#xa;cvP1SYe8b0faa9NNHK3XDFAVPnTOcRKj9fFLcTjnODLd6M/KGe8td0G/ZP6P&#xa;omE/O3eqsal7Wn8WEVB/bmM8ywf9jPnxS/e5r7mgL7VeJ8hTsxVfYb5G6T5z&#xa;QS91G/UR1usEqIo17Zm1PLWtwCR+rC8LyIm+1vwfQyalrzanrzinrzr3ZTEB&#xa;ddfrLUuX0rgQv2V9/NKAvxqH2nFB/yaDdUo/VbpHgwv6HOu1AVSFl85DXNB/&#xa;4Kbt5eba+sIlLaLGRPf+6Vor638IGS+kdLOztp7bt90JqLl0U810c810k03r&#xa;45dm/3r4Hus1gQoY7y33IW6yXq80e8x+37X19dysE5ifsya2HuGl80de9AfW&#xa;xy9F20Q7aT0sejGlZ6qa/yMom1yIX/TtzpP6umMBNdbcOH2ql7iZ541b7lv6&#xa;D9zcFPPW6y1zEt9tvW5LzYV45+w9VaTzEOulAFRFU7pne4nbrY9fitmUBqiL&#xa;v7GV6K3W/wDKLd2XHiGSHiXS9x0MqKlGOz7FB/2K/fFbXG/nl38s8psAExms&#xa;36JyIf5frvMH5s9LZyxd82197FLMrvQN/jM2bztuEYsqvsP6h6d8cxJvTl9x&#xa;5v4AwALuD9DWc73oVdbHbwm5oG+xfstR8W8CBF1vvY6LSLTDZYbA/J12yVUn&#xa;pm9pO4m3mx+/1Ms1J/rHC7+BhMSbrX9wqkTqgr5gYLscUDNjF20/3kt8kxe9&#xa;LYPjt36J3t0M8X9Zv8+oydBu/7HKJTwDSW9IJ6hjU9uPtH6rgSpI98RIX+1O&#xa;98iwP37J557o1Sun9hwz7wXmQxw3/6GpWole1gjdRw105wNqZM2Gnatd0H81&#xa;P3Zr9uQS3+q+2Pq9Rb00Jb6MSyL72P67k080NseTrN9boCrS0zDSUzHMj1/q&#xa;ValmiK+Z1wJLk9g0MbD+gamy9wfYzIc6MH9eOuucxK/ZH78VT+IeF/RM6/cT&#xa;9dRsTz/GB91tvs6rnsQt6bW0fj+BqmiE2PQSp8yPXepVsTQ0mte9kNIzrK1/&#xa;WKp4otd7iX+4pEdQACWZ6h3m2vq7XvRa8+O3grmgl67ddOWDrN9G1Fu6+a0X&#xa;/az1eq9iLsQu384B5m9Ve+YBLsS/dSHeYX38Uqx0jRCfecgFl6az1j8o1SMX&#xa;dGcjxOcNZacEaqAx0b2/l/g2buwz3z0m3ulE38izwjEs6VuSac0deFyd+TGQ&#xa;ey7EH3rp/ik3DAbmaap3mG/F33Mhfs/6+KVYj0TfN+eaO721a9Xs17itf1Cq&#xa;3/0BWvGRQ9s8gYpzk+r5yt+h0isarfg46/cKZVo92T2Dn9DUoQAAIABJREFU&#xa;S3fmKN04UeKUC/ow6/cKqArX0md40a+bH7/Uq1Wit6VvlNznwkt3Tjb/IamW&#xa;pa8wpUcqpUeXDHU3BSrMh+4veYnbrY/fDPeSv+LO4bDm13eOckH/5sBN7cyP&#xa;jWwS/SzDOWDBQ/8Pmh+71KtrTuKr73MBetFvWP+AVO+cxOuc6Gv5yi6wgMf+&#xa;iL42HTvWx691LuiXuIEYcrM6dB/vJX7O+vgwT/SqRjv+xrxuOAVgxF/cuZ8L&#xa;+lYu+yM/6EQvO/gi3Nhx5j8cldPsXzW7vzT03RaoqPTtmfTXRifx5vL2C532&#xa;0nkJv1ggZ80QX5TufWN+vAy52WeSS3zDgp43DZRsvLfcBX2VD3qN9fFLsZhv&#xa;T45N7nngz61FF/RPrH84KrJ/S484MdmAgQpa1Z452Uv8uxL+YuCCfifdDIkn&#xa;iqAq0lr10v39Ek7sXYg3pRsippuXWr/uQKUe/RviV62PX4rF5UTP+7kFmR6j&#xa;ZP2DUZnN/iIj8W2cRADzl27a6oK+p57fCNDd6S+KZ2zedpz16wwsxthF24/3&#xa;IZ7vQ1T746nPiV6fvrbc2BxPsn6dgapYs2Hnahfiv5gfv9QrNRf0n+61KNPj&#xa;WbzordY/GJXdgWucz0+PQDHboYEqXkMo8dVOdIf1Mbzk0jPW23ou9whBbYz3&#xa;ljele7YL+uHZO+NX+/icTp/RDOaA+UvHixO9MN2J3fwYprITvfZel1LOPnbC&#xa;+ociOlB6tJJr69NNd2ygasZ7y33onLP/8YF6S2WO9xC/6yX+/Zr2zFrrlxAY&#xa;pLTGXdB3eol7KvR5fKOXuDkNMbgHB7DA4V8rvmL2UrYMjmUiH2KvEbqPumeN&#xa;eol/Yf0DEf1s6S8mTZlumG7gQAWlm3EdGAZsznIYIHqVD3Ei/Yxc348SuY36&#xa;iPRXQRfilRken7elz990vSh/7QcWrjnZfYIP8fPmxzJR+Jla8ffuWajpRmzm&#xa;PxDRwUpfmZL4ptHWjhNMd3OgolZM7D3WtzrPdkHf4oN+xeSZ5aLXe4kf9RL/&#xa;0rc6j7V+TYCcpL/IONE/dkH/1Un89rCPTxfinU7iF3yIf90I8ZnpslDr1wSo&#xa;osam7mle9H2Vv9yHenXNBQ33LFi+nkK5l9Zo+ipV+kqV6e4O1OBxggcGAn+S&#xa;viEwe8lN354ooPtmf4FJ1/KHeJFr68tHW7tG+eowMH9+Q2dleuylD/Ht6QbN&#xa;TnQmHVt9HKr/pwva9tL5o/TV/nQfEet/M1D56/yD/hX3UyOffXrF7KL10nmI&#xa;/Q9DNN/0K412fIr1Zg/USbrpXnPj9Km+3XlSQ+Kvuba+Pv010Im+ef9X9eOE&#xa;E73EhXjx7H8O+lYX9P9rtuL/SL/kN1vTTxttz5zO1/mBwfDrO0et3tRd0wzd&#xa;X3RBX5oGeOkYTE/QOXBMvjd14Fj9x3Tspkf0uaCvc0FfkL6SPNracQo32QX6&#xa;qNdb5qXzWy7Eb9mfHxPFeX3ja2xq+5Ej6cTN+ochWmjp+sT0SBXrvR8AAABl&#xa;abTi4w582838nJjIL6B0D5oR19bftf5BiBaV6K3pK1fcpAgAAACDlr4tN/tt&#xa;OK7zp1DRpPOSdP3/35j/IERLyIW4Nz0HnfsDAAAAYDBP14kXuBB/aH3eS+SX&#xa;ksQ3jBy4ptP+hyFactwfAAAAAP2THlnrQtxlf55LFJecC7p+xEvcYv2DEPWt&#xa;9JUsiVOnt3atsv7AAAAAQDW5oGc60cvNz22JQv9yoh9IA4Dt1j8IUb9zEm9u&#xa;hvi/0le2rD9AAAAAUA1rJ3avSM9L79vjN4lCTulnRmaf2Wz+gxANpvRoFid6&#xa;Hs8hBwAAwH1Jj0fzIZ7vJN5off5K5AeWXpHuAXCT/Q9CNNhc0C+lZ5xbf7gA&#xa;AAAgy+v8u9bnq0R+CH8cHeHrLVROus+F2FrVnjnZ+oMGAAAAtprt6cdwPzTy&#xa;BeWCfn/E+ocgGnYHHuFygV/fOcr6gwcAAADD1dgcT/ISN3jRu6zPS4n8UNMb&#xa;GABQuUncM3t/AAAAANTeWRNbj0jX+adfgszPQ4nC8EuX/zMAIBL9xOrJ7hnW&#xa;H0oAAAAYDBf0BT5ENT/vJAq234RONwH8kfUPQmSf7vMSN6+e7D7U+gMKAAAA&#xa;/bGmPbPWi/67/bkmUbRP9No0Dfu++Q9ClEuiP+D+AAAAANU2NrnngS7oehfi&#xa;nebnl0Qhl3R3egrAbvsfhCizRKe9dH/F+sMLAAAAC7zOX+IfetHrzc8niUJm&#xa;SdyeBgBfMf9BiHJN9LJG6D7K+sMMAAAAc2tK9+z0C475+SNRyDTRT6RLAD5i&#xa;/oMQZdzsV8ck/l36Kpn1BxsAjLZnTneir/UhXuQlfsyJ7nAhdoeRD3qFD/Hf&#xa;XNB3eom/46XzEOvXAwCak9MP9xI/an3OSORzT/R96SaALfMfhKgCpftluKCv&#xa;Wze+5XDrDzoAZVkxsfdYF/S/e4lbrffCeyV6lwvxU81WfAV7IwDD6/zvMN8P&#xa;iUL+pQF++gbAn1n/IERVyoX4Td/qPNv6Qw9A/Y1NbT/StfX1XvTq/PdG3emC&#xa;vnSk11tm/boBqLc0cEzfhHISr7Pe+4h8hUrnFGkA8FLrH4Soirmgl7qN+gjr&#xa;D0EA9dTY1D3NhfjFCu6NH+aSKQCD0mjHZ3nRb1jvdUS+gjUkPnfEtzqPtf5B&#xa;iKqak3i7l/iOVe2ZB1h/IAKoj/QUkirfwdqFuMsFPdP6dQRQH6s3ddekAaP1&#xa;/kbkK1w6jkbS8865boZo6fcH8CGePzLVO8z6AxJAtTnRX6/Dc6udxJu9dNZZ&#xa;v54Aqm3sou3HO9ELXYg/st7XiHzFP5dHxnvLZw8sL/p16x+IqA65EK90bf1l&#xa;6w9LANWULsurwy//9+yJEm92bX269esKoILGe8ud6Hk+6DXWexmRr0MSP3fP&#xa;8eVFN5r/QEQ1yol+oCnTDdMPTgCV4qXzW+mu+rXbD0P8YUO6T7V+fQFURyPE&#xa;Z/IHSqLY15zEd99zkLm2/q71D0RUt9KlNenRNP7izv1MP0UBZK/Rjr9Rp7/8&#xa;H/SbAC19hvXrDCD/m596iZut9ywiX8da3f9yz8E22to1av4DEdU0F+L3uD8A&#xa;gPvSlPiyOv7l/+fTW9Jf9axfbwD5OWPztuPSdf5e9Db7vYoo1rI0YLvXgeeC&#xa;fsf6hyKqdRK38jVYAD+t2Yqv8EH3me9PQ4p7AgC4l/Heci+dV3rRq633JyJf&#xa;63T3zx1/Lmjb/gcjqn/pETZrNuxcbfJBCyAbPnT/a0m//P8kvSU9x9v69Qdg&#xa;qynTT3QSv2C/JxHF2ueCvufnDkIvnZdY/2BEpeQk3p7uDzDa2nGCyacuAFPl&#xa;/vL/4/SWpnTPtn4fAAyf39BZOXudv+jd9nsRUSyiZqv7/J8/GC/u3C/9UmL9&#xa;wxGVlJP4bdfWl4/0estMPoUBDJ0L+qqyf/n/cXwTACjJ2EXbj/ch/jXX+f8/&#xa;9s487K6qOtw3BBFwwFmjkZC7903SaKmKQ7UqdagztVrpYFvqSK21xaqV/uoQ&#xa;Wm1LB61RtP3y3bVvEqTWz7YOOA+g4lSFihpJvrvWzQdRFAcGZR7C/T37JiAW&#xa;Er7h3rPO8L7P8/6R58kf9zt7rXXO2WfvtQ1xWKx65cqZXYfcZmIGsQ/5/0DE&#xa;Jqpfoz8AQP0Z7XXl5f9nil4V0+DXvMcFACbIcLgs9vTYKHqBe81BTA1U7D/2&#xa;34nY+wciNtW8FE5s5ojuzlWF3pgBoBD48n/bhmTXRBk8y3t8AGD8rE6DR0Sx&#xa;L3rXGcQmG5I+e59JumLqwkNDsp96/0jEJpu7ZEexN+xzqQ4AVI7YtZex33U/&#xa;il4dkj7Ve5wAYDyEpA8MSf+duodovopeEjf277jfhI3Jptx/KCLu6Q8gehz9&#xa;AQCqTejpS/nyP6+ad21M/WO8xwsAFk/+mBiTnRiSXe5dUxDRhkH0bbebuB3Z&#xa;+UvePxQRf2ZI+j+hq48u5M4NAGMliB3PF7AFnpDS1V/3HjcAWNw+/yA6511H&#xa;ENFuNmzWB80rhzmTE7Fs6u6QNK2bOn/FxG/iADAWQtJX8PK/uJ4At3lcEQCU&#xa;ks704JEx2Ze8awci2s8rdua8Ezl2B7/p/oMR8Tb7AwTRk1b15g6e6N0cAJZE&#xa;J9kf8fK/pFp37X6bFgGAO2u72++/Z+swW5wQYwltJ3vG/DN6w/CAkOzb3j8a&#xa;Efeh2C76AwCUExr+jXESoKe/4T2eAPDzrJ/ZdlBMdgKNwxGttIZk5y34PSGK&#xa;vdD7hyPi7Sh2Zu7bMbG7PAAsiCj2Sl7+xycrAQDKRRD9rZj0fO/agIi2f7uD&#xa;31t4hs8Ml+eZA/cfj4i3o+6OYltXTw/uO4mbPQDMjyj9P/evB/UzJLuuLfYc&#xa;7/EFaDIh6cNCss951wNEtHmo38or+heV7FH6z/P/AxBxPuYjd3J/gNs96xMA&#xa;xk5I+irvGlD3SYBOsud6jzNA01gzteNeIenGKHqDdx1ARJunSzlSdzhcxokA&#xa;iBVTtM9Z2gDFEZK+xj3vGzIJkJsUe483QBPIHxNishPZ549olTIk++xYlvww&#xa;64dYQUU/s3p6cORYngQA4DYJoq92z/UmOXoeGTzfe9wB6kz+iBDEzD3fEXG4&#xa;IEVvGFtvsCD6b+5/ECIu2JDs+pjslHVbzrvnWIoBANxM/jrmneNNrWu5EZn3&#xa;+APUjfziEJOd4Z3jiGiLU+ztYysI7anBYSHZd9z/KERcnKKX5JeVfHTP2AoD&#xa;QIPpdO0v3PO66SsBpP/73nEAUAfyRwL2+SNapQ1i313Vm7vbWItDpzt4pvcf&#xa;hohLVHQ2yuBZYy0OAA2Dl/+SyCQAwJI4aursO8RkJ8Skl7nnMyIOl2Lo6dMm&#xa;Uiii6GbvPw4Rl25I+uG13Z1rJ1IoAGpMEH2dd/7iLaQnAMCi9/nvaRpcgjxG&#xa;xOGSFNs0sWJx5NZz7xREt7v/kYg4no7ayabyET8TKxoANYI9/yVV9IYgepx3&#xa;fABUgTz5H0U/4p63iDgci6L99adsu/NEC0fs9h8akl3j/sci4lgMyX4Uu/ay&#xa;1sxw+USLB0CFiWJv9M5VvJ1JgJ7+gXecAJR5n39uCry3ObB/ziLicMmKXj22&#xa;rv+3RzvZH7r/wYg4VvPqnrbY0wspIgAVgi//VVF35+cT73gBKBNHbzjzwCB2&#xa;fEj2Q/8cRcQ4TqX/4kILShR7h/sfjYhjNyT9VGd69hcKLSgAJSWInuSdk7gQ&#xa;dXenay/wjhuAMtCRwZNj0m/55yUixnEr9hanGUX9pPsfj4hjN2/zCUn/IZ7a&#xa;v2vhxQWgJATRN3nnIi5G3R3FXugdPwBerOnNrYtJP+qfi4gYJ6J+NL+LuxSY&#xa;td3td4liZ/tfBESchEHsx/mIIPoDQNMISf/GO/9wCYreGGXwx95xBFAkh592&#xa;wd2D6Mn06kKss/q1iTf9uz1WTw/uG5Op/8VAxEkZkv1vpzv7eNdiA1AQUezv&#xa;vHMOx6HuDklf4h1PAJMmfwmMqf/yvZP2Jcg9RIyTUHQ2Sv/erTIQkj4wiJn7&#xa;RUHEiRqSnt6R2bZ3zQGYFCz7r+FKgNR/uXdcAUyKdrInRtFvuOcaIg4nrHY2&#xa;zz6gVSbaWwaHh2Q7S3BxEHGSil4dk73ZffkRwJjJS2fd8wsnUbNu7CT7I+/4&#xa;Ahgn7WSdmOyD7vmFiMMC1Lipv7JVRtZNnb8iJD23BBcJESdsSPq9fLRQa8Pw&#xa;AO/aA7BUotjfeucUTlDRG0PSV3jHGcBSyZPv+XQS9vkjNkSxbaX78n9bDUhi&#xa;0rPcLxYiFqPY2W0ZPNa79gAsFl7+GzQJ0NM/9Y43gEWxYXhAED0uJr3IPZcQ&#xa;cViEIdlX1m05756tKrByZtchUfQ93hcNEQt8sBY9rbTLkwD2QUz2z+75g8XW&#xa;KlYCQMUIPf1VVtgiNssgelp+p25ViuFwWUx24ug83hJcREQsQr0y76OmPwBU&#xa;gZD07/1zBn0aA9oJ3vEHMJ8m21Fsq3vOIOKw4I9qJ+V36VZVaffsSVH0++4X&#xa;ExELM4h9Ny9VrHTxgvoyHC4Lom/zzhN0ngQQe6V3KALcFkduPfdO+QVgb9Nd&#xa;/3xBxGERhmQ/aos9vVUHcuOCIPp574uKiAUr9sXVafAI7xoE8HMv/0k3uucG&#xa;+sskAJSNDcMDYhq8iA9niM0zJPvs2u72+7fq17zEjg9iV3hfYEQs/CF7Jh8V&#xa;6l2GoOHw8o+3YUj6/7xDE6AzPXhkTPYl73xARCvWPSt9TmzNDJe36sqa3ty6&#xa;KPoF94uNiIUakl2eH7RX9eYO9q5D0EByXxqxd3jnAZbTkPQ13iEKzeSI7s5V&#xa;Mdl79/amcM8FRLQC1bPWdneubTVo/yVHmSA20JDsO/QHgELh5R/nYRB9nXeo&#xa;QnNYMXXhoXv3+V/lHfuIaIUakl48aka7YXhAq2kcftoFd8/LMUOy67wHAhGL&#xa;3+vU6c0+xLsOQSOW/b/LO96xMp7oHbLQgJrU0z/IzXJLEO+ImIozJLs+f5BY&#xa;P73rHq2ms3rLYE1I+mHvQUHEotXd+YijVb25+3nXIaghe46jPcU/zrFSir3B&#xa;O3ShnuSmuLk5rnuMI+KwcEU/3U6DX/SuQ6WjI4MnR7Ft7gOEiIWam4OOlkJu&#xa;7N/Ruw5Bnbaa2Tu9YxsrKpMAMObTsGKyqdGkt3dsI+KwUEX7safHetehUnPU&#xa;1Nl3yHsiouil7gOGiEWrFElYMrz84zgUe6N3KEO1WTmz65C8rSQk+6l7PCNi&#xa;8c2vhY9bCyLvjRgd1yR6g/cAImLBin5m9fTgSO86BBWEPf84Xjd4hzRUk5j6&#xa;xwTRuRLEMCI6bG9dPT24r3cdqiyd6dlfiGIf9x9MRPQooO2tdh/vOgQVgZd/&#xa;nIBB9GTv0IbqEDbbUUH0895xi4jFG2hwPYGZ1GQD74FFxILdsx3oRJZQwTxe&#xa;/v/VPV6xljIJALfHuqnzV4z2+bNyFbFxBo64nhzrZ7YdlPsDBLGfeA80Ihas&#xa;6Cz9AeA22TA8ICTtucco1tqQ9B+8Qx3KB8+miE1Wr8z7/Ff15g72rkXNmWWl&#xa;mypi4wxJP9Xu2oO96xCUhA3DA6LoZu+4xGYYkv6jd8hDeWB1KmJDFb0xis20&#xa;twwO965DjdxnFUW/4B4EiFioIdn1e5Za9u/tXYfAkZnhcl7+sXDF/sk79MGX&#xa;2O0/NCT7nHssImLxin41JH2Mdx1qNsPhsrwsOCY93z0gELFQQ9KL89LLozec&#xa;eaB3KQKHl/9kW7xjEBsqkwCNZN2W8+7JCVWIzTQkuzCIHZ9XHnrXItjLiqkL&#xa;D9171url3gGCiMUaRLe3kz3Duw5BkV/+bat33GHj/WfvVIBiOGrq7DvkyeaY&#xa;9LISxB0iFqnoVbkR7Nru9rt41yLYB3FTf+XowTDvzfAOGEQsvD9AlP567zoE&#xa;E2RmuDwkO9U71hBHir3FOyWggH3+YuYea4hYuCHp6Ws27VjtXYdgnnSmB48M&#xa;Yl/2DhxELNaQ7Lq8RLM9NTjMuw7BmOHlH0toSPZW79SA8bOmN7cuJv2od3wh&#xa;ooNi53S6s4/3rkOw+KOhXhKTXuQeSIhYrKI/CD19KXu16kHu8xDF/sM9rhBv&#xa;QyYBarfP/1/Z54/YRPWiKP0X8+xYA47ceu6d8hmNUfRq/8BCxEIVO2d1GjzC&#xa;uw7BUr/867vdYwlxP+aXxtyY2DtdYPHkptIh2Q+9YwkRizWwerS+hGmNMdkH&#xa;vYMMER2ODRR7y/pTtt3Zuw7Bor78z3jHEOJ8zA+QTAJUj7XdnWuj2Jne8YOI&#xa;Dop9IL8jetchmDDtZE+Mot9wDzhELNQgOteWwWO9axAs6Mv/v3vHDeICnWIS&#xa;oDoE0eNi0itLEDeIWPQJUmJP965BUHR/ANHjWOqF2LzVAPk4l3ysk3cZgts7&#xa;6k/f4x0viItSbBN7SMvNmqkd92JVKGLzDEkvzsd65hWG3nUInFg/veseUezt&#xa;oyXCJQhKRCxKPWtVb+5+3jUI9nXmtv63f4wgLt6Q9F2sBCgnIeljQrILvWME&#xa;EQve5y/6tsNPu+Du3jUISrT/KyT9sHdwImJx5gfAfGSod/2Bn8HLP9ZKsWlW&#xa;ApSL2B38Hk2hEZtlSPqpdtce7F1/oKTE1D8miva9AxURC1L0qvxA6F17oNVa&#xa;P7PtoNyMxz0mEMcrPQFKQF7um5s0liAeELEgQ9Idne7gmd71ByrzBcpOiEkv&#xa;8w5cRCxA0RvzUaHetafJ7H35f797LCBOwCAqrATwrS8h2fu84wARC1L00pjs&#xa;xLixf0fv+gMVY92W8+45mi0WvcE9kBFx4nKElw98+ccmyCSAD0duPfdOIdkn&#xa;vMcfEYtQd0exre2tdh/v2gMVp9ObfUhI9ln/oEbESRuSdXlIL448O0//FWyK&#xa;TAIUy6re3N1Csq94jzsiFuIZq6cHR3rXHahhf4CQbFCCAEfEST+ksxKgmC//&#xa;HMOFDTMk/fd8zKV3/tWdFVMXHhpEP+893og4YcV25aPdvWsO1P+B9YQg9hP3&#xa;gEfEiZmPivGuN7Xfkyv2Ie9xRnRR9D2cQT3xbUUfcx9nRJyYQeyK3L9pVW/u&#xa;YO+aAw2hs3n2AXmPSW4e5p0AiDghxd7gXWvqSL5Z83DuEc96Y/5SEsXODEl7&#xa;QfS0vDw6JPuR+29romJbWQkwAWaGy1lZhFhndXe+h62bOn+Fd7mBhtKR2Uex&#xa;vwyxpo4m+AbP964zNXz5/7j72DbEkPTi0ct+V389L4ne17ismdpxr07XXjB6&#xa;ceKM9ALHx05lEmC8RLG3eI8rIk5I0S+0u/Zw7zoD0Mp7hWNPj41Jz3dPDEQc&#xa;r6JXh64+2rvM1AEa/hXn3q/6Jy5maeT66V33yMsq2epWmO9lO8B42DuJ5T2e&#xa;iDhmg9h3R/v86c8EpTxqRvRNUfQq70RBxHGqF4WkD/SuMVVm5cyuQ4LoJ/3H&#xa;suaK3hCS/k2+Hy11zFb15u6Xv1C7/00NkMaAS6ctg8cGsWu9xxIRx6lemSek&#xa;97eCDaAUxE39lfQHQKyXeavPUVNn38G7vlT25T/pp7zHsBFf/bv9p4x7/PJX&#xa;l/wQ5v331V6xGVYCLI7DT7vg7lH0AvcxRMSxGZKevrY3d4R3fQFYEJ3u7OND&#xa;sv/1TiBEHJtv9q4rVSPP2kfRT5dg7Oqt2LbcnHZS4xi7/YdG0R+4/531l+0A&#xa;i9mGSdM/xBqpXwtJH+NdWgAWz4bhAaGnL+XBCbEO6u52z57kXVYq9vL/Gf9x&#xa;q7v6rfZWu8+kxzNs1gfl7TD+f2/NFZthtdH86Yj9mfuYIeKSDUm/l/t45Hcn&#xa;77oCMM7+ACeFZNd4JxgiLkHRC9Z2t9/Fu6aUHV7+izEkOy/v1S9qXNd2d64N&#xa;yS70/rvrbkj6n0wC3D5rNu1Ync8C9x4vRFy8uXdHSLoxntq/q3dNAZgIYVpj&#xa;nt33TjZEXIJi7/CuJWWGl/9iDEnPzcf3FT2+TAIUNr4fzidnFD2+lWE4XEZv&#xa;EcTq7/PvyGzbu5wAFEI72ROj6De9Ew8RF6Puzh2nvetIaV/+k53hP0b1Noh9&#xa;3ePl/yZWbxmsyccyeV+HusskwL6JafAi7/FBxMWvXgs9fZp3HQEonNzoJyR9&#xa;RUh6sXciIuJC1W9xbNfPs/6UbXcOyT7nPzb1NjeXXT+96x7e4z2aBGAlwOQV&#xa;+8D6mW0HeY93mcjxz7MTYvUMyX7YSfZHPD9B48nH1wTRkzm/FrFajm5icHOf&#xa;kyh2pveYNOHlf92W8+7ZKgntZJ2Q7Dve16X+6kdX9eYO9h7vshCS/ov/mCDi&#xa;fA3JrovJpjxXrgGUkryvMop+xDtJEXGe5tM9aFrDy39DX/5vIp/THETnvK9P&#xa;/WUSIJP3C9NQGbE65l4d+RQZ79oBUGpCV389iva9ExYR5+WbWw0mn4gQRb9Q&#xa;gnGot6JfXdWbu1urpMTN/RDFdrlfp5pLT4D89d/e5z0OiHj7ss8fYIHk439i&#xa;shNi0su8ExgR920+gqqMX2ULO9402We9x6D2ip1dhj3/t8cR3Z2rQrKd7ter&#xa;7op9rKkrAaL01+cmrO5jgIj7VvSSmOxEepcALJL8YjE6G1P0BveERsTbVuyN&#xa;rYaRtz4EsS+7X/u6K3Z27hPTqgjtLYPDQ7KB+3Wru2IfXzmz65BWwwiip7lf&#xa;e0Tch7o7im1tb7X7eNcKgFoQu/2H0l0bsZzmbtR5KXyrIbSnBofx8l+AYl+s&#xa;Yo8JJgGKMST7RJMmAfbu/b/e+7oj4m0o+pnV04MjvesEQC0Jor8Vk57vnuiI&#xa;+POKvbLVlJf/ZF9xv951V/QLVZ5UYjtAMTZpEiAmO8X7eiPirdSQ9Nne9QGg&#xa;9uSbfSfZ6/Pe4xIkPiLuWQWwozUcLmvVvPbw8l+EelaVX/5vgpUABSn28aM3&#xa;nHlgq+79RsR+4n6tEXHkKB/FXtv0pqQAhbO2u/3++UxNGuIglsPQ019t1Zgg&#xa;Kt7XuP7W4+X/JuKm/sr8hcj/utbeWp9GEpK+pATXGBFFb8z7/Ff15u7nXRcA&#xa;Gk27aw/nGC7EEij6nlZNiWnwfPfrW3vr9fJ/E/lBMR8H5X9966zurvNxWzHp&#xa;1/yvMWKzDUn/J/b6v+xdDwDgJobDZUH0uJDsQu8CgdhUQ7Jr8h75Vs3IR9Bx&#xa;JOnEPSMvc27VlM7m2QdE0dkSXOcaq+fXcTnunqP/vK8tYpPV83MPsrpvcwSo&#xa;LCumLjw0iJ4URa/yLxiIDVT6v9+qGSHp37tf1xqbT3hZf8q2O7dqzurpwX1D&#xa;sm97X+86G0T/pFUzYrIN3tcVsZnqlUH05CbcnwBqwdre3BEh2fv8iwdi4/xg&#xa;q0bk83xpODo5Q9JP5YnbVkNYN3X+iiC63fu619W8CnBVb+7gVo2Iot/0vq6I&#xa;jVL0xpD03bmHi3f+A8AiiNI/Ooh93b2YIDZoG0AVz27fFzH1X+59Tetqk45w&#xa;uyX0BJiwMnhWqyas3jJY4349ERsk+/wB6sKG4QG5P0BMepF3YUFsgm2x57Rq&#xa;QhT9jPf1rKNNffm/5cqSmPRb3uNQR0OybqsmROn/uff1RGzK6qEgdnx+Z/DO&#xa;ewDAQsEOAAAgAElEQVQYI7k5WUz2z0HsWu9Cg1hng9g7WzXg8NMuuHtIdr33&#xa;9ayf+tG6LdNe9CSA2Db/8aiXIdkP69KsKyQ93ft6ItZa0avzMaLs8weoOe1k&#xa;nSg24150EGtq3uPcqgFtGTzW+1rWTrGP8fL/M6L0780e7/G7trv9/q2Kc/SG&#xa;Mw8MYj/xvpaIdTVPsHVktu2d6wBQICHpU+nIjDgha9A8Z8/WoRJcy5o4+ppZ&#xa;w2PaxjQJ8A3v8amTne7s41sVJyR9jPd1RKyjo95g0j/aO8cBwHOGvad/GpJe&#xa;7F2QEGtld/CbrYoTkv61+3WsiUHsQ+tnth3kPaZlZc3UjnuFpOd6j1NtFHth&#xa;q+Kw/x9xzIr+IPT0pezzB4Bb7PXVjez3RRyTYn/Xqji5Z4j7dayBIemH+fI/&#xa;v/tQFP2q93jVwTyx36o4o2PISnAtEatuSHZdfsbPvcC88xoASki7aw/O51J7&#xa;FyvEyiv28VbFYQJgHOpZfPmfP+u2nHfPIDrnP27Vtg4TADSIRBzP6rPc+8s7&#xa;nwGgAoSkz47J1LtwIVa6E3fFYQJgqTGgF4ekD/Qex6qxOg0eEZJd4z1+Vbbq&#xa;EwArpi48NIre4H0dEStrnkDr9p/incsAUDHyV6tO1/6CLryIi3P99K57tCoM&#xa;EwBLM/T0N7zHsKrkF1jv8auyVZ8AaKfBL3pfQ8QKTzy/Ivf48s5jAKj6ksyk&#xa;G5mNR1yYYbMd1aowTAAsyTO8x6/SbBgeQFPA5k4A7F2F6H4dEavi3h5eU/lU&#xa;Fe/8BYAaEbv9h4Zkn/MucoiVUfrPa1UYJgCWNPYcsbRE8goK93GsqFWfAIhi&#xa;r/S+hoiVUfTTedWMd94CQF0ZDpeFpL8dk57vXvAQy67Ya1sVhgmAxapneY9d&#xa;be43+bxq9/GsnlWfABitOizBdUQstaL9mPrHeOcrADSElTO7DonJTgzJfupe&#xa;ABHLqthbWhWGCYBmvnyViTyJ5j2eVbTqMRjF/sP7GiKW1ZDs8iB6EsfLAoAL&#xa;a7vb7z/ac5R0t3dBRCybIWlqVRgmABbnmk07VnuPXV3I1zKK3ug9plWzBhMA&#xa;H/e+hojlU3dHsa2rpwf39c5RAIBW6OqjQ9L/8S+OiCVS7AOtCsMEwMINyc7z&#xa;Hre6EZN+y3tcq2bVJwCC2Je9ryFimQzJPtvpzT7EOzcBAH6e4XBZ7OmxUfQC&#xa;70KJWAZz08xWhWECYBGKvd973OpGFH2P+7hWzMpPACTd4X0NEctgSPadIHpc&#xa;fsb2zksAgH2yYurCQ0d7k0Sv9i6ciM5+qVVhmABYuCHZW73HrW6M7iclGNsq&#xa;Wf0JANvpfQ0RfdUrc+1b1Zs72DsfAQAWtHczJP1P/yKK6GW1u8EzAbAIxV7p&#xa;PW51o9O1F7iPa8Ws+gRATKbe1xDRxT09T7bkHlveeQgAsOiVACHZNe4FFdFD&#xa;sTNbFYYJgIUbkr7Ce9zqRpT+i73HtWpWfQKALQDYVEOy66LYP7WnBod55yEA&#xa;wMJ7ASQ937uQInoaRD/ZqjBMACxizJP+lfe41Y0g+ibvca2a1Z8AsPO8ryGi&#xa;p0HsxzHZCa2Z4XLvfAQA2C9hsx0VRb/gXTgRy6F+tFVhmABYuCHpv3qPW92I&#xa;YjPe41o1qz4BwMkPiHvMk2Ghp0/zzkkAgFvR2Tz7gLxnifOaEX9m7oHRqjBM&#xa;ACxmzO0r3uNWN3gZbN4EAMcKI/68QfS/OjLb9s5NAIDW+pltB+UlSiHZT72L&#xa;I2LpFHtHq8IwAbAYdfeq3tz9vMeuLqztzR3BxHLzJgBisg96X0PEMvYHCEk3&#xa;xlP7d/XOUQBoKDH1j+GoHsT67gdnAmCR497Tl3qPXV0ISV/jPZ5VtOoTAEH0&#xa;37yvIWJZDcl+RH8AACiUkPRhQfTz3gUQsfRK/8WtCsMEQDObP5aJmPRr3uNZ&#xa;Ras+ARCTbfC+hoilV+ycTho8zjtfAaDGrJnaca/R0iPRG9yLHmIFbIs9vVVh&#xa;mABYvKvT4BHe41d1ogye5T2OVbXqEwBB7Hjva4hYFUPS09ds2rHaO28BoEbE&#xa;jf07xmQnss8fcWGunh4c2aowTAAs3pD0w97jV2k2DA+Iot/wHseqWvUJgE53&#xa;8Ezva4hYKUWvisnefOTWc+/knb8AUHHaYs8JYuZe2BAr2KwnT561KgwTAEuT&#xa;pZmLJ6b+y73Hr8pWfQKgvWVwuPc1RKyiIdmFQfS41nC4zDuPAaBi5C+XMdkZ&#xa;3oUMsbKKfrNVcZgAWJqjyVO6NS+YdtceHpJd4z1+VbbqEwCZKHqJ93VErKr5&#xa;KM3Q1Ud75zEAVIAo/XuPuu+yzx9xSYZkp7YqDhMAY4mDT+TjUr3Hsiqs23Le&#xa;PYPonPe4Vd06TACEZJ/1vo6IlVb0xiB6Wkj6QO98BoASctTU2XfIR4pE0Uvd&#xa;CxZiDczHl7UqDhMAY1L0I1XfDlIEq3pzd6Pr/3isxwSAbvS+joi1UPSqIHry&#xa;2u72u3jnNQCUqdOy6Kx7gUKskR0ZPLlVcYLom7yvY20U+wArAW7vy7993X2c&#xa;6mLFjyDNdLr2AvfriFgnxXbFNHg+/QEAGsza7s61uVO1e0FCrJlB7No6dOKN&#xa;afAi72tZL/WjrAS4NYefdsHd+fI/Xjvd2ce3Ks4R3Z2rvK8jYi0V/WpI+hjv&#xa;HAeAgh+28lKg/JLiXoQQ66jop1s1IL9EuF/L2qkfXdWbO9h7bEv18i92tv+4&#xa;1MtVvbn7tWpASLrD+1oi1lLRG6PYTD5xwzvPAWCCHL3hzAPzvsCQ9GL3woNY&#xa;b09s1WRZNg1Bx28Q+xDbAVqtNVM77hWSnus9HvVTL6rLEt8o9nb/64lYX0Oy&#xa;y4Po61bO7DrEO98BYMy0e/akfCyZd6FBbIIh6cNaNSGKnel9PWup2MeavBIg&#xa;nzgTRb/hPg41NJ/k06oJMfWP8b6eiE0wJPtOED2uLpOHAI2Gff6IRatXtjYM&#xa;D2jVhLxqyP+a1tOQ9PQm9gTg5X/CdvtPadWE9adsu3NIdo37NUVsiEH083X6&#xa;iAHQuOOUQrK3hmTXeRcTxEYp9vFWjVg9PbhvntRwv641dTRB26BJgL0v/6xG&#xa;m5h6fj7Wt1UjYtL/9r+uiE1SdwdRqUsvEYD6s2F4QF7CE0V/4F9AEBuo9H+/&#xa;VTNy01D361pnG7IdgJf/yZuPzmvVjCj953lfV8QmGsSuCKInNeH+BFBZQlef&#xa;wLJKRN+bZV6y2qrhiqIoeon39a21Yh+v80MWL/9FxJDO5ma/rZqR8yKKXup+&#xa;fRGbqtiuUX8AACgPYVpjPsrDvUAgNtyQ7NRWTemI/a739a29NZ0E4OV/8oZk&#xa;17dl8NhWTcnLkb2vMWLjFTuz05t9iHc9AGg0R2499055aU4Uvdq9KCDiMPT0&#xa;aa0aE5L+q/c1rrsh2SfqdBxTe6vdh5f/AuJG9NWtGtNO9kTva4yIWd0dxbbm&#xa;/kDedQGgefv8k74kn/XrXwgQMRuS7WzNDJe3akxuVheSfc77WtfemvQEGDWQ&#xa;FNvmfj1rbkj6n7U/umv03GMD72uNiDepl+WJx/Uz2w7yLg8Atacjs48KYl/2&#xa;T3xEvKVB9E9aDWDF1IWHxmRneF/vulv1lQCjL/9Jv+V9HWuv6EeacopElMEf&#xa;u19vRPy/auzpsd71AaCWxE39lXnJTRS9sQTJjoi3MIj9OG/JaTWE0SSA6Ge8&#xa;r3vdDaKfrOIkAC//BcVH046QHK1A0u95X3dEvA1FP7N6enCkd50AqM2DNvv8&#xa;EUuu2BtaDWPvJMCn3a99za3aJMCePf8s+594XDTs5f8mQtK/8r72iLj//gD5&#xa;PuBdKwCqyXC4LC+piaIX+Cc0Iu7v6L81Uzvu1WogTAIUFGPJPluFFSbs+S8q&#xa;HvQ/j5o6+w6tBhJP7d817z32HgNE3I97ju08sYmTlACLJiR9TBT9qnsCI+J8&#xa;/OdWg2ESoBhD0k+VeSXAqt7c/YLodu/rVHdDsvc19eX/JoLoyd7jgIi3b74n&#xa;tMWe7l0zAEpNZ/PsA9jnj1ghRX+wqjd3t1bDyS+m+QXVfTxqbj6BYf0p2+7c&#xa;Khl8+S9s/Bv/8n/zKgDR73uPByLOz/x80O7ag71rB0AZu2qfGJJd7p2kiDh/&#xa;83Gc3vWjZA26Puw9JnW3bJMA+eU/JPu293WpvWIzR28480Dv8S4LUfovdh8T&#xa;RJy3Idn1MdlUlP69vesHQCn2+QfROe/ERMSFGZL9bz6b2ruMlHAS4HTvsam7&#xa;QfTzZZgE4OW/MN/Ly///YcPwgJDsKyUYG0RciKKX5I+e62e2HeRdRgAKJ2y2&#xa;o2LSs9wTEREXruiNnTR4nHcdKSP5ps4kQP0nAXj5L0xe/vf/HLW7BGOEiAs0&#xa;JN3R6Q6e6V1HAAphbXf7/WOyLezzR6ywopu9a0mZWdWbOzgm/aj7ONXfM/IW&#xa;Mpf7mOhsCf7+WhuSvrs1M1xe9PhWiZCs6z1OiLh4g9iHVm8ZrPGuJQAT+yoW&#xa;k50Qkv3UO9kQcQmK7Tr8tAvu7l1TKlLzPug+XrVXzypyJcCo23+y8/z/7por&#xa;+h6+/N8+7anBYSHZTvfxQsRFG5JdF5JupKky1IqY+sdwg0Ksg7o7Sv9o75pS&#xa;FZgEqNckAC//BcnL/4LoTA8emV8g3McNEZdkSHpx/ljKyieoNCHpw/I+Te+E&#xa;QsTxGJL+tXddqRo0BiwqNu2zk5wECEkfGEX73n9nI7YX0Vx0wXSSvd597BBx&#xa;PIp+o53sid51BWAxX0m6NKdBrJVf4qvcEhoDin2oBGNYb8XOiZv6K8c9fiHp&#xa;U0OyH7r/fTU3JE28/C+SmeHyPAnmPYaIOE71v+PmfvAuLwC3+6UrH20RxH7i&#xa;nzSIODZFf7C2N3eEd42p/HYAsQ+4j2XdFb2knewPx/EimRsMRrG/YzJ78gZR&#xa;4eV/aeTJr1yrvccSEcdnSHZNSPoP8dT+Xb1rDMBt7/MXM+9EQcQxK3pV6Oqj&#xa;vWtMHThq6uw7jGb0vce0Aea9+kH0uMW8VO5dsXF8SHah99/RBHn5Hx/trj08&#xa;iF3hPaaIOF6D2I/pDwClYfX04Mgo+hnvxEDESai7Q09/w7vO1AkmAYo/azmI&#xa;vqnTm33I/sYlb29p9+xJMdkpIen3vH93YxTbxMv/eAlJnx1Fb3AfW0Qcv2Ln&#xa;dLqzj/euM9BQovTvHUT/jZsMYq09wbvW1HUSIIj+VwnGt1mKXhDF3h9E3xZE&#xa;T45i/xSTvTc/UHFEbfHmZ4jWcLjMOx/rSBD9E+/xRcQJKjbD1kwo9sE16aui&#xa;6KXuwY+IEzMk/RfvelP/Wmrv8x5nRA9D0n/l5X+yjPYNl2CsEXFCil4dxf62&#xa;iGNwocFEGTwris66BzwiTv7ln4fziZOXnedZfO/xRizSIPZO6ksBDIfLotjb&#xa;vccbESdr7lczrua3ADeztrtzbUj6Ye8AR8TJm5dGe9ec5h3fpe/2HnfEgpzi&#xa;5b9Y8ulMJRh3RJy0Ymd30uBx3jUHKs7hp11w9/wyEMSudQ9qRJysojeGpK/x&#xa;rjsNPsP7VPcYQJyg7Pn3I/T0T3ON944BRJy8Ienp9AeARS1LzTeLkPRi7yBG&#xa;xCLU3bFrL/OuPY1mz0qAf/ePBcTxmxsv8vLvSz7aclTrSxAPiDhp9cogetKK&#xa;qQsP9a49UAFC0qeGZN/2D1xELMI93c/7x3jXHtg7CSB6mndMII5TeoqUh1zr&#xa;aeKM2BxDsu/E7uD3qMFwm7DPH7GRatisD/KuP3AL2A6AdVLsLd4pBT9PmNYY&#xa;kp7rHhuIWJhB7Mud6cEjvesPlIRVvbm7jfb5J7vGOzgRsUj1v3OfD+8aBLfB&#xa;zHB5FN3sHyOIS5CX/9Kyqjd3cBSbdo8RRCzO3AdEbOaI7s5V3jUIPB8wu/ay&#xa;kOxH7gGJiAWqV7LfvyI1OtkW/3hBXLgh6T96pxDcPvleEEWv8o4XRCzOIHZF&#xa;J9nrV87sOsS7BkGBhK4+geVfiI30S3m7j3cNgnmyYXhASNorQdwgzl+xf/JO&#xa;HZg/HZltB9FPuscNIhbeHyCIHkd/gJoTN/dDFHu/d8AhYtHqZR2xP8svlN51&#xa;CBY1CZD8Ywjx9g1J/947ZWARDIfLotgLOf0JsYnqWWGzHeVdhmDMHLn13Dvl&#xa;oyCi6NX+QYaIRZ8HGzf1V3rXIVgCw+GykPRd3rGEuD9Z9l99Vk8P7hvFtnrH&#xa;EiL69AcISR/oXYdgPF+OXhKTXuQeWIhYsPq1ds9+xbsMwZjYMDyApl1YVoPo&#xa;m7xTBMZHu2dPiqLf9I4rRHQ4GloGf5kbhXrXIVgEHZl9VD7ywTuQELFYQ9Lv&#xa;BbHjcxM57zoEE1gJIPZO7xhDvKX5JCHv1IAJfUQSPS6K/sA7xhCxYMV20R+g&#xa;QuSlvqPlW3kph3fwIGJhhmTXhaQb46n9u3rXIZjwXt1kp3jHG2KWl//6w3HR&#xa;iM01JPtspzf7EO86BPtgxdSFh7LPH7HB+/w394N3HYJCG3a9wzvusPFu8E4F&#xa;KI52sk7eI1yCuEPEQtXd+eNy7hHiXYfglg+CPT02il7gHyCIWKQh2Xmhp0/z&#xa;LkPgNgnwdu8YxIYq9kbvFAAf6A+A2EyD2BX5YzP9AZxZnQaPiGJf9A4IRCzW&#xa;vUc1ncA+/4bDJAB6KPYG79AHX47ecOaBuddMSPZD93hExKLV/PHZuw41js7m&#xa;2Qewzx+xufv8855M7zoEpToicKN3bGJD5OUfbsHhp11w91F/ALFr3WMTEYv2&#xa;jNXTgyO961Aj9vnHZCeGZJeXYNARsUBD0k+Fzfog7zoEZT0dQN/mHaNYbzvJ&#xa;Xu8d6lBO1nZ3ro2iH/GOUUT06Q/Q3mr38a5DtSSm/jFBdM5/oBGxSEPSHZ3u&#xa;4JneNQjKT0j6997xivU0iL7OO76h/HRk8OSQ7Nve8YqIBSt6af5IHTf27+hd&#xa;h2pB2GxHxaRnuQ8sIhar6CW5mK6f2XaQdx2C6hDF/s49drFWhqR/5R3XUB2O&#xa;mjr7DrlHTUx6mXfsImLBivbpD7AE1na33z8mmxotrfAeTEQszJDs+lHuS//e&#xa;3nUIqgmTADguQ9L/5x3PUE3WbTnvnqP+JKI3eMcxIhas6KfbafCL3nWoMuSv&#xa;fXnmNIj9xH3wELFYRT9DwYRxEMX+1j2esdrK4C+94xiqT2d69hei2Mfd4xkR&#xa;CzXwQWsB+/yT7fQeMEQsXI5UgbETk725BLGNVXPPCUMneMcv1PIZd+Ae34g4&#xa;LFS2tN42sdt/aEj2OfcBQsRCzSd6BNGTaJoCkyKIvsk7zrFC8vIPE4RVrojN&#xa;NdDUeg/5yISQrMs+f8SGmfdEim3i2BQoAk4HwHkpemPo6Z96xyvUn3VT568I&#xa;SXs8/yI2z5D09HayTqtxbBgeEESPC2I/9h4ERCzWkOyznd7sQ7zLEDSLkPRv&#xa;vGMfSywv/+BASPqwIPp59/hHxGGRhmTX5Sah60/ZdudWU471C0nP9b7wiFis&#xa;o/4e0n+edw2C5sJ2ANznsn8Z/LF3fEJDGQ6XtXv2O1H0AvdcQMRhser5sdt/&#xa;Sqvm56KeGMSu9b/YiFiUQeyKvM9/VW/uYO86BDDqOVGCvMASffkX/RPvuARY&#xa;ObPrkNFzcrKfuucFIg4LVWzm8NMuuHurTuR9DlHsHPeLi4gFqruj6Oa13e33&#xa;965BALeESQD82cu/He8djwC3JG7qrwxJ3723IaV/niDisAjzKSGr0+ARrToQ&#xa;0+D5zGYiNkyxL9amiEEtick2uOcJOqq7Q09f6h2HAPsi9vq/HJL+j3+uIGIs&#xa;yNFKebFX5q1BrUoyM1weRE/2vpCIWJxB7Lu5wWd1Cxc0iSj2Wu+cQQfZ8w9V&#xa;YThcFnt67GifsHfeIOKwMMX+I28LalWJ9tTgsJj0o+4XDxELUq/My6pXTF14&#xa;qHf9AVgInWSv988fLLBW7Y5p8CLvuANYCEduPfdOMdmbo+hV/jmEiLEAQ7Kv&#xa;5CNDW1VgVW/ufkHs694XDRGLO890bW/uCO/aA7BYOl37C+88wiLU3Z2uvcA7&#xa;3gCW0h8gim2lPwBiU9Tz13Z3rm2Vvdnf6Kgv94uFiJNXv9bu2a941x2AcRBl&#xa;8Jf+OYUTrFe728n+0DvOAMZBJw0eR3NtxIYo+oOw2Y5qlZHVWwZrQrIL3S8S&#xa;Ik7UkPR7o87ZM8Pl3nUHYJwE0Vd75xdOQNEbePmH2jEcLss9d6Lo991zDBGH&#xa;k1Uv68jso1plgpd/xGZ0Jg1JN8ZT+3f1rjkAkyIkfZV3ruEYFb1h1JgUoMb9&#xa;AUZHm4pe7Z5viDhsxCTAEd2dq3j5R6y3Iel/rtm0Y7V3vQEogpD0Nd45h2NQ&#xa;9IbYHfyedzwBFEHc3A9R7P3ueYeIw4kpemm7aw92LTbrtpx3zyC63f1iIOJE&#xa;DMnOC0mf6lpoAByI0v9z7/zDJb78S//3veMIoGhCV58Qkp7rnoOIOJyE+cN7&#xa;/gDvUmBW9eYOjsm+5H0REHH8hmQ/ZJ8/NB0mAappSHZ9u2e/4x0/AG7MDJfH&#xa;rr0sJPuRdz4ioo3dkOzb7anBYYXXlpCs6/3HI+J4Dcmuy/v8XYoKQAnJD9Ec&#xa;uVUhWfYPcDOrenN3C6Inh2TXuOcmIg7HqtjHC/1QF8Ve6f5HI+JYDUlPzw09&#xa;CyskABWhI/ZnTAJU48t/7Omx3vECUDbyOeIh6Ye9cxQRbbyK/W0hRaQzPXhk&#xa;/kro/gcj4lgMSXd0uoNnFlJAACpK3hLDJECJFb2hI/a73nECUGbaPXtSFP2m&#xa;e74i4nAsit4YuvrrRSwlmnP/YxFx6YpeEpOduH5m20ETLRwANSH09KVMApTP&#xa;/FGik+y53vEBUAWO3nDmgXlCM/f68c5dRLQlm3N5bXf7/SdWNPJRYN5/JCKO&#xa;YZms2DvWT++6x8SKBUBNian/ciYByvXy3xZ7jndcAFSNfJJXTHbK6JmgBLmM&#xa;iLZoQ9JPtYbDZWMvFLmjrvcfh4hLVPTT7TT4xbEXCIAGEZK+JCbd7Z7PDTeI&#xa;XRt6+hve8QBQ9f4AUfQj3vmMiLYkO8n+aKzFYc3UjntF0R94/2GIuEhF+zTH&#xa;AhgfUfovZhLAT17+AcZLRwZPjmLbvHMbEW1RBrGftLcMDh9bUYjJtnj/UYi4&#xa;cEOyy4PoSXFj/45jKwgAMIJJAMeX/6TP9h5/gLpx1NTZd4jJTohJL/POc0S0&#xa;hSv2/rEUg9DVR7PfEbFq6u4otnX19OC+YykEAHCbxDR4EZMABb/8T7rjMUDD&#xa;yf0BQtKN+XQN75xHRFuQbbGnL60CbBgeEMXO8f5DEHEBip3ZkZ2/NK4HAQDY&#xa;P0wCFGNIdk072TO8xxugKeRnifxM4Z37iGjzNohuz6t5Fp34MQ2e7/1HIOI8&#xa;FdsVRI8b690fAOZFFHshkwCT/fIfU/8Y73EGaCI590KygXcdQESbl/moz8Vl&#xa;+8xweUi6w/sPQMT9G8SuyPv8V/XmDh73TR8A5k9H7HdZMjuBGpfsGl7+AXxZ&#xa;P7PtoNwfIDca864JiGj7NSS7cMXUhYcusrmR/x+AiPtSd4ekvXVT56+YyN0e&#xa;ABZMXoXDJMAYFb0qdvtP8R5XANhDfuYISRMrnhCt1Iakr1rE3n/te/9wRNyH&#xa;ol/NDTondYMHgMUTkv52SHa9e52ow8t/Gvya93gCwK0JSR8WRD/vXicQcXhb&#xa;BrHv5pU7807qfF64949GxNtO5tE+/+Fw2UTv7ACwJJgEWKKiV+Vzyb3HEQDm&#xa;1R9gp3vNQMTh/7XTtRcsIJntS94/GBFvqV4Zk21Y1H4eAHBh1EiX7QCLqnft&#xa;nj3Je/wAYH6snNl1SBR7Y+5J5F8/EDHepOg355XEq6cHR7r/WES82ZD09LW9&#xa;uSMmfgcHgLETRH+LlQALkZd/gKqytrv9/jHZFP0BEK00tnv2K7ebvCHpu7x/&#xa;KCKOjvU7uy2DxxZy1waAiZG31TEJMB/1ynayJ3qPFwAsjXbXHh5Fv+BfUxAx&#xa;im3db8LmY8Ri0svcfyhiw4/uaCf7w9yMs7C7NQBMFFYC3E7dy0uHpX+09zgB&#xa;wJgYDpeFnv5B7l3kXV8QY9Mb6p7av+s+czV2B7/p/iMRG2oQuzYk3bjfJAWA&#xa;yhKl/7yQ7DrvWlPGl//Q1Sd4jw8AjJ/cuyiInrTnVA//eoMYG+iogfi+CMne&#xa;5/0DEZu6z78js+1C78oAUDh5op1JgP/z8t/TX/UeFwCYLHFTf2VeihxFb/Su&#xa;O4ixaYp9bN8dPPd0Gvf/kYgNMYh9nWWvAM2ik+y5TAKMtjv9lD4nAM2ikwaP&#xa;i2LneNcfxNgg8zPHqt7c3W6VkO1kz/D+cYhNMYj9OCY7oTUzXO5yBwYAVzrd&#xa;wTNDsmsaXAPZ8w/Q5P4AosdF0e971yLE2BBzL6Jb5WIUe4f3D0Nswgxc3uff&#xa;nhoc5nLTBYDSkCfemzgJEMR+Err6aO/rDwC+HLn13Dvt7Q9wtXddQoz1d8ut&#xa;kjCKzpbghyHW1iD2oXayjstdFgBKSUj67NwA1Ls+FadeFnv9X/a+7gBQHuLm&#xa;fohi7/evT4hWW0PS7/1c4q2bOn+F949CrKsh6Y78pc/tzgoApaYt9vRmfAHj&#xa;5R8A9k0+DSQkPde/ViFaLf25D5Htnv2O9w9CrJ2il+R9/kdvOPNA1zsqAJSe&#xa;+k8C6GUdmX2U93UGgJKzYXjAqD9A0ov86xai1czBi27OtSj2dv8fhFgPQ7Lr&#xa;c06tn951D9ebKABUito2BhS9dHUaPML7+gJAdcgdy0Oyt3JiCqKNzZCse3OS&#xa;RdEveP8gxFoo+ul2Gvyi610TACpLSPrUWq0EEL20Mz14pPd1BYBqkpcsR7EZ&#xa;91qGmGqg2Dm3OIrDfuL+gxCrrGg/9vRY7xslAFSf2kwC8OUfAMZEu2dPiqLf&#xa;dK9riKm65qbD62e2HdTqyGzb+8cgVlbRS0PSVx01dfYdvG+OAFAfOmnwuNyx&#xa;173GLaH5adisD/K+jgBQH/KzVkfsz0LSi71rHGKsqO2uPXjPl4YS/BjEaqm7&#xa;o9jW1dOD+3rfEAGgnkTp3zsk/ZR/vVuwH8z7d72vHwDUk8NPu+DuQfTkZh2h&#xa;imhjMfT0N1ox9V/u/UMQKz4MAj8AACAASURBVOYZq6cHR3rfAAGgAcwMl+eu&#xa;vVH0ghLUvtv96h+l/7y8tdD7sgFA/cmrjILoJ71rH2KskEH01a2Y7J+9fwhi&#xa;FQzJBp1kz/W+4QFA84gb+3cMSV8Rkv5PFL3Rux7+TN0dk56VJyk48hQAPIip&#xa;f8yoF5N7PUS00hvE3pm3ALzb+4cgltmQ7KdRBn+ZH8C9b3IAACHpA4PonwTR&#xa;f8snj4xWB4heUoR5IjQk+0RI+q4gdvyq3tz9vK8HAEBubJa/bMakl3k/NyLG&#xa;EhtE/ysfAfhp7x+CWErzVzaxrTzgAgAAAJSf9dO77hGSboyiN7g/RyKmEir6&#xa;hfwl4Vz3H4JYNkW/0O7aw71vZAAAAACwMDqy85ei2Jnuz5OIqWSKzrbycj73&#xa;H4JYEoPYd4PocTSxAgAAAKh+f4AgZt7Pl4ixJIZkF7Zi0ou8fwiiv3plPlJm&#xa;/Snb7ux9swIAAACA8XDU1Nl3iMlOCGI/8X/eRDRfRS9tkQzYaEVvHDXC3NRf&#xa;6X2DAgAAAIDJsG7q/BUhadpzekkJnkERU/EGsWvzFoDLvX8IootiZ7dl8Fjv&#xa;GxIAAAAAFENI+rAg+nn351DE5DUBwAoAbODel3x8VWvD8ADvmxAAAAAAOPUH&#xa;SLbT+7kUMRap6NX5GMBL3H8IYhGKXh2TvZl9/gAAAACwcmbXIVHsjUHsCvfn&#xa;VMQ0eXOs5xUA3/X+IYiTNiQ9vSOzbe8bDQAAAACUi7Xd7fePyaboD4Cx7or+&#xa;IPcA+Lb7D0GckCHZ/3a6s4/3vrEAAAAAQLlpd+3hUfQL3s+viHFyaism+1IJ&#xa;fgjimNWLQtKXsM8fAAAAAObNcLgs9PQPWCWNsY6Knd2KYh9w/yGIYzIkuy4k&#xa;3dieGhzmff8AAAAAgGqyYurCQ4PoSVH0Ku/nW8Q4LkU/klcAnOL+QxDHYEj6&#xa;qSj99d43DAAAAACoB3FTf2UU2xpFb/R+1kWMS1VsUz4L8/+5/xDEJRhEt7eT&#xa;PcP7BgEAAAAA9aQzPXhkEPuy93MvYlyaG1rtnv1OCX4I4oINYj+Oqf/yozec&#xa;eaD3TQEAAAAAas6G4QFR+i+Oot/3fg5GjIuwnewPW7Hbf6j3D0FciCHZ9aOj&#xa;WqR/b+/7AAAAAAA0iyO3nnunvf0BrvZ+LkaMC3B1Gjxi1OCCMy+xMop9rDM9&#xa;+wvehR+gTqztbr9Lzqt2z54URI8LSf8qiJ6850xkmwpJ/z2KzcRk793zb3tr&#xa;EH1TFHvt6P939QlhWmPc2L+j998CUEdybuUcG+Wa6HF7cy/n4Fv2TIjbf4xy&#xa;VHTz3pzdmHM4JH1NTIPnd9LgcXFzP6zqzR3s/bcA1ImcVzHpf7s/HyOmeZj7&#xa;WJzav+ue4E2m7j8IcT+GpDs63cEzvQs9QNVZ25s7Ikr/efnlIYh9KIpeMNZ8&#xa;zcsiRb8axabzUZyrpwdHtmaGy73/boBKMDNcnnMm9PSlIVk3Jv3aeJca6+4o&#xa;2s+TBXmiL99XV/Xm7uf9ZwNUnXayJ0bRb3g/LyPG/RhE524O2tHXnRL8KMRb&#xa;KXpplP6fHzV19h1cKztARVk9PbhvR+x388tESLbTI49DsstDss/lL5JtGTw2&#xa;76H0vi4ApWBmuDx/nd/ztT7niF3hc7/VbwXRt0UZPCuvCPK+LACVZGa4PHbt&#xa;ZSHZj9yfnxHTbSg2c3O85hcs9x+EeEtFbwhJ/3XN1I57uRZzgAqybur8FTHZ&#xa;CaNuxWU8tkj0B3mFwN6vjyxJhkaRYz7Hfs6BUS545+Nt9dkR+3huFNWeGhzm&#xa;fb0Aqsaq3tzdRlvlkl3nnc+I8ZaKvfbmQO3I7KPcfxDiTYp+ZrRsGADmzcqZ&#xa;XYdEsRdG0U/nCTT3PF7A6oB8vnK+D3lfQ4BJMnrWEts6ivnq3I+vDqL/1RZ7&#xa;Dlt5ABbG2u7OtSHph93zGDHtcbQK8ybyMWpB7CfePwobrtiu3NzItVoDVIy8&#xa;fzd3Iq7FkkOxc4LY8bk5rfd1BRhX877Y02Oj2Bfd82uJhqTfy7Vm3Zbz7ul9&#xa;XQGqRG6wG0W/6Z3D2GyD2BXrZ7Yd9HPBOWoGVYIfh80zJPtpTHYiHcQB5k9e&#xa;JRNF31PHJYZ5MiMk/XteNKCq5NiNYn9Xi4m5W+fn5UHsne0tg8O9rzNAVRh9&#xa;bO3pn4akF3vnMFpD1Y/eKjBD0lf4/zBslro7iAodiAHmT0dm2yHZqc04vlUv&#xa;C6Kvy+cte193gAWcDf66HLv++TNZQ7Jr8j5nevUALHByMNkpo14bJchjtOYo&#xa;9spbBWRI+sBSNovCmqpnhc12lEv1BahoN/8o9o4gdq1//ha/9DjK4I85DQTK&#xa;So7NHKPjPbKvGo62kIq9Yf0p2+7sPQ4AVSFs1geFZJ/wzl+0xrhm047VtxmM&#xa;Uexs7x+HNVf0gpD0t1vD4bLCqy1AVfcQi72WPi2j+tHPeym9xwTglnRk8OSY&#xa;TN3zw9mQ7MJ8cgDHfALMn5j6x0TRWe/8Rau3ot/YTxDaie4/EGvp6GxjsTfk&#xa;TuWFVlaACpM7bwcx887fUil6YxD9t3hq/67e4wPNJsdgTDbF6slb5ehXQ9LH&#xa;eI8PQFXIjdmC6KubsHUIzcVOstfvMwA7m2cfUKXjo7AC5gcjsZkjujtXFVpN&#xa;ASpMZ3r2F6LYx9zzt+zbAlL/GO+xgmYSu/2n5BVt3nlQZkPS09f25o7wHiuA&#xa;qrB+etc9QtKNvIthHKeiN+5z+f9NjM6Q9v6hWAtDsq/EXv+XC6ucABUnSv/e&#xa;o6/b3PwXMsE4zbGBUBQ51nLM8dV/vuqV+ehAchRg/nRk5y9FsTP98xdjPTzj&#xa;doOu3bPfKcEPxQobxL4bevoH7PMHWMDyv6SviqKXeudvFQ3J/pcjyWDS5JVs&#xa;Oda8472Siu2KafB8ngsA5k8n2XNDsoF7/uKw2g6eP69OtvkFzv/HYtXM3cnz&#xa;0qW13e13KaQyAtSlgZjYNu/8rbpB7MftZE/0Hk+oJ500eFxMepF3nFde+gMA&#xa;LPyEkWQn0AgY42IU/X7+yDSvYIvJNrj/YKyWYjPs9QOYPxwBNH5DsuuC6J94&#xa;jy3Ui5D0FTm2vOO7Nu7ZPrFlbXf7/b3HFqAqrJs6f0VImmLS3e45jMOqGJL+&#xa;zYL2oeZ9W94/Giug2Dmd7uzjJ1r1AGrEui3n3TMmOyUku949f2tqEHsnR5HB&#xa;ktkwPCAkfZd3PNfVkOzyIPo6TgcCmD/trj08in7BO3/Ryq/oVaunB/ddUICF&#xa;pP/i/sOx1Mtt85Kk1sxw+cSqHECNOHrDmQcGseNDsh96528TDKKnUZ9giS//&#xa;yTuOm2BI9p0gehz9AQDmTz4FJyTb6Z2/aKU1iL5twYGVl2ZF0au9fzyWcp//&#xa;P3IGN8D8CT19Wkh2nnf+Nk6xrUwCwIKZGS4PyU51j9+GGUQ/H5I+zHv4AapC&#xa;Xj0Txd4YxK7wzl+0UhmSXRM39VcuKrBisn/2/gOwPIakn8rnk4+9ggHUlNVb&#xa;Bmtyfwzv3G24781NlLxjASoCL/9lONpz66re3P28QwGgKow+2iaboj8Axr2G&#xa;ZG9ddECtn951jyh6ifcfgd7qt9o9e9JYqxVAjTn8tAvunrdR0TisNL6XngBw&#xa;u2wYHpBjpQTx2nj3djw/MW7s39E7LACqQuz1fzkk+4p3/qI5q5flflNLCqbR&#xa;2dTufwh6GJL9KMrgj/Pe5bFVJ4Aak3Ml58wod0qQw3jLeqb/6B0fUG6i2D95&#xa;xyn+n7wVs7bYc7xjA6AyDIfLQk//gCPdG+2J42pc9fUS/DFYkHu7k0+tmdpx&#xa;r7EUI4AGkM+gj6Lf8M5f3LedZH/kHSdQTmIavMg7PnG/ntGRnb/kHScAVWHF&#xa;1IWHBtGTcif4EuQvpoIU27Z+ZttBYwmizvTgkewrac4+/3bXHjyWwAFoAGFa&#xa;I/v8q2HekpEnarxjBspFPso2N7j1jk+8PXV37g+w4GOtABpMbgSX82bUX8M9&#xa;hzFOuEa2e/YrYw2gfK6y/x+GkzKIbm8ne8ZYgwagxrSnBoflJcO8OFTLkPTi&#xa;drKOd/xAOVjTm1tHr6OKKXpp3p46tq9cAA2gkwaPi2LnuOcvDifoKWMPnCO3&#xa;nnunKDpbgj8Ox2l+8BF7JV2yARbQJbynL42iP3DPX1yk+q1VvbmDvUMJ/I/Q&#xa;4njOCpufSWXwLO84AqhUo1PpvziKft89f3E4TkPSHXnbx0TipiOzj9q7P9z9&#xa;D8UlKnpDSPou9vkDzJ/Q01+lJ0o9XNIROVALotjbveMQx5LLn4jSX+8dTwBV&#xa;IZ7av2sQPXl0VnwJchhtqTXw+rxdf7JBk49lKcEfi0vyjNXTgyMnGigANSIk&#xa;feBoD51/7uLY1N30A2guMQ1+jT2x9WteHKV/b+/YAqgKPNtYLcxboiYfLcPh&#xa;spj0v73/WFyUGnt67OSDBKAe5K1Pe7voXl2C/MUxm49JWj+96x7ecQbFsqo3&#xa;d7cotss7/nAC7unncCL9AQDmT+jqE0LSc93zF4cLr3n2gfxuXkigHH7aBXeP&#xa;on33PxrnZRD7SRR7bdzYv2MhAQJQi31y9kL2ydXfkPTd3uEGxRKTvdc77nDS&#xa;eW3nhaRP9Y41gMowM1weu/aykOyH3vmLNt869+28naPQOOnIbDsk+5H3H4/7&#xa;MS9vFNu6qjd3v0KDA6DC7Dn21L7knr9YmLwoNIfcNM473rDQ3P5U2KwP8o47&#xa;gCqtkKI/gJXeIPbjfAy1Z0MsjsAqoUH08yHpw1wCA6CCHNHduSqK/Qf7gpuo&#xa;fit//fCOQZgs+bSbfOStf7xhkYZk1+Wmn/nFxjsGAarC2u7OtSHph73zF+3W&#xa;il7d7tmvuAZIW+zpzBKVx5DsO0H0uML2gwBUnHxsyt59/ld55y862rWXecci&#xa;TJaO2J+5xxm6GZJeHJOdcPSGMw/0jkWAqtDu2ZOi6De98xdtj6I3ROk/r1UG&#xa;Osmem2dY3S9Ko9Ur80tMPtfYOx4AKkFuaNrTY2PS8/3zF73N+x7bU4PDvMMS&#xa;Jte7KC+Z9I4z9DevAskfr7xjEqAq5EmzIHY8/QGsDFu7X9gqE3k2Yu8xLP4X&#xa;qHnBMJOXL3vHAEBVWJ0Gj4hiX3TPXyyVIek/eMcmTIYg+jbv+MLy9QeI0l/v&#xa;HZsA1ZpI1ZPZ/m1OX/5L9vJ/E7E7+L3RD/S+SA0xJPtKR2Yf5T3uAFUhbuqv&#xa;zF3f2eePt6no1TRNrWves0oRb21+kQlJ/7HwTtoAFSY31gzJPuGdv00xjD6w&#xa;D57fKjMdsd9lZmjCgSD23Sj932efP8D89/lHsTfmrTLe+YvlNoi+yTteYbyM&#xa;XvBKEFtYZvWikPQl+QhY73gFqAox9Y+JorP++Vtn9cqQ9NmtKhC6+oQoeqn/&#xa;RauZolflpTdru9vv4j3GAFW6QQXROff8xco0Cjty67l38o5bGA/5fsnzCM7X&#xa;kOx/o/SP9o5bgCqdrpKba1JnbQL1SC9uy+CxrSrR7tqDg5h5X7xauGe58nvZ&#xa;5w8wf9jnj4tWBn/sHb8wHqLYK93jCStnSPa+NZt2rPaOX4CqEKV/75hsiq3g&#xa;Nh7FtoVpja0qkvdURbEPuF/EKit2Tqc7+3jvsQSoCuumzl8xugkl3e2ev1hN&#xa;RfssBa4BM8PlIdnAPZ6wyv0BNtIfAGD+dKZnfyGKfcw7f6tsSHp69U8lyjfg&#xa;PWdsMyO0EEW/H6X/Yh5CAebHqt7cwSHpX4Vkl7vnL9bA/jHeMQ1LP53IP46w&#xa;6oak3+t07QU8jwEs+Ih4JmDTgicdX1OrHm+5Wz2BMI/BT3ZdnnGu/swPQMH7&#xa;/KkvOF7f6x3XsDRisg+WII6wTisy0+Bx3nENULX+AEHsJ+75W3JD0h0h6cNa&#xa;dWRVb+5uIVmXI7j2odj74+Z+8B4ngKoQu/2HhmSfc89drKF6Jc0AK/+8cY1/&#xa;HGGtzM+vou8JSR/oHeMAVdqaGZImtmbabdWUG0Kyt+bTqlp1pyODJ4dkO90v&#xa;elkU/Wa7Z0/yHheAqrB6enDf0WQiNxOcoO2e/Y53rMPiiGIv9I4frP3RXH/d&#xa;iId2gDERNttRMelZ/vlrJVG/FXv9X241iZUzuw6JYm9o8rncIdkPR92mZ4bL&#xa;vccDoArEjf07RrHXspwMC1Hs/d4xD4sjJPuEe/xg7Q3JvhO7g9+r1Z5dgEky&#xa;HC4LSX87Jj3fO3+jl6KXdsT+7OgNZx7Yaip5GVUU3dykJoFB7Iog+iY6ywLM&#xa;n7bYczhaFAtV9Gr6sVSP9la7T0h2vXv8YGMMYl/uTA8e6R37AJVq3Cz66nzW&#xa;fWPqRLJrRieLSP/e3te/bMdGzNR7Sa9eGUTflvfCeF9vgKqwenpwZBT9jH/+&#xa;YhMNor/lnQOwMFj+j379AWxrZ/PsA7xzAKBa/Vr0r6PoJe45nCbY4F1Ujuju&#xa;XOV9vUvL2u7OtVFsU62a94heEkRPzl8lvK8vQFXIM6RB9N+atDoIS+kp3rkA&#xa;CyMk7ZUgbrCh5lWenWSvz1tdvXMBoCrkVdFRBn8ZxL5bm1qQ7KdR7C00DV1g&#xa;k69RIFT4aK+Q9NzQ05fSJAZg/qyf2XZQSPqqvEfKO4cRc5NW75yAhVHl5was&#xa;k3r+aAUR/QEA5k3eFx97emxI9tnKnhon+s2Q9BVsIVwKG4YH7Dk1QHuVeCEQ&#xa;/UFe5l/bsxwBJkiUwbOi6Kx7HiPerO5eP73rHt65AfMjbuqv9I8ZxJ8ZRD+f&#xa;u5975wZA1ejIbDsm21CN/k96URR7R+jqo72vWy07gIeu/vpoi0CJlojkrw35&#xa;DMco/aPp6A+wcMJmfRBdu7Gs5vuOd47A/Ihp8HzveEG8tbo77wFe1Zu7n3eO&#xa;AFSRjuz8pSj2xih2dln6xQUxyx99R0e58/5XEMPhshwM+RiFkOx9UfT7BQ/4&#xa;aSHpS/LslPelAKgq67acd8/RjCkdu7HMiv2Td67A/Bj1DfGOF8T97gke/GX+&#xa;oOWdKwCVfnbsDn4z9+iJSb8WxK4tJH9ltBJhS97enXvWeV8H2EvuvNrpDp4Z&#xa;kv7V6GjBpGeFpN9bzB6S3LExiu3KS7f2rDjQV8du/yk56Lz/ToCqc9TU2XfY&#xa;M3nXnONfsMKKfto7Z2B+hKT/4x4viPNYOdpJ9lzvfAGoA3lCbXUaPCKfAJOb&#xa;rkexD+Q+bHlb9iJy8/Iguj0m/ejoA1VP/zSv8GY/fxWZGS7PR+/tOU6sf3Tu&#xa;KRCl/7zcZOImQ0+flvdt5KXIo2P6aNoCMBFGuZbsPO8HMMR5K3qBd97A/Kjz&#xa;UVJYS8/Iq1m98wagzpMD+b1uTW9uXUdmH5XfATu3MPfn6PRmH9LeMjickzsA&#xa;AMbM6i2DNVFspgQPXIgLVHfzYFCNo0P9YwVxoeruKLY1n37lnUMAAAAAS2ZV&#xa;b+5ueUlWSHaN/4MW4iKV/nrvXIL90+7Zr7jHCeIi3bv0+CT6AwAAAEA12TA8&#xa;IIget5g9WIhlMyR9tndKwf7J+z+94wRxDGremuqdTwAAAADzZtRnI+m3SvAg&#xa;hTgWO137C++8gv0Txf7OO04Qx2UQ/WTuS+WdVwAAAAD7JExrZJ8/1lKOAiw9&#xa;+Zx19zhBnEB/gPZWu493fgEAAADczPpTtt05711knz/W1Xy+vHeewf4Jyd7n&#xa;HSeIE3HP6RYnrp/ZdpB3ngEAAECTuWmff9KL3B+QECdoED3NO91g/0Sxj3vH&#xa;CeJEFZ2NMniWd64BAABAAwk9/dUg9nX3ByLEAgxiH/LOOdg/MdmXvOMEsQhD&#xa;0k+1u/Zg75wDAACABhCSPjDvSYyiN3o/BCEWptiZ3rkH+4fGo9gkQ7LrY7Kp&#xa;NVM77uWdewAAAFBD1na33yUk/fsoerX3gw9i4Yqd7Z2DsH+i6AXucYJYsCHZ&#xa;j2Lqv/zoDWce6J2DAAAAUAeGw2Wjff6i3/d+0EF0U/Qb3qkI+yck/Z57nCA6&#xa;GUS3t5M9wzsPAQAAoMJ0pgePZF8tIhMAVYAJAMQ9/QGi9Nd75yMAAABUiLip&#xa;v5J9/oi3kAmA0sMEAOIeQ7LrQtKN7anBYd55CQAAACVmxdSFhwbRk6LoVd4P&#xa;MIilkgmA0sMEAOLPG8R+HJOd0Jr5/+3df5SkVX3n8Z4ZfioqgiLISNN1b3UP&#xa;TUTNqKhJgCBRE8XsmsVokiU5G8N6kk3IibshP86eZmNMSE7iZiKbTU/X91b3&#xa;EPzRbtZsMLouIgr+FpVIO0zX99Y0tBLBH4AICgwztedpZgjgTE//eKq+93nu&#xa;+3XO+5+cYw7T9dTt6k/3U9XbZP38BAAAKen1Nvi2XuSD3mb9goUoyRgAkscA&#xa;QHTwXIg7XdBXWz9HAQBAAkZC9yVe4qesX6AQJR0DQPIYAIiWzwW9pinzDevn&#xa;KgAAMNCcnj+1+AxhH3Sv9YsSouRjAEgeAwDR4XMSHyreH8Bf1Xm69XMWAAAM&#xa;wObZxWN9iJe5EO+zfiFCVJkYAJLHAEC08orni5N4Ce8PAABAjfnQudCJLli/&#xa;8CCqXAwAyWMAIFpDEr/YDN2fsH7+AgCAErnpuNWJ3mD+QoOoqjEAJI8BgGh9&#xa;7w8wun3XiPXzGAAArMOWydtOWbrPX/QR6xcXRJWOASB5DABE60z0+070irHW&#xa;rU+zfj4DAIBVGJ+dO6r47F8n8bvmLyiI6hADQPIYAIjKyYV4x9L7A0z0Nlo/&#xa;rwEAwEru8w+xa/0CgqhWMQAkjwGAqOz0C412/DHr5zYAADgI3+q8yIX4CfsX&#xa;DEQ1jAEgeQwARH1IdJ+XOHt6a/ew9XMcAAAU9/nP7Dxx6TN9uc+fqH8xACSP&#xa;AYCon+kDxfsDjF85d5z1cx0AgCxtnbzpyOI+fx/0XvsXBkQ1jwEgeQwARP3P&#xa;Sfy6E714qNfbYP2cBwAgr/v8JUbrFwJE2cQAkDwGAKLB5YJ+zrX05dbPewAA&#xa;aq05NX+Gl/hh62/8RNnFAJA8BgAim/cHaMx0T7N+/gMAUCvjU4sncJ8/kWEM&#xa;AMljACCyyUm834lePtxeOMb6HAAAoB73+YveY/0NnijrGACSxwBAZJzERd4f&#xa;AACANWpK9wIvcc78GzoRMQBUAAMAURq5ED/ebM+/0PpMAACgEsZau8dc0A9a&#xa;fwMnosfFAJA8BgCilNK9XuKOkanuc6zPBgAAknTa1bc/s/iMXSfxIftv3ET0&#xa;hBgAkscAQJTu+wP4bZ2jrc8IAACScO7E9Uc4iZe4EL9p/Y2aiA4RA0DyGACI&#xa;kk59Wy+yPicAALC/zz/oLQl8Yyai5WIASB4DAFEFEr1uZKp7lvV5AQDAQI3M&#xa;dEeLz841/0ZMRCuLASB5DABE1Xp/gMaOeJL1uQEAQF8NtxeOX7rPP8QH7b8B&#xa;E9GKYwBIHgMAUcV69COOL+P9AQAA9TPR21h8Nq4Xvcv8Gy4RrT4GgOQxABBV&#xa;NNF53h8AAFAbjRDPL354MP8GS0RrjwEgeQwARNXOBb220Yo/Yn2WAACwJm5K&#xa;Pff5E9UkBoDkMQAQVT8X4h4f4qSXzrOtzxQAAFZk/Mq544rPvOU+f6IaxQCQ&#xa;PAYAoholercP8dLio5KtzxYAAJa/zz/onebfOImo3BgAkscAQFS/XNBdjRB/&#xa;xvp8AQDgCVxbz3MSv2z9jZKI+hQDQPIYAIjqW/H+AG5az7Q+ZwAAmXNBn1d8&#xa;lq0X3Wf9zZGI+hgDQPIYAIjqnQvxYRd0W/GRytbnDQAgM2ftuPmpxX3+XvQH&#xa;1t8QiWgAMQAkjwGAKI9c0O8U7w8wNNvbZH3uAADqrtfbsHSfv+g3rL8BEtEA&#xa;YwBIHgMAUV65EHe6tr7G+uwBANRUc6r7Uh/ip62/4RGRQQwAyWMAIMozF/Qa&#xa;P91x1mcQAKAm/PbOZu7zJ8o8BoDkMQAQ5duB9wfwV3Webn0WAQAq6pTJO57i&#xa;Q7zMhfg9629sRGQcA0DyGACIyIX4Ld4fAACwOr3eBt/Wi3zQ26y/kRFRIjEA&#xa;JI8BgIgeS+IXm635c6zPJQBA4kZC9yVe9JPm37iIKK0YAJLHAEBEB3t/gNHt&#xa;u0aszycAQGKa0/On+hAnfdC91t+siCjBGACSxwBARAfLSXyoeH+AsdatT7M+&#xa;pwAAxjbPLh67/z7/+6y/QRFRwjEAJI8BgIiWy4V4h5N4ydBEb6P1eQUAMOBD&#xa;50InumD9DYmIKhADQPIYAIhoZekXGtL9ceszCwAwIG46bnWiN9h/AyKiysQA&#xa;kDwGACJaccVHO0ucPb21e9j67AIA9MmWydtOWbrPX/QR8288RFStGACSxwBA&#xa;RKtPH3CiV4xfOXec9RkGACjJ+OzcUcVnwjqJ37X/RkNElYwBIHkMAES01pzE&#xa;rzvRi4uPgrY+ywAA673PP8Su9TcWIqp4DADJYwAgonUn+nnX0pdbn2cAgFXy&#xa;rc6LXIifMP9GQkT1iAEgeQwARFTm+wM0ZrqnWZ9rAIDD2DKz88Tis165z5+I&#xa;So0BIHkMAERUZk7i/U708uH2wjHW5xsA4Em2Tt50ZHGfvw96r/U3DCKqYQwA&#xa;yWMAIKK+JHGR9wcAgNTu85cYzb9BEFF9YwBIHgMAEfUzF+JnmzJ/tvVZBwDZ&#xa;ak7Nn+GDfsj6GwIRZRADQPIYAIio/+leL3HHcHvhZOszDwCyMT61eAL3+RPR&#xa;QGMASB4DABENKt4fAAAGeZ+/6D3WBz8RZRYDQPIYAIjIIPVtvcj6/AOA2mlK&#xa;9wIvcS6Bg56IcowBIHkMAERk2MdGprpnWZ+DAFB5Y63dYy7oBxM42Iko5xgA&#xa;kscAQEQpvD9AY0c8yfo8BIDKOe3q25/pRK9wEh+yP9CJKPsYAJLHAEBESfTo&#xa;raqX+W2do63PRQBI3rkT1x/hJF7iQvym+QFORHQgBoDkMQAQUVKJdnh/AAA4&#xa;3H3+QW8xP7CJiJ4cA0DyGACIKMlEP9oI3edbn5EAkIyRme6olzhrfkATER0q&#xa;BoDkMQAQUaq5EPf4ECe9dJ5tfVYCgJnh9sLxS/f5h/ig9cFMRLRsDADJYwAg&#xa;ouQTvbt4f4Dx2bmjrM9MABicid5GJ3qxF73L/CAmIlpJDADJYwAgoqrkgu5q&#xa;trqvtT43AaDvGiGeX7yQtj54iYhWFQNA8hgAiKhqyU87lAAAIABJREFUuaDX&#xa;umk90/r8BIDSuSn13OdPRJWNASB5DABEVMVciA+7oNuKW2Otz1EAWLfxK+eO&#xa;c6KXc58/EVU6BoDkMQAQUZVzQb/jQ7x0aLa3yfo8BYC13+cf9E7rA5WIaN0x&#xa;ACSPAYCI6pALcadr62usz1QAWDHX1vOcxC9bH6BERKXFAJA8BgAiqlMu6DV+&#xa;uuOsz1YAOCQX9Hle4g4vus/60CQiKjUGgOQxABBRXd8foDHZfYb1GQsAjzll&#xa;8o6neInv8KI/sD4oiYj6EgNA8hgAiKi2iX7Dt+JbeX8AAOZ86FzoRBfMD0Yi&#xa;on7GAJA8BgAiqnvFLbaupS+3Pm8BZGi4vXCyl/gP1gchEdFAYgBIHgMAEeWR&#xa;7nUhvnPz7OKx1ucugEy4oD/vJH7b/gAkIhpQDADJYwAgopxyQXc1Zf5s67MX&#xa;QI0NtxeOKd6IxPrAIyIaeAwAyWMAIKLcciHucaKXFx+/bX0GA6iZ0fbCFh/0&#xa;FuuDjojIJAaA5DEAEFHOHxl42tW3P9P6HAZQE77VeZUXvcf6cCMiMosBIHkM&#xa;AESUedqcmj/D+iwGUHGurb9Z/HlRAocaEZFdDADJYwAgouwTvbsp3Qusz2MA&#xa;VdTrbSjuKTI/yIiIUogBIHkMAERESx8V+FDxht3WZzKAKpntbXIhtqwPMCKi&#xa;ZGIASB4DABHRgXSvb8W3Wp/LAKpgorfRhzhjf3ARESUUA0DyGACIiB6X6L7i&#xa;Vl7rsxlA+n/2/7fmBxYRUWoxACSPAYCI6CAjgOhvWJ/PABLlgv5384OKiCjF&#xa;GACSxwBARHSQRPc1Qvxl6zMaQGK8xN81P6CIiFKNASB5DABERAfPhfiwC/pq&#xa;63MaQCKc6BuLddD6cCIiSjYGgOQxABARHToX4n2N0H2+9VkNwNjIVPcsJ/F+&#xa;60OJiCjpGACSxwBARLR8TnRhdHLXs6zPawBGxqcWT3Ah7rY+jIiIko8BIHkM&#xa;AEREK0j0o8VHfluf2QAGrdfb4CV+wPwQIiKqQgwAyWMAICJaWU70cuszG8CA&#xa;NSX+lvXhQ0RUmRgAkscAQES00nRvI8Tzrc9tAAPipvVMF+KD9ocPEVFFYgBI&#xa;HgMAEdHKcyF+rTHZfYb12Q2g3yZ6G73ET1kfOkRElYoBIHkMAEREq8uF2LI+&#xa;uwH0mQv6n60PGyKiysUAkDwGACKiVbb0MeDdn7I+vwH0id/e2exC/J75YUNE&#xa;VLUYAJLHAEBEtPqcxDjcXjjG+gwH0Ac+xPdZHzJERJWMASB5DABERGvLBf0D&#xa;6zMcQMmarflzrA8XIqLKxgCQPAYAIqK15STe35yeP9X6HAdQIhfiJ6wPFyKi&#xa;ysYAkDwGACKidTVpfY4DKEmz1X1tAocKEVF1YwBIHgMAEdE6En1ktL2wxfos&#xa;B1ACL/Em80OFiKjKMQAkjwGAiGh9uaB/Z32WA1in4qM9rA8TIqLKxwCQPAYA&#xa;IqJ1JvqIn+446/McwDq4oNeaHyZERFWPASB5DABERCUk8V3W5zmANXLTeqb5&#xa;IUJEVIcYAJLHAEBEVEb6wHB74XjrMx3AGniJf21/iBAR1SAGgOQxABARlZNr&#xa;629an+kAVmnz7OKxXvRu6wOEiKgWMQAkjwGAiKicXIg7h3q9DdbnOoBVaEp8&#xa;s/XhQURUmxgAkscAQERUYu3Oy6zPdQCr4IJeY35wEBHVJQaA5DEAEBGVlwu6&#xa;zfpcB7BCp119+zOdxIesDw4iotrEAJA8BgAiohITvevcieuPsD7bAayAl84v&#xa;mR8aRER1igEgeQwARETl1mzNn2N9tgNYARf03dYHBhFRrWIASB4DABFRubmg&#xa;f2Z9tgM4nNneJifx29YHBhFRrWIASB4DABFRubkQv2p9tgM4jJHQfYn1YUFE&#xa;VLsYAJLHAEBE1Ie2dzZbn+8AluFE32Z+UBDVMBfiHi/6iPV/BxnFAJA8BoDM&#xa;z+cE/juI6ljx0eLW5zuAZTiJ/2h9UBDVLtGPNkL3+dxek3EMAMljAMg3F+LO&#xa;psyf7SR+xvq/hahuuaB/Y32+A1iGC/Gb1gcFUW0SnffSfd1jzy8GgHxjAEge&#xa;A0DeA8DSRTDR2+iCvsUHvdP6v4moLjmJX7Y+3wEcggv6POtDgqgWid7jQ7zM&#xa;b+sc/YTnGANAvjEAJI8BIN8eGwD2O2vHzU91opd70R9Y/7cRVT0n8aEnvx4C&#xa;kAjX0tdbHxJE1U73eok7Rqa6zznoc4wBIN8YAJLHAJBvTx4ADmjMdE8rznTr&#xa;/z6iytfqvGjwpzqAw3JBf9/8gCCqaqLXjUx1z1r2OcYAkG8MAMljAMi3Qw0A&#xa;BzTa8ZVe9CvW/51EVc219d8P7jQHsGIuaLA+IIgql+jtTvTiFT3HGADyjQEg&#xa;eQwA+Xa4AeCx9wcQvdiL3mX930tUtYpbagZykANYHSd6g/UBQVSVnMT7i29o&#xa;w+2FY1b+HGMAyDYGgOQxAOTbigaA/YbbC8c70StciA9a/3cTVSUX9O/6e4ID&#xa;WBMvcdH6gCCqyH3+U4e6z385DAAZxwCQPAaAfFvNAHDAWGv3mBf9J+v/dqJK&#xa;JPFT/Tm5Aaxdr7dh6V06rQ8IooRzIX7WtzsvW+vTjAEg4xgAkscAkG9rGQAO&#xa;4P0BiA6fC7Fb7okNYN3GpxZPsD4ciFLNhfi1pfv8e70N63meMQBkHANA8hgA&#xa;8m09A0Dh3Inrj3ASL3EhftP630KU6m2T5Z3WAEoxMtMdtT4ciFLLhfg9F/QP&#xa;VnOf/3IYADKOASB5DAD5tt4B4IAtMztP9CFe6ULcY/1vIkqtUybveEoZzzMA&#xa;JXFBf9T6YCBKJtF9XuJs8RnQpT7PGADyjQEgeQwA+VbWAPD49wdwQT9o/e8i&#xa;SirpPLvM5xmAdWqG7k+YHwxEKST6eRf0Ff14njEAZBwDQPIYAPKt7AHggKZ0&#xa;L/AS56z/fUQpdHpr93A/nmcA1si3Oq+yPhiITJO42JT45vXe578cBoCMYwBI&#xa;HgNAvvVrACiMz84d5UTf5oPea/3vJLJstL2wpV/PMwBrwABA+aYPFJ/pPH7l&#xa;3HH9fp4xAGQcA0DyGADyrZ8DwOPfbNkF3eZFH7H+9xJZVNwa0+/nGYDV/pla&#xa;AocD0aDv8x/kn6QxAGQcA0DyGADybRADwAHNqfkzvMQPW/+biQZdI8TmoJ5n&#xa;AFbAtfU864OBaFC5oJ/z7c7LBv48YwDINwaA5DEA5NsgB4ADmiG+ofhsdOt/&#xa;O9HAmu64QT/PACxjJHRfYn4wEPU5F+IdxWc1D030Nlo8zxgAMo4BIHkMAPlm&#xa;MQAUtk7edKQP8VIn8bvWXwOiftfYEU+yeJ4BOITivhzrg4Gob4l+v7jPf6x1&#xa;69Msn2cMABnHAJA8BoB8sxoADhid3PUs3h+Aat+2ztGWzzMATzLcXjjZ/GAg&#xa;6sd9/iG+L5WPnmEAyDgGgOQxAOSb9QBwgJuOW33QG62/HkRl50J80Pr5BeDJ&#xa;ZnubXIh7rA8IotKS+MVma/6coYQwAGQcA0DyGADyLZUB4AAfOhe6EHdbf12I&#xa;Skv0duvnFYCDcBK/bn5AEK0zF+K3insqi1FrKDEMABnHAJA8BoB8S20AKGye&#xa;XTzWh3iZC/E+668P0bqT+Cnr5xSAg3Ahftb8gCBax5+XuaB/an2f/3IYADKO&#xa;ASB5DAD5luIAcEBzev5UF+JV+29pM/9aEa0lF+L7rZ9LAA7CBX239QFBtJZc&#xa;0GuaMt8YShwDQMYxACSPASDfUh4ADmi04ou96Cetv1ZEa6l4I2br5xCAg/Ah&#xa;TlgfEESrfdHmgr56qCIYADKOASB5DAD5VoUBYEmvt8G39SIf9DbrrxnRamqE&#xa;+MvWTx8AB+GC/rz1AUG0okTvchIvSfE+/+UwAGQcA0DyGADyrTIDwH5n7bj5&#xa;qS7oHxUfcWv9tSNaSU2ZP9v6eQPgIEbbC1usDwii5XIhPlx8VnJjsvuMoQpi&#xa;AMg4BoDkMQDkW9UGgMe/P4CXuIP3B6CkE32kGK2sny8ADvWnZaL3mB8URAfJ&#xa;Bb3WS2d8qMIYADKOASB5DAD5VtUB4IDmVPelPsRPW38diQ6a6FesnyMAluFD&#xa;/Jj5QUH0uJzorY0Qf2aoBhgAMo4BIHkMAPlW9QHgCe8PIHHR+utJ9PicqFg/&#xa;PQAsw4m+3fqgICpyQb/jQ7z03InrjxiqCQaAjGMASB4DQL7VYgB4/PsDiF7u&#xa;RX9g/XUlerTuf7B+XgBYRiPE8+0PCso5F+IeH+Lk6OSuZw3VDANAxjEAJI8B&#xa;IN/qNAAc4II+j/cHoBQaay+cbv18ALCM4fbCMazGZHmff6MVf2SophgAMo4B&#xa;IHkMAPlWxwHgANfW85zEL1t/jSnPnMRo/RwAsAJe4oetDwzK8D5/iT89VHMM&#xa;ABnHAJA8BoB8q/MAsGS2t6n46NziI3Stv9aUXVdaX/4AVsC34lsTODAoh0Tv&#xa;9iFeNj47d9RQBhgAMo4BIHkMAPlW+wFgv/Er544r3h/Ahfig9dec8qgp3Qus&#xa;r3sAKzDWuvW53DNG/U33FvcmNnbEk4YywgCQcQwAyWMAyLdcBoAD3JR6L3HW&#xa;+utOdU/vzeUXPEAt+KA32h8cVMtErxuZ6p41lCEGgIxjAEgeA0C+5TYAPOGN&#xa;n0X/2frrT/XMBQ3W1ziAVVi6VyyBw4NqlGin+IzioYwxAGQcA0DyGADyLdcB&#xa;YMlEb6MTvZj3B6CyK96A0vryBrAKw+2F4/k0AConvdeJvo0/A2MAyDoGgOQx&#xa;AORb1gPAfuNTiye4oNtciA9bPx5U/ZzoQjEuWV/XAFZp6fNjEzhEqNr3+Y9M&#xa;dZ9jfS2nggEg4xgAkscAkG8MAP9qZKY76oJeY/2YULVzQf/A+loGsAZNmT/b&#xa;+gChiibx+qbsfoH1NZwaBoCMYwBIHgNAvjEA/LDi3dt90FusHxuqXsWnTPDL&#xa;H6DCvOjnrQ8Sqk4uxG4zxDdYX7epYgDIOAaA5DEA5BsDwMFtnbzpSC/xt/d/&#xa;ZK/540QVSeIO62sXwDoUb9pmfpBQ8jmJ9xefLTzcXjjG+ppNGQNAxjEAJI8B&#xa;IN8YAFb8/gB7rB8rSjzRfbl+0hNQHxO9jV7inPmBQmkmuq9YeofbCydbX6pV&#xa;wACQcQwAyWMAyDcGgJUZbS9s8UE/ZP14UcJJ/ID1dQqgBEsfD2N9oFByOdEb&#xa;XNAftb4+q4QBIOMYAJLHAJBvDACr44L+rA9RrR83SizRfY1WfLH19QmgtM+I&#xa;jV82P1goiVyIXytGoaFeb4P1pVk1DAAZxwCQPAaAfGMAWOP7A4R4afFRv9aP&#xa;H6WRC/H91tclgBI1W93XWh8sZJ0+UNznv3l28Vjr67GqGAAyjgEgeQwA+cYA&#xa;sHZbZnaeWLw/gBd9xPpxJNPn0J7m1PwZ1tcjgJJ50eusDxgyus8/xJmx1q3P&#xa;tb4Gq44BIOMYAJLHAJBvDADr51udF7kQP279WJJREt9lfQ0C6IORme5o8dme&#xa;5ocMDfBA18+7oK+wvvbqggEg4xgAkscAkG8MAOXxoXNh8ZHA1o8pDTK9c7i9&#xa;cLz1tQegT7zEd9gfNNTvnMSvc59/+RgAMo4BIHkMAPnGAFCu8dm5o4r3B3AS&#xa;v2v92NIg6v6C9TUHoI+K+7+96Lz9YUP9vM//lMk7nmJ9rdURA0DGMQAkjwEg&#xa;3xgA+qO4ddCLTvuge60fY+pX+iHr6wzAALjpuNWF+LD9oUNl5oJeM9ZeON36&#xa;+qozBoCMYwBIHgNAvjEADOB1o+gN1o8zlZzoPS7o86yvLwAD4kP8Y/ODh8o6&#xa;wLnPf0AYADKOASB5DAD5xgAwAL3ehqbEN3uJi9aPN5VUq/uL1pcVgAE6d+L6&#xa;I1hzq50L8Q4n8ZKhid5G6+spFwwAGccAkDwGgHxjABjwraQhXuZCvM/6cad1&#xa;PGdExfpaAmBguL1wshf9hvUhRKs9tONDS5/Ze1Xn6dbXUG4YADKOASB5DAD5&#xa;xgAweM3p+VO9xB37P2rY/Bqg1aS38F5RQMaa0r3AhbjH/jCiFSVxlvv87TAA&#xa;ZBwDQPIYAPKNAcCOa+nLi1sRra8BWmGidzdCbFpfNwCMuaBvMT+QaNlciF9q&#xa;tubPsb5WcscAkHEMAMljAMg3BgBjvd4G39aLvOjt1tcCLfs82VP84s/6cgGQ&#xa;CCf6V9YHEx0svdNL51e5zz8NDAAZxwCQPAaAfGMASMP4lXPHLb3JtOgPrK8J&#xa;Okit+FbrawRASiZ6G13Qd5sfTrRU8TGNxX3+jcnuM6wvDfwrBoCMYwBIHgNA&#xa;vjEApMVv72zm/QGSa8L6ugCQoK2TNx3pgn4wgUMq8/R/++mOs74e8MMYADKO&#xa;ASB5DAD5xgCQpuLWxeIWRuvrI/skvsv6WgCQ+Me7uBA/Yn5Y5ZjoPzdCPN/6&#xa;GsChMQBkHANA8hgA8o0BIPm/MH3L0i2NCVwrueVE/7Z4jwbrywBA4sZn547y&#xa;Ej9gfWjlkgv6HR/ipUOzvU3Wjz2WxwCQcQwAyWMAyDcGgPSdtePmpzrRy3l/&#xa;gAE+L/jhH8DqRwB9j/XhVeecxIe8xL8cbi8cb/14Y2UYADKOASB5DAD5xgBQ&#xa;HcUtjvySaQBJfAc//ANYvV5vw9Jaa32I1TAX9Fo3rWdaP8RYHQaAjGMASB4D&#xa;QL4xAFSPa+lPuqA3W187tUv0ER86v279+AKoOCfxkqXfVlsfanVI4pxvdV5l&#xa;/ZhibRgAMo4BIHkMAPnGAFBRs71NxUfTuRC/ZX0N1SEn8bs+dC60flgB1IQL&#xa;+gpeXK0j0bt9iJcVt1ZYP5ZYOwaAjGMASB7fo/KNAaDailshnegVLsQHra+l&#xa;Cqf8ZSmA0m2ZvO2U4k/XEzjkKpML8WEXdNv41OIJ1o8f1o8BIOMYAJLHAJBv&#xa;DAD1MNbaPcbHUa8hibONye4zrB8/ALV+X4B4iQvxe+YHXuIVY0mjFX/E+iFD&#xa;eRgAMo4BIHkMAPnGAFAvjXZ8pRf9ivV1lXyi31/6FCkAGISx9sLpPsSPmR9+&#xa;KSY679t6kfVjhPIxAGQcA0DyGADyjQGgfs6duP6I/b9w+qb19ZVkop8s/mLC&#xa;+nECkJuJ3kYX9Hf2L5D2h2EK9/lL/O2tkzcdaf3QoD8YADKOASB5DAD5xgBQ&#xa;X1tmdp7oJb7LhbjH+jpL5Y3+nOhvFK/BrR8bABnz2zubXdDgg+7N9IXHw07i&#xa;/xid3PUs68cC/cUAkHEMAMljAMg3BoD6K97gzkv8v9bXmlmi+1zQ9nB74WTr&#xa;xwIAHtMI3ef7oB/K6jAW/fuRme6o9dceg8EAkHEMAMljAMg3BoB8+ND9KSfx&#xa;y9bX3ID7WHOq+1Lrrz0AHFIjxPNd0M8lcGD2c4W9pinzZ1t/rTFYDAAZxwCQ&#xa;PAaAfGMAyMxEb2NT4pt90Ftqfl1/thg8rL/cALBiDen+uJf43uJP5Gv0kX7v&#xa;bsruF1h/bWGDASDjGACSxwCQbwwAGQ8BIb7BSfyM9TVYWqL7vOg/ubaeZ/3l&#xa;BYA1G2vd+lwn+nYf9M6KvrC4w4c4sWXytlOsv5awxQCQcQwAyWMAyDcGADRa&#xa;8cVedLqyb0wtercT/avm1PwZ1l9LACiN39Y52kvn3znRq33Qe5N+MSHxfhfi&#xa;VS7oq4dme5usv3ZIAwNAxjEAJI8BIN8YAHBAY7L7DBf0LT7ojam/ObWT+FBx&#xa;S6kP3V/YPLt4rPXXDgD6anx27qiGxJ/2Erd70bvSeAGh/+IlTvnQuZCDGAfD&#xa;AJBxDADJYwDINwYAHOovUH0rvnXp0wMS+cuApY/xC/H9zVb8lfGpxROsv0YA&#xa;YGO2t6nZnn9hcUgXH3HiQvzqIFZbF+Lu4j0KfOj8On9yhZVgAMg4BoDkMQDk&#xa;GwMADme4vXBMox1f6SW+w0u83oV432CuT73XS/ywE/3DZmv+nOIXYNZfCwBI&#xa;9k+4mtK9oCnxt7zEv/QSZ4s3eVm6H794g5TV3FMV4lddiB/xIV7pRH+j+P/L&#xa;6oq1YADIOAaA5DEA5BsDAFZtorfRTeuZjXZ8kwv6R8XrTC/xJi/6jVW9ziwS&#xa;feTR/138lJe4w0v8r8WbEzZlvjHU622w/qcCQOUV62lzev5UP91xbjpu/aGm&#xa;1A+3F07mz/hRNgaAjGMASB4DQL4xAKDs15nF7QPFX4f6dudlj/5C6l8r/pLg&#xa;0decemZjRzyJH/IBAKgpBoCMYwBIHgNAvjEAAAAAoHQMABnHAJA8BoB8YwAA&#xa;AABA6RgAMo4BIHkMAPnGAAAAAIDSMQBkHANA8hgA8o0BAAAAAKVjAMg4BoDk&#xa;MQDkGwMAAAAASscAkHEMAMljAMg3BgAAAACUjgEg4xgAkscAkG8MAAAAACgd&#xa;A0DGMQAkjwEg3xgAAAAAUDoGgIxjAEgeA0C+MQAAAACgdAwAGccAkDwGgHxj&#xa;AAAAAEDpGAAyjgEgeQwA+cYAAAAAgNIxAGQcA0DyGADyjQEAAAAApWMAyDgG&#xa;gOQxAOQbAwAAAABKxwCQcQwAyWMAyDcGAAAAAJSOASDjGACSxwCQbwwAAAAA&#xa;KB0DQMYxACSPASDfGAAAAABQOgaAjGMASB4DQL4xAAAAAKB0DAAZxwCQPAaA&#xa;fGMAAAAAQOkYADKOASB5DAD5xgAAAACA0jEAZBwDQPIYAPKNAQAAAAClYwDI&#xa;OAaA5DEA5BsDAAAAAErHAJBxDADJYwDINwYAAAAAlI4BIOMYAJLHAJBvDAAA&#xa;AAAoHQNAxjEAJI8BIN8YAAAAAFA6BoCMYwBIHgNAvjEAAAAAoHQMABnHAJA8&#xa;BoB8YwAAAABA6RgAMo4BIHkMAPnGAAAAAIDSMQBkHANA8hgA8o0BAAAAAKVj&#xa;AMg4BoDkMQDkGwMAAAAASscAkHEMAMljAMg3BgAAAACUjgEg4xgAkscAkG8M&#xa;AAAAACgdA0DGMQAkjwEg3xgAAAAAUDoGgIxjAEgeA0C+MQAAAACgdAwAGccA&#xa;kDwGgHxjAAAAAEDpGAAyjgEgeQwA+cYAAAAAgNIxAGQcA0DyGADyjQEAAAAA&#xa;pWMAyDgGgOQxAOQbAwAAAABKxwCQcQwAyWMAyDcGAAAAAJSOASDjGACSxwCQ&#xa;bwwAAAAAKB0DQMYxACSPASDfGAAAAABQOgaAjGMASB4DQL4xAAAAAKB0DAAZ&#xa;xwCQPAaAfGMAAAAAQOkYADKOASB5DAD5xgAAAACA0jEAZBwDQPIYAPKNAQAA&#xa;AAClYwDIOAaA5DEA5BsDAAAAAErHAJBxDADJYwDINwYAAAAAlI4BIOMYAJLH&#xa;AJBvDAAAAAAoHQNAxjEAJI8BIN8YAAAAAFA6BoCMYwBIHgNAvjEAAAAAoHQM&#xa;ABnHAJA8BoB8YwAAAABA6RgAMo4BIHkMAPnGAAAAAIDSMQBkHANA8hgA8o0B&#xa;AAAAAKVjAMg4BoDkMQDkGwMAAAAASscAkHEMAMljAMg3BgAAAACUjgEg4xgA&#xa;kscAkG8MAAAAACgdA0DGMQAkjwEg3xgAAAAAUDoGgIxjAEgeA0C+MQAAAACg&#xa;dAwAGccAkDwGgHxjAAAAAEDpGAAyjgEgeQwA+cYAAAAAgNIxAGQcA0DyGADy&#xa;jQEAAAAApXMhfsv6hS5Z/YChN1tff1ieC/EO6+uErJ6f8avW1x8AAABqhh8w&#xa;8s0F/Zz19Yfl+aC3WV8nZPX8jF+yvv4AAABQM050wfqFLlmlN1pff1ieD1Ht&#xa;rxOyyIX4WevrDwAAADXjgu6yfqFLVj9g6LXW1x+W54PeYn2dkNXzM37c+voD&#xa;AABAzTiJn7F+oUtGSZy1vv6wPCd6g/l1QlbPzw9YX38AAACoGRf0g+YvdMkk&#xa;F/RvrK8/LK/4IdD6OiGjJE5ZX38AAACoGS86bf5Cl6z6Y+vrD8srfghM4Doh&#xa;g1zQP7O+/gAAAFAzXuI7rF/okk3NEP+j9fWH5TnRy62vE7LJBf1P1tcfAAAA&#xa;asa19desX+iSUa3Oq6yvPyyv2Yq/Yn6dkEnNVve11tcfAAAAaqYp3QusX+iS&#xa;TSMz3VHr6w/Lc209z/o6IZvctJ5pff0BAACgZlzQ51m/0CWDHy4kPjQ+O3eU&#xa;9fWH5Y1MdZ9jfa2QwfMzxD3D7YVjrK8/AAAA1JCT+G3rF7w06B8w9Gbr6w4r&#xa;40Xvsr5eaNDPz/hV6+sOAAAANeVC/IT1C14a9A8Y+nfW1x1Wxot+1Pp6oYH3&#xa;PuvrDgAAADXlQnxnAi94aYC5oL9jfd1hZZzoFdbXCw28y6yvOwAAANSUb3V/&#xa;LoEXvDTAmlPdl1pfd1gZF/Rnra8XGmyNdvwx6+sOAAAANbVl8rZTrF/w0iDT&#xa;B7ZO3nSk9XWHlWnsiCd50X321w0NIhfig35b52jr6w4AAAA15kXnrV/40qB+&#xa;wNBrra83rI4Peov1dUODen7Gj1tfbwAAAKg5F3Sb9QtfGtQPGNz/XzVe4l9a&#xa;Xzc0oKT7e9bXGwAAAGrOtfU15i98aUA/YHTGra83rI5vdV5lft3QQGq2519o&#xa;fb0BAACg5jbPLh7rQrzP+sUv9TcXYtf6WsPqFfeE+6D3Wl8/1OckLg71ehus&#xa;rzcAAABkwIlebf4CmPr9A8afWF9nWBsvcYf59UP97i+srzMAAABkwrX09Qm8&#xa;AKY+xp8XV5cPnQutrx/q8/OTj+cEAADAIP/M2En8tvWLYOpTEuesrzGs3fjs&#xa;3FFe9C7z64j69PzUDn/+DwAAgIFyIb7T/IUw9ekHjPjb1tcX1odPA6hxEn/X&#xa;+voCAABAZppT82eYvxCm0nMhPrhlZueJ1tcX1qf4BAfra4n68vx8eLi9cLL1&#xa;9QUAAIAMedHrrF8QU+nNWF9XKIcX/WgC1xOVmeh7rK8rAAAAZKoR4s+YvyCm&#xa;UmvK7hdYX1coh5fu66yvJyr5+cmb/wEAAMBMr7eheMM46xfFVFISP2x9SaFE&#xa;E72NTvRW8+uKyupj1pcUAAAAMudD9xcSeGFMJdRszZ9jfT2hXF46v2R9XVE5&#xa;uZb+pPX1BAAAgNxN9DZ60X+2fnFM600/ZH0poQ9me5tciDvtry9aT070ButL&#xa;CQAAAFjSkPhvrV8g03rSvY1WfLH1dYT+cKJvtL/GaD012vHHrK8jAAAA4DG9&#xa;baXpAAAGk0lEQVQuxI9bv0imNSZxu/X1g/7yQW80v85orc/P91pfPwAAAMAT&#xa;NNvzL/Sij5i/WKZV5YJ+Z3Ry17Osrx/0lwv6o8Vfelhfb7TKRL8/1l443fr6&#xa;AQAAAH6IC/o35i+YaZU/YHR+1fq6wWA4UTG/3mi1TVhfNwAAAMBB+as6T3ch&#xa;fi2BF820glzQzxVv4mh93WAwxqcWT/BB77S+7mjFz89dw+2FY6yvGwAAAOCQ&#xa;XEtfb/3CmVbyw0Xc05TdL7C+XjBYjXZ8k/W1RytJ97qgr7C+XgAAAIDD8iFO&#xa;2r+ApuVyQX/f+jqBDS/6Huvrjw7z/BR9u/V1AgAAAKxI8WerLsQvWb+IpkMk&#xa;+lH+9D9fw+2F473o7ebXIR00F+Inzp24/gjr6wQAAABYsZGZ7qgL8T7rF9P0&#xa;pB8uJH7dS+fZ1tcHbLm2nlfcBmJ9PdKTEr1rrHXrc62vDwAAAGDVnOgbzV9Q&#xa;0xPv+w/dn7C+LpCGZiv+F+trkn7ovv9XW18XAAAAwJq5oP/T/oU1LSXd37O+&#xa;HpCQXm+DC/H95tclHeiPrS8JAAAAYF22Tt50pBf9pwReXOfeTPEDn/X1gLRs&#xa;nl081kn8TALXZ96Jvof35QAAAEBtfsjwQW80f5GdaU7iP/KmYjiU4j0hnMRo&#xa;fZ1mm+h1flvnaOvrAAAAACjN+NTiCS7Er5q/2M7wHcWLT2WwfvyRtubU/Bku&#xa;xG9aX6/ZJfr58SvnjrN+/AEAAIDSNafnT3WiC+YvunNJ9CunXX37M60fd1TD&#xa;yFT3LBf0O+bXbT7pyFT3OdaPOwAAANA3Y63dY17iYgIvvmue3rJl8rZTrB9v&#xa;VEtT5s/2ovfYX7+1T09v7R62frwBAACAvis+59oFvTmBF+G1rHhTty0zO0+0&#xa;fpxRTb7VeRG3A/QxiTc1dsSTrB9nAAAAYKDvCeBFP2n+YrxuSfxA8aaL1o8v&#xa;qm20vbCFv9QpPyf6/8Zatz7N+vEFAAAABq5452s+h7zEHy6Ctnm3f5SluIXE&#xa;B/2C9XVdl1zQ/8UbcgIAACBrxQ+sXuJfW784r3a614n+ofVjifo5a8fNTy3+&#xa;qsT+Gq9wovtc0D8dmuhttH48AQAAgCS4tv4bL3q3+Yv1ilW8a7tr62usHz/U&#xa;WK+3wYd4qQtxj/X1XrWcxG83W93XWj+EAAAAQHJGt+8aKT4X2/pFe4X69Fh7&#xa;4XTrxw15aIR4vhf9RgLXfUXSG/32zmbrxw0AAABI+pYAJ3p58Wft9i/g06z4&#xa;TawTvWLr5E1HWj9eyMtwe+F4F/Td1s+BCvzJ/zaenwAAAMAKNdrxlU70VvMX&#xa;84nlgn7OTcet1o8P8tYI8ZeL20+snw/JJXGu2Zo/x/rxAQAAACqn+A3a/nuP&#xa;7zN/YW/do++PcOnQbG+T9eMCPPZRniFOFr/xNn9+mKcPFH+5ND47d5T14wIA&#xa;AABUWmOme5oT/ftMf/Df50JsjU7uepb14wAcjGvreV7iF82fK3a9rzk9f6r1&#xa;4wAAAADUig/dnyr+BD6BF/wDyQW9tinzZ1t/3YHDmuhtLG4L8EFvy+f5GT9b&#xa;vDGi9ZceAAAAqDUfOhf6oF+w/gGgb4lex33EqKLiT+BdW3/NiS7U+Pn5eS/d&#xa;11l/rQEAAICseOmc6yT+Yx0+MWDpnf2Dvps3+ENd3r+j0Y5vqs1f7Dz6zv7X&#xa;FLc7WH9tAQAAgKyNbt814kTf7iR+vXI/+EuMLujvb5m87RTrryPQD77deZmX&#xa;OOUkfrdyz88Q7/AS3+GnO8766wgAAADg8WZ7m5rSvcBL3O5C/Fa6P1Tov3iJ&#xa;f92Q7o8P9XobrL9swCCcMnnHU3yr+4te4j940R9YPw8PmejdLmhwbX3NuRPX&#xa;H2H9dQMAAABwGMUL9+IWAS/xT1yIX7L9qDLdW/wptAv631xLX168YZr11wew&#xa;NNa69WlO9I1OVLzERfsf+uOcD/EvigGRj/IDAAAA6vCZ5dJ93aODgF7rRe/q&#xa;52/4XYgfcUH/qPgtor+q83Trfz+QsrHW7rFmK/6KD3HSBb3ZSXyoj4PcvT7o&#xa;jS7EdzZDfMPIVPc51v9+AAAAAH3W2BFPKt7Uq/jBo/jtvA9xxgX9oJP4GS/a&#xa;WfpIM9G7n9Cj/7d5H+Knl94ULGjbhzjhRC8u3rl/y8zOE63/XUAd/oJntL2w&#xa;xbe6P+dE3+aCbvMh/h8v+kkX4k4f9M79z8nHbiVwId736J/vF/ft61d8iB/z&#xa;Et/rgv65D51fL8a401u7h63/bQCAITP/H2hJFw0k0ZTOAAAAAElFTkSuQmCC&#xa;;imageBackground=#DEEDFF;" parent="uIToXqVDKAPkT3p9r34H-45" vertex="1">
          <mxGeometry width="64" height="64" as="geometry" />
        </mxCell>
        <mxCell id="uIToXqVDKAPkT3p9r34H-40" value="&lt;font style=&quot;font-size: 33px;&quot;&gt;&lt;b style=&quot;&quot;&gt;Snowflake&lt;/b&gt;&lt;/font&gt;" style="rounded=0;whiteSpace=wrap;html=1;fillColor=#DEEDFF;strokeColor=none;labelBackgroundColor=none;" parent="uIToXqVDKAPkT3p9r34H-45" vertex="1">
          <mxGeometry x="62" y="16.27" width="178" height="31.45" as="geometry" />
        </mxCell>
        <mxCell id="uIToXqVDKAPkT3p9r34H-27" value="" style="sketch=0;verticalLabelPosition=bottom;sketch=0;aspect=fixed;html=1;verticalAlign=top;strokeColor=#d6b656;fillColor=#fff2cc;align=center;outlineConnect=0;pointerEvents=1;shape=mxgraph.citrix2.site_database;fillStyle=auto;strokeWidth=2;" parent="1" vertex="1">
          <mxGeometry x="1943.6763529411762" y="-1062.9146938775511" width="118.03" height="130" as="geometry" />
        </mxCell>
        <mxCell id="uIToXqVDKAPkT3p9r34H-28" value="&lt;font style=&quot;font-size: 24px;&quot;&gt;Business-Ready Data&lt;/font&gt;" style="text;html=1;align=center;verticalAlign=middle;whiteSpace=wrap;rounded=0;" parent="1" vertex="1">
          <mxGeometry x="1901.268" y="-915.4861224489796" width="202.8482972136223" height="78.97959183673468" as="geometry" />
        </mxCell>
        <mxCell id="uIToXqVDKAPkT3p9r34H-29" value="" style="line;strokeWidth=2;rotatable=0;dashed=0;labelPosition=right;align=left;verticalAlign=middle;spacingTop=0;spacingLeft=6;points=[];portConstraint=eastwest;" parent="1" vertex="1">
          <mxGeometry x="1865.6100000000001" y="-825.9799999999999" width="271.2" height="26.33" as="geometry" />
        </mxCell>
        <mxCell id="uIToXqVDKAPkT3p9r34H-31" value="&lt;b style=&quot;&quot;&gt;&lt;font style=&quot;font-size: 24px;&quot;&gt;Load Type:&lt;/font&gt;&lt;/b&gt;&lt;div&gt;&lt;ul&gt;&lt;li&gt;&lt;font style=&quot;font-size: 24px;&quot;&gt;Upsert for Dimension Tables (SCD 1 and SCD 2)&lt;/font&gt;&lt;/li&gt;&lt;li&gt;&lt;font style=&quot;font-size: 24px;&quot;&gt;Insert for Fact Tables&lt;/font&gt;&lt;/li&gt;&lt;/ul&gt;&lt;/div&gt;" style="text;html=1;align=left;verticalAlign=middle;whiteSpace=wrap;rounded=0;" parent="1" vertex="1">
          <mxGeometry x="1866.81" y="-651.5699999999999" width="270" height="78.98" as="geometry" />
        </mxCell>
        <mxCell id="uIToXqVDKAPkT3p9r34H-32" value="&lt;div style=&quot;&quot;&gt;&lt;b style=&quot;&quot;&gt;&lt;font style=&quot;font-size: 24px;&quot;&gt;Transformations:&lt;/font&gt;&lt;/b&gt;&lt;/div&gt;&lt;div style=&quot;&quot;&gt;&lt;ul&gt;&lt;li&gt;&lt;font style=&quot;font-size: 24px;&quot;&gt;Data Integration&lt;/font&gt;&lt;/li&gt;&lt;li&gt;&lt;font style=&quot;font-size: 24px;&quot;&gt;Aggregations&lt;/font&gt;&lt;/li&gt;&lt;li&gt;&lt;font style=&quot;font-size: 24px;&quot;&gt;Business Logic&lt;/font&gt;&lt;/li&gt;&lt;li&gt;&lt;font style=&quot;font-size: 24px;&quot;&gt;History Tracking&lt;/font&gt;&lt;/li&gt;&lt;/ul&gt;&lt;/div&gt;" style="text;html=1;align=left;verticalAlign=middle;whiteSpace=wrap;rounded=0;" parent="1" vertex="1">
          <mxGeometry x="1865.6100000000001" y="-436.18" width="271.2" height="78.98" as="geometry" />
        </mxCell>
        <mxCell id="uIToXqVDKAPkT3p9r34H-33" value="&lt;div style=&quot;&quot;&gt;&lt;font style=&quot;font-size: 24px;&quot;&gt;&lt;b style=&quot;&quot;&gt;Data Model:&lt;/b&gt;&amp;nbsp;Star Schema&lt;/font&gt;&lt;/div&gt;" style="text;html=1;align=left;verticalAlign=middle;whiteSpace=wrap;rounded=0;" parent="1" vertex="1">
          <mxGeometry x="1859.6100000000001" y="-296.18" width="291.2" height="78.98" as="geometry" />
        </mxCell>
        <mxCell id="uIToXqVDKAPkT3p9r34H-48" value="&lt;div style=&quot;&quot;&gt;&lt;font style=&quot;font-size: 24px;&quot;&gt;&lt;b style=&quot;background-color: transparent; color: light-dark(rgb(0, 0, 0), rgb(255, 255, 255));&quot;&gt;Object Type&lt;/b&gt;&lt;span style=&quot;background-color: transparent; color: light-dark(rgb(0, 0, 0), rgb(255, 255, 255));&quot;&gt;: Tables&lt;/span&gt;&lt;/font&gt;&lt;/div&gt;" style="text;html=1;align=left;verticalAlign=middle;whiteSpace=wrap;rounded=0;" parent="1" vertex="1">
          <mxGeometry x="1865.6100000000001" y="-806.18" width="269.28" height="78.98" as="geometry" />
        </mxCell>
        <mxCell id="uIToXqVDKAPkT3p9r34H-107" value="" style="rounded=0;whiteSpace=wrap;html=1;fillColor=light-dark(#FFCCCC,#4E291C);strokeColor=#36393d;strokeWidth=2;" parent="1" vertex="1">
          <mxGeometry x="2310" y="-1490" width="460" height="1471.45" as="geometry" />
        </mxCell>
        <mxCell id="uIToXqVDKAPkT3p9r34H-108" value="" style="group" parent="1" vertex="1" connectable="0">
          <mxGeometry x="2337" y="-1366.28" width="362.92" height="1310.1" as="geometry" />
        </mxCell>
        <mxCell id="uIToXqVDKAPkT3p9r34H-87" value="" style="rounded=0;whiteSpace=wrap;html=1;dashed=1;fillColor=none;strokeWidth=2;" parent="uIToXqVDKAPkT3p9r34H-108" vertex="1">
          <mxGeometry x="46" y="36.27999999999997" width="316.92" height="1273.82" as="geometry" />
        </mxCell>
        <mxCell id="uIToXqVDKAPkT3p9r34H-90" value="&lt;font style=&quot;font-size: 24px;&quot;&gt;Power BI Desktop&lt;/font&gt;" style="text;html=1;align=center;verticalAlign=middle;whiteSpace=wrap;rounded=0;" parent="uIToXqVDKAPkT3p9r34H-108" vertex="1">
          <mxGeometry x="94.46" y="446.28" width="220" height="60" as="geometry" />
        </mxCell>
        <mxCell id="uIToXqVDKAPkT3p9r34H-91" value="" style="line;strokeWidth=2;rotatable=0;dashed=0;labelPosition=right;align=left;verticalAlign=middle;spacingTop=0;spacingLeft=6;points=[];portConstraint=eastwest;" parent="uIToXqVDKAPkT3p9r34H-108" vertex="1">
          <mxGeometry x="72.92" y="516.28" width="263.08" height="55" as="geometry" />
        </mxCell>
        <mxCell id="uIToXqVDKAPkT3p9r34H-92" value="&lt;div style=&quot;&quot;&gt;&lt;font style=&quot;font-size: 24px;&quot;&gt;&lt;b style=&quot;background-color: transparent; color: light-dark(rgb(0, 0, 0), rgb(255, 255, 255));&quot;&gt;Object Type&lt;/b&gt;&lt;span style=&quot;background-color: transparent; color: light-dark(rgb(0, 0, 0), rgb(255, 255, 255));&quot;&gt;: .pbix File&lt;/span&gt;&lt;/font&gt;&lt;/div&gt;" style="text;html=1;align=left;verticalAlign=middle;whiteSpace=wrap;rounded=0;" parent="uIToXqVDKAPkT3p9r34H-108" vertex="1">
          <mxGeometry x="72.9235294117647" y="566.28" width="269.28" height="78.98" as="geometry" />
        </mxCell>
        <mxCell id="uIToXqVDKAPkT3p9r34H-95" value="" style="image;aspect=fixed;html=1;points=[];align=center;fontSize=12;image=img/lib/azure2/power_platform/PowerBI.svg;" parent="uIToXqVDKAPkT3p9r34H-108" vertex="1">
          <mxGeometry x="144.9999999999999" y="296.28" width="97.5" height="130" as="geometry" />
        </mxCell>
        <mxCell id="uIToXqVDKAPkT3p9r34H-101" value="" style="group" parent="uIToXqVDKAPkT3p9r34H-108" vertex="1" connectable="0">
          <mxGeometry x="78.99529411764792" width="226.00470588235208" height="64" as="geometry" />
        </mxCell>
        <mxCell id="uIToXqVDKAPkT3p9r34H-89" value="" style="image;aspect=fixed;html=1;points=[];align=center;fontSize=12;image=img/lib/azure2/power_platform/PowerBI.svg;" parent="uIToXqVDKAPkT3p9r34H-101" vertex="1">
          <mxGeometry width="48" height="64" as="geometry" />
        </mxCell>
        <mxCell id="uIToXqVDKAPkT3p9r34H-94" value="&lt;font style=&quot;font-size: 33px;&quot;&gt;&lt;b style=&quot;&quot;&gt;Power BI&lt;/b&gt;&lt;/font&gt;" style="rounded=0;whiteSpace=wrap;html=1;labelBackgroundColor=none;strokeColor=none;fillColor=#FFCCCC;" parent="uIToXqVDKAPkT3p9r34H-101" vertex="1">
          <mxGeometry x="48.004705882352084" y="16.279999999999973" width="178" height="31.45" as="geometry" />
        </mxCell>
        <mxCell id="uIToXqVDKAPkT3p9r34H-103" value="&lt;div style=&quot;&quot;&gt;&lt;span style=&quot;font-size: 24px;&quot;&gt;&lt;b&gt;Refresh Type: &lt;/b&gt;Manual&lt;/span&gt;&lt;/div&gt;" style="text;html=1;align=left;verticalAlign=middle;whiteSpace=wrap;rounded=0;" parent="uIToXqVDKAPkT3p9r34H-108" vertex="1">
          <mxGeometry x="69.82000000000016" y="656.28" width="269.28" height="78.98" as="geometry" />
        </mxCell>
        <mxCell id="uIToXqVDKAPkT3p9r34H-104" value="&lt;div style=&quot;&quot;&gt;&lt;font style=&quot;font-size: 24px;&quot;&gt;&lt;b style=&quot;&quot;&gt;Data Model:&lt;/b&gt;&amp;nbsp;Star Schema&lt;/font&gt;&lt;/div&gt;" style="text;html=1;align=left;verticalAlign=middle;whiteSpace=wrap;rounded=0;" parent="uIToXqVDKAPkT3p9r34H-108" vertex="1">
          <mxGeometry x="61.960000000000036" y="746.28" width="291.2" height="78.98" as="geometry" />
        </mxCell>
        <mxCell id="uIToXqVDKAPkT3p9r34H-105" value="&lt;font style=&quot;font-size: 50px;&quot;&gt;&lt;b style=&quot;&quot;&gt;On-Premises&lt;/b&gt;&lt;/font&gt;" style="rounded=0;whiteSpace=wrap;html=1;fillColor=none;strokeColor=none;fontSize=18;dashed=1;" parent="1" vertex="1">
          <mxGeometry x="2378.72" y="-1452" width="331.79" height="78.55" as="geometry" />
        </mxCell>
        <mxCell id="uIToXqVDKAPkT3p9r34H-106" value="" style="image;sketch=0;aspect=fixed;html=1;points=[];align=center;fontSize=12;image=img/lib/mscae/Exchange_On_premises_Access.svg;" parent="1" vertex="1">
          <mxGeometry x="2337" y="-1480" width="52.2" height="90" as="geometry" />
        </mxCell>
        <mxCell id="uIToXqVDKAPkT3p9r34H-96" value="" style="html=1;shadow=0;dashed=0;align=center;verticalAlign=middle;shape=mxgraph.arrows2.arrow;dy=0.6;dx=40;notch=0;fillColor=#dae8fc;strokeColor=#6c8ebf;strokeWidth=3;" parent="1" vertex="1">
          <mxGeometry x="2240" y="-1030" width="100" height="70" as="geometry" />
        </mxCell>
        <mxCell id="uIToXqVDKAPkT3p9r34H-78" value="Untitled Layer" parent="0" />
      </root>
    </mxGraphModel>
  </diagram>
</mxfile>
